<?xml version="1.0" encoding="UTF-8"?>
<svg version="1.1" xmlns="http://www.w3.org/2000/svg" width="512" height="512">
<path d="M0 0 C8.93134564 6.43296252 15.1344649 14.69886525 17.58203125 25.4921875 C18.27705492 32.30958239 18.04891697 39.19310802 17.97265625 46.03515625 C17.96518358 48.01483078 17.9594955 49.99451277 17.95550537 51.97419739 C17.94032981 57.15118307 17.90111869 62.32771037 17.85668945 67.5045166 C17.81556134 72.80047406 17.79745709 78.09650654 17.77734375 83.39257812 C17.73461574 93.75931451 17.66646369 104.12571269 17.58203125 114.4921875 C18.19727661 114.4848912 18.81252197 114.47759491 19.44641113 114.47007751 C20.2549353 114.46440262 21.06345947 114.45872772 21.89648438 114.45288086 C22.69735474 114.44558456 23.4982251 114.43828827 24.32336426 114.43077087 C27.14143315 114.5073985 29.44074315 115.08050871 32.08203125 116.0546875 C33.335 116.48974609 33.335 116.48974609 34.61328125 116.93359375 C44.83829704 122.30172704 52.54612884 131.3266777 60.41455078 139.59204102 C67.85880925 147.38766112 75.03311666 153.31267269 84.58203125 158.4921875 C85.33919434 158.90944092 86.09635742 159.32669434 86.87646484 159.7565918 C100.69313879 167.08515628 115.57524151 171.75987197 131.01953125 174.0546875 C143.12087882 175.85405155 152.93605821 179.87784418 162.58203125 187.4921875 C163.21753906 187.96398437 163.85304687 188.43578125 164.5078125 188.921875 C174.60624912 196.84836406 181.47813152 209.92658522 183.58203125 222.4921875 C183.88557513 227.26482186 183.88681852 232.03474303 183.88842773 236.81518555 C183.89605955 238.25651473 183.90448879 239.69783988 183.91365051 241.13916016 C183.93548811 245.03353407 183.94437861 248.92782955 183.94947696 252.82225776 C183.95313005 255.25727047 183.95937469 257.6922629 183.96647835 260.12726784 C183.99092513 268.62692792 184.00401662 277.12652727 184.00756836 285.6262207 C184.01121095 293.54375907 184.04116991 301.46091156 184.08297294 309.37833184 C184.11765104 316.18532249 184.13311628 322.99218489 184.13381439 329.7992633 C184.13460737 333.86109045 184.14335669 337.92252298 184.17181206 341.98425865 C184.19795417 345.80039198 184.2002203 349.61580207 184.18415642 353.43198395 C184.18233944 354.83121885 184.18905539 356.23049506 184.20497513 357.62964058 C184.31750456 368.16196804 184.31750456 368.16196804 181.74061584 372.82267761 C176.99840533 375.32923304 172.73713945 375.18974257 167.4453125 375.13916016 C165.75914322 375.15230255 165.75914322 375.15230255 164.03890991 375.16571045 C160.32372421 375.18771403 156.60972903 375.17314675 152.89453125 375.15625 C150.31290458 375.15961782 147.73127945 375.16447014 145.1496582 375.17074585 C139.73925214 375.17811857 134.32929337 375.16787539 128.91894531 375.14404297 C122.66968441 375.11683252 116.42123917 375.12564728 110.17199802 375.153175 C104.1528302 375.1786249 98.13406049 375.17589856 92.11483765 375.16126633 C89.55675136 375.15792922 86.99864428 375.16203 84.44058228 375.17366409 C80.86607605 375.18635298 77.29313923 375.16701978 73.71875 375.13916016 C72.1304689 375.15434189 72.1304689 375.15434189 70.51010132 375.16983032 C65.84315925 375.10239105 63.34263478 375.01588578 59.42720032 372.31999207 C57.32518624 369.09856098 56.94756296 367.41853962 56.92260742 363.6003418 C56.90296432 362.43951584 56.88332123 361.27868988 56.86308289 360.08268738 C56.86701553 358.83981461 56.87094818 357.59694183 56.875 356.31640625 C56.85987869 355.03611038 56.84475739 353.75581451 56.82917786 352.4367218 C56.7893974 349.0451268 56.77914213 345.65406883 56.77514648 342.26226807 C56.76580158 338.79642518 56.72837981 335.3308961 56.69335938 331.86523438 C56.63042551 325.07421182 56.59555658 318.28347848 56.58203125 311.4921875 C55.96388046 311.18866364 55.34572968 310.88513977 54.70884705 310.57241821 C48.80713327 307.67221626 42.91060951 304.76173543 37.01933956 301.84037209 C33.99233096 300.33976667 30.96315367 298.84401334 27.93041992 297.35498047 C-9.45870789 278.98866236 -41.57610424 255.25927237 -55.74169922 214.57568359 C-59.43905895 203.18461213 -62.5210476 191.6480583 -62.56513977 179.61224365 C-62.56881646 178.95657197 -62.57249315 178.30090029 -62.57628125 177.62535977 C-62.58721593 175.44782277 -62.59114432 173.27033365 -62.5949707 171.09277344 C-62.60124297 169.52340039 -62.60789044 167.95402881 -62.61488342 166.38465881 C-62.63583141 161.24863705 -62.64627555 156.11261529 -62.65625 150.9765625 C-62.6603007 149.20273066 -62.66441771 147.42889898 -62.66860008 145.65506744 C-62.68762959 137.32086498 -62.70186659 128.98667126 -62.71021205 120.65245128 C-62.71998325 111.05510144 -62.74630913 101.4579823 -62.78671294 91.86071372 C-62.81693106 84.42606535 -62.83168622 76.99148294 -62.83499306 69.55677438 C-62.83733653 65.12368009 -62.84620548 60.6908329 -62.87145424 56.25780487 C-62.89484085 52.08473372 -62.89892603 47.91207059 -62.88869286 43.73895073 C-62.88819999 42.21484706 -62.89444624 40.69072254 -62.9082489 39.16668129 C-63.02207301 25.84422807 -60.84078132 15.36281691 -51.41796875 5.4921875 C-37.63784493 -7.66275112 -16.31305228 -10.17259803 0 0 Z M-37.98046875 22.39453125 C-41.82139532 28.07953904 -42.53992854 33.42960035 -42.55168152 40.24221802 C-42.5559465 41.36588776 -42.56021149 42.4895575 -42.56460571 43.64727783 C-42.56415253 44.86598572 -42.56369934 46.0846936 -42.56323242 47.34033203 C-42.56659103 48.63556793 -42.56994965 49.93080383 -42.57341003 51.26528931 C-42.58222501 54.81162308 -42.58458738 58.3579327 -42.58522582 61.90427637 C-42.58593889 64.12933124 -42.58807828 66.35438007 -42.59072304 68.57943344 C-42.59997524 76.3701796 -42.60405896 84.16090869 -42.60327148 91.95166016 C-42.60267395 99.16435571 -42.61316192 106.37697569 -42.62901515 113.58965218 C-42.64220068 119.81509086 -42.64745067 126.04050522 -42.64681607 132.26595771 C-42.64656386 135.9687763 -42.64925763 139.67152799 -42.65999413 143.37433243 C-42.76973952 184.12735158 -38.32426638 218.3004282 -9.29296875 248.9921875 C2.35220398 260.22427133 16.18351665 267.28590344 30.52893066 274.46331787 C32.85014076 275.62654513 35.16884021 276.794689 37.48730469 277.96337891 C42.9327306 280.70776966 48.38137257 283.44570517 53.83203125 286.1796875 C55.18865875 286.86028229 55.18865875 286.86028229 56.57269287 287.55462646 C59.16312021 288.85269232 61.75508433 290.14762991 64.34765625 291.44140625 C65.13417572 291.83564285 65.92069519 292.22987946 66.73104858 292.63606262 C67.45821075 292.99810287 68.18537292 293.36014313 68.93457031 293.7331543 C69.56913147 294.05003708 70.20369263 294.36691986 70.85748291 294.69340515 C72.7597635 295.61353072 72.7597635 295.61353072 75.58203125 296.4921875 C76.59748891 299.53856049 76.73622895 301.68995848 76.78735352 304.8815918 C76.8075354 305.99787964 76.82771729 307.11416748 76.84851074 308.26428223 C76.87322449 310.02258362 76.87322449 310.02258362 76.8984375 311.81640625 C76.91708862 312.89458618 76.93573975 313.97276611 76.95495605 315.08361816 C77.02331319 319.11555701 77.08342393 323.14763226 77.14453125 327.1796875 C77.36109375 340.699375 77.36109375 340.699375 77.58203125 354.4921875 C105.96203125 354.4921875 134.34203125 354.4921875 163.58203125 354.4921875 C163.64216466 332.42337805 163.64216466 332.42337805 163.68253899 310.35455704 C163.69359883 302.45867746 163.70761478 294.56284038 163.73291016 286.66699219 C163.75293577 280.41306248 163.7657693 274.15916494 163.77020824 267.90520406 C163.77280021 264.59824337 163.77990243 261.29139528 163.79349136 257.98445892 C163.80810372 254.27962391 163.81000511 250.57497659 163.80908203 246.87011719 C163.81986786 245.25169922 163.81986786 245.25169922 163.83087158 243.60058594 C163.7885886 227.81834642 160.67954748 215.05946742 149.4140625 203.52734375 C141.53665441 197.86647532 132.76806571 195.57788911 123.39453125 193.6796875 C91.38005953 186.70081789 65.42468944 175.366241 42.64453125 151.6171875 C40.87305808 149.7772738 39.09846104 147.94088924 37.31407166 146.11349487 C36.21660461 144.98911592 35.1263443 143.85763748 34.04493713 142.71780396 C30.08386834 138.65227208 26.31790471 135.92992725 20.65234375 135.0234375 C13.67182359 134.94937363 8.76924825 135.59248368 3.58203125 140.4921875 C-1.23288287 145.58963937 -1.98880915 150.50604125 -2.08203125 157.3671875 C-0.01750852 167.08258856 8.60971474 173.89295064 15.41015625 180.578125 C16.5671977 181.72701755 17.72349686 182.8766581 18.87908936 184.02700806 C21.90371106 187.03461277 24.93681379 190.03350679 27.97229004 193.03015137 C32.84640635 197.8447609 37.70759043 202.67242209 42.56838226 207.50047684 C44.26580515 209.18393312 45.96697747 210.86352652 47.66876221 212.54257202 C48.70405967 213.56785118 49.73928116 214.59320705 50.77441406 215.61865234 C51.68088684 216.5138559 52.58735962 217.40905945 53.52130127 218.33139038 C56.91700848 221.89198999 56.9132308 224.54096321 56.875 229.296875 C56.58203125 231.4921875 56.58203125 231.4921875 54.70703125 233.9921875 C51.12803467 236.51853803 48.98559021 236.91560663 44.58203125 236.4921875 C40.26488945 233.92925204 36.77880817 230.94911068 33.22265625 227.42333984 C32.72423218 226.931633 32.22580811 226.43992615 31.71228027 225.93331909 C30.08024947 224.32014988 28.4557351 222.69967244 26.83203125 221.078125 C25.6892706 219.94180157 24.54636445 218.80562445 23.40332031 217.66958618 C21.01271027 215.29092017 18.62623845 212.90818821 16.2421875 210.52294922 C13.20632716 207.48688611 10.15696444 204.46479561 7.1038208 201.44612694 C4.73925968 199.10395044 2.3839939 196.75258959 0.03112793 194.3986702 C-1.08824601 193.28163599 -2.2108171 192.16779511 -3.33679199 191.05741501 C-13.29048127 181.22873959 -21.50435784 171.6738684 -21.79858398 157.03491211 C-21.76799697 144.54610056 -19.57851233 134.63625528 -10.41796875 125.4921875 C-9.46154984 125.06657784 -9.46154984 125.06657784 -8.48580933 124.63237 C-5.70614189 123.21752586 -4.26640265 122.03356006 -2.41796875 119.4921875 C-1.21779125 113.20673833 -1.43871206 106.9703979 -1.56640625 100.59375 C-1.57626213 98.71578356 -1.58285463 96.83779742 -1.58633423 94.95980835 C-1.6015987 91.02692704 -1.64265393 87.09550567 -1.70458984 83.16308594 C-1.78362991 78.13733666 -1.81979346 73.1125368 -1.8392086 68.08623695 C-1.85922301 63.27611432 -1.89892654 58.46621913 -1.94140625 53.65625 C-1.95159349 52.29006971 -1.95159349 52.29006971 -1.96198654 50.89628983 C-1.98531617 48.29989407 -2.02238498 45.70407055 -2.06396484 43.10791016 C-2.07203156 41.97297371 -2.07203156 41.97297371 -2.08026123 40.81510925 C-2.23055019 33.27966753 -3.41529702 26.41640402 -8.41796875 20.4921875 C-12.69892999 16.57314327 -16.6231532 15.13058821 -22.41796875 14.8671875 C-29.1833916 15.19138179 -33.66425209 17.13953747 -37.98046875 22.39453125 Z " fill="#1492FA" transform="translate(62.41796875,121.5078125)"/>
<path d="M0 0 C9.03253649 6.50584705 14.87663293 14.68278865 17.58203125 25.4921875 C18.13143346 30.73500783 18.13073434 35.93995091 18.09960938 41.20288086 C18.10504113 42.75824638 18.11216965 44.31360674 18.12084961 45.86895752 C18.13897462 50.06592622 18.13205694 54.26249837 18.11933327 58.45947337 C18.10913282 62.87969497 18.11861985 67.29988495 18.12487793 71.72010803 C18.13214084 79.15013648 18.12260957 86.58000557 18.10351562 94.01000977 C18.0818217 102.54927597 18.08874907 111.08815893 18.11082125 119.6274156 C18.12910086 126.99947177 18.13147069 134.37141394 18.12106657 141.74348551 C18.11489071 146.12814081 18.11382862 150.51261748 18.12721252 154.89726067 C18.18314666 176.09730441 18.15165994 196.64463379 10.14453125 216.6796875 C9.84377686 217.46085938 9.54302246 218.24203125 9.2331543 219.046875 C3.50247838 233.62461572 3.50247838 233.62461572 -2.41796875 237.4921875 C-5.65385266 238.38721922 -7.77044221 238.64636049 -11.04296875 237.8671875 C-14.09851264 236.09818841 -15.59660457 234.52779446 -17.41796875 231.4921875 C-17.96228572 225.8492052 -16.59214012 221.85126418 -14.16796875 216.8671875 C-5.14244482 197.27741395 -3.26468908 177.92675916 -3.27270508 156.54541016 C-3.26934647 155.22973053 -3.26598785 153.9140509 -3.26252747 152.5585022 C-3.25380606 148.99691942 -3.25135471 145.43536075 -3.25071168 141.87376833 C-3.24999545 139.64206353 -3.24785063 137.41036466 -3.24521446 135.17866135 C-3.236007 127.37577685 -3.23187459 119.57290928 -3.23266602 111.77001953 C-3.2332686 104.52056453 -3.22266964 97.2711835 -3.20692235 90.02174723 C-3.19382877 83.76915885 -3.18848274 77.51659465 -3.18912143 71.26399267 C-3.18937547 67.54155505 -3.18657493 63.81918362 -3.17594337 60.0967598 C-3.16442359 55.95198761 -3.1690203 51.80738148 -3.17504883 47.66259766 C-3.16942932 46.44165405 -3.16380981 45.22071045 -3.15802002 43.96276855 C-3.1903974 35.20097395 -3.53241462 27.49122485 -9.41796875 20.4921875 C-14.57390281 16.41040637 -18.94180113 15.80151475 -25.4765625 16.046875 C-30.74142388 16.84394565 -34.43996198 19.01247056 -37.7578125 23.171875 C-41.59087768 29.31023561 -41.5759749 35.86057274 -41.65844727 42.88085938 C-41.67794182 44.11129723 -41.67794182 44.11129723 -41.6978302 45.36659241 C-41.82391258 53.88756007 -41.88114004 62.40946335 -41.93286133 70.93115234 C-41.9596785 74.97239348 -42.00852538 79.01246668 -42.07641602 83.05322266 C-42.15833412 87.94266645 -42.20103638 92.83099191 -42.21592522 97.72108459 C-42.22816842 99.58071505 -42.25419116 101.44030872 -42.29437447 103.29954529 C-42.91291684 113.10003741 -42.91291684 113.10003741 -39.65786743 121.91963196 C-37.62600895 123.44938798 -35.73286486 124.4656691 -33.41796875 125.4921875 C-25.16646163 133.72885378 -22.05980347 143.04376166 -21.91796875 154.4921875 C-22.14683412 172.96543715 -32.92861525 183.32021256 -45.3359375 195.67578125 C-46.48249466 196.82368862 -47.62875504 197.97189249 -48.7747345 199.12037659 C-51.16096432 201.50953497 -53.55072335 203.8950887 -55.94311523 206.27807617 C-59.00644489 209.32994763 -62.06061947 212.39079978 -65.11225414 215.45436001 C-67.47037609 217.81970688 -69.83323782 220.18027255 -72.19756508 222.53941536 C-73.32614149 223.66666039 -74.45324177 224.79538534 -75.57881737 225.92562675 C-77.14825879 227.50015087 -78.7239741 229.0681167 -80.30151367 230.63452148 C-81.19529221 231.52670883 -82.08907074 232.41889618 -83.00993347 233.33811951 C-86.09738398 236.09994712 -88.19879526 237.33316487 -92.29296875 237.8671875 C-96.23968739 237.39358126 -98.32792062 235.93548137 -101.41796875 233.4921875 C-103.2150371 229.89805081 -103.09507863 226.39996132 -102.41796875 222.4921875 C-101.22735596 220.65530396 -101.22735596 220.65530396 -99.57910156 218.87939453 C-98.94025024 218.18863831 -98.30139893 217.49788208 -97.64318848 216.78619385 C-93.76767887 212.7908834 -89.84517853 208.84651489 -85.88014984 204.94033432 C-84.30450848 203.38704091 -82.73314059 201.82953729 -81.16290283 200.27078247 C-76.7040534 195.84523751 -72.24086816 191.42413485 -67.76757812 187.01318359 C-65.01682356 184.30016905 -62.27351429 181.57981207 -59.53476715 178.85467911 C-58.49617867 177.82410819 -57.45482744 176.79631336 -56.41060638 175.77145004 C-54.95128128 174.33874337 -53.50162985 172.89685732 -52.05371094 171.45263672 C-51.22877136 170.63737518 -50.40383179 169.82211365 -49.55389404 168.98214722 C-44.79199653 163.43095448 -43.80464906 158.58830351 -44.0078125 151.46875 C-44.85968132 145.28661629 -47.75124117 141.85278144 -52.48046875 137.9921875 C-57.41213804 135.59095987 -63.11619496 135.43707553 -68.41796875 136.4921875 C-77.38665772 140.84005193 -83.84465305 148.76965525 -90.61743164 155.90405273 C-100.81617338 166.60669997 -111.92891236 175.58928408 -125.54296875 181.6796875 C-126.23777344 181.99591064 -126.93257813 182.31213379 -127.6484375 182.63793945 C-140.87217212 188.48454434 -154.27435571 192.4399101 -168.48046875 195.0546875 C-181.36078303 197.44853771 -192.06987694 200.66484801 -200.41796875 211.4921875 C-207.50140517 222.05393541 -207.71202924 234.64448654 -207.73681641 246.98364258 C-207.74686203 248.15596939 -207.75690765 249.3282962 -207.76725769 250.53614807 C-207.79782997 254.36133389 -207.81505206 258.18645059 -207.83203125 262.01171875 C-207.85076383 264.68357822 -207.87024551 267.35542182 -207.89071655 270.02726746 C-207.93722511 276.30959401 -207.97410289 282.59193742 -208.00738943 288.87434644 C-208.0495897 296.73985912 -208.10487935 304.60527334 -208.16015625 312.47070312 C-208.25853883 326.47781006 -208.33735761 340.48494201 -208.41796875 354.4921875 C-180.03796875 354.4921875 -151.65796875 354.4921875 -122.41796875 354.4921875 C-122.61570139 336.61644193 -122.61570139 336.61644193 -122.8684082 318.74145508 C-122.8830131 316.49822171 -122.89575376 314.2549751 -122.90625 312.01171875 C-122.93182983 310.84974976 -122.95740967 309.68778076 -122.98376465 308.49060059 C-122.98817338 300.34766882 -122.98817338 300.34766882 -120.42211914 296.49780273 C-116.68144103 294.0004707 -112.89445064 291.87235806 -108.86328125 289.8828125 C-108.043508 289.47053406 -107.22373474 289.05825562 -106.37911987 288.63348389 C-104.65184851 287.76815386 -102.92206313 286.90782586 -101.18994141 286.05224609 C-98.55121464 284.74626862 -95.92383713 283.41929793 -93.296875 282.08984375 C-91.61131682 281.24871679 -89.9251386 280.40883097 -88.23828125 279.5703125 C-87.45889191 279.17555725 -86.67950256 278.780802 -85.87649536 278.37408447 C-81.38436128 276.17559007 -77.49474906 274.77375022 -72.41796875 274.4921875 C-68.88705856 275.71442564 -66.95297552 276.8881476 -64.48046875 279.6796875 C-63.07062188 283.41163509 -62.96255679 286.79768023 -64.41796875 290.4921875 C-68.14588812 294.75148068 -71.90396422 297.07506884 -76.90625 299.48046875 C-77.96104805 300.00256172 -77.96104805 300.00256172 -79.03715515 300.53520203 C-81.26370647 301.63458776 -83.49682804 302.71979006 -85.73046875 303.8046875 C-87.24980653 304.55180457 -88.76869187 305.29984248 -90.28710938 306.04882812 C-93.99224868 307.87397171 -97.70334259 309.6864356 -101.41796875 311.4921875 C-101.41939377 312.20771286 -101.42081879 312.92323822 -101.42228699 313.66044617 C-101.44013956 320.41390841 -101.48181888 327.16675815 -101.55005932 333.91990948 C-101.58430571 337.39159925 -101.60943543 340.86285013 -101.61352539 344.3347168 C-101.61863469 348.32914217 -101.66376341 352.32225456 -101.7109375 356.31640625 C-101.70700485 357.55927902 -101.7030722 358.80215179 -101.69902039 360.08268738 C-101.72848503 361.82392632 -101.72848503 361.82392632 -101.75854492 363.6003418 C-101.76520676 364.61960251 -101.77186859 365.63886322 -101.7787323 366.68901062 C-102.71130383 370.77851921 -103.95437004 372.10739622 -107.41796875 374.4921875 C-111.13066541 375.22334265 -114.78054208 375.17523568 -118.5546875 375.13916016 C-120.24085678 375.15230255 -120.24085678 375.15230255 -121.96109009 375.16571045 C-125.67627579 375.18771403 -129.39027097 375.17314675 -133.10546875 375.15625 C-135.68709542 375.15961782 -138.26872055 375.16447014 -140.8503418 375.17074585 C-146.26074786 375.17811857 -151.67070663 375.16787539 -157.08105469 375.14404297 C-163.33031559 375.11683252 -169.57876083 375.12564728 -175.82800198 375.153175 C-181.8471698 375.1786249 -187.86593951 375.17589856 -193.88516235 375.16126633 C-196.44324864 375.15792922 -199.00135572 375.16203 -201.55941772 375.17366409 C-205.13392395 375.18635298 -208.70686077 375.16701978 -212.28125 375.13916016 C-213.34010406 375.14928131 -214.39895813 375.15940247 -215.48989868 375.16983032 C-219.82744188 375.107151 -222.70774975 374.86893442 -226.5745697 372.81771851 C-229.59506363 367.36868335 -229.10460481 361.73629114 -229.04907227 355.63671875 C-229.05421318 354.20880749 -229.06149577 352.78090258 -229.070755 351.35301208 C-229.08926921 347.47835294 -229.07632549 343.6043821 -229.05666471 339.72975159 C-229.04025134 335.66390208 -229.04909601 331.59809528 -229.05418396 327.53222656 C-229.05870605 320.69601498 -229.04283827 313.86007686 -229.01489258 307.02392578 C-228.98294252 299.14809016 -228.98281609 291.2727505 -229.00010735 283.39688015 C-229.01604821 275.79840895 -229.00918396 268.20011754 -228.99217033 260.60165405 C-228.98534137 257.38027084 -228.9862895 254.15903354 -228.99371529 250.93765259 C-229.0014533 247.12892987 -228.98901109 243.3207613 -228.96186638 239.51213264 C-228.95183942 237.46908377 -228.96109062 235.42596782 -228.97119141 233.38291931 C-228.80079451 216.67694285 -222.87871729 202.5991474 -211.41796875 190.4921875 C-200.23444559 180.54249009 -188.93799121 176.49961419 -174.42285156 173.86474609 C-149.98122682 169.322866 -126.02281099 160.56795094 -108.41796875 142.4921875 C-105.93201465 139.94965032 -103.44332774 137.41007268 -100.9465332 134.87817383 C-99.21867507 133.12106499 -97.50172385 131.35314197 -95.79760742 129.57299805 C-88.60853756 122.21772348 -79.93706309 114.71782301 -69.11352539 114.43115234 C-68.31809326 114.43840332 -67.52266113 114.4456543 -66.703125 114.453125 C-65.89883057 114.45876465 -65.09453613 114.4644043 -64.26586914 114.47021484 C-63.35115845 114.48109131 -63.35115845 114.48109131 -62.41796875 114.4921875 C-62.4268512 113.40161545 -62.43573364 112.3110434 -62.44488525 111.18742371 C-62.52621683 100.8748916 -62.58605171 90.56242517 -62.62521744 80.24964428 C-62.64603035 74.94860074 -62.67423236 69.64781756 -62.71972656 64.34692383 C-62.7634096 59.22460203 -62.78715313 54.10252958 -62.79747772 48.98003578 C-62.80482894 47.03253572 -62.81918355 45.08504823 -62.84088898 43.13765526 C-62.99870168 28.38271435 -62.10635844 16.68854026 -51.41796875 5.4921875 C-37.63784493 -7.66275112 -16.31305228 -10.17259803 0 0 Z " fill="#1492FA" transform="translate(494.41796875,121.5078125)"/>
<path d="M0 0 C6.49194049 5.45364952 12.93496791 11.32442447 17.875 18.25 C21.12542891 16.85493574 22.94871792 15.28216606 25.1875 12.5625 C36.89037872 -1.14446578 51.77831044 -11.06738016 69.875 -13.75 C94.8126857 -15.31861202 117.24385295 -11.8733899 136.49365234 5.04785156 C154.44053826 21.5524255 165.15588861 46.10724629 166.19140625 70.33984375 C167.14757973 107.36364361 151.90400101 137.68015802 126.875 164.25 C122.50740843 168.77758982 118.07088842 173.23697658 113.625 177.6875 C113.05765137 178.25593628 112.49030273 178.82437256 111.90576172 179.41003418 C105.74364213 185.57081921 99.54537362 191.63435148 92.875 197.25 C91.71063167 198.24703879 90.5465637 199.24442846 89.3828125 200.2421875 C88.25531741 201.20325298 87.12771184 202.16418886 86 203.125 C81.84293311 206.67401333 77.72924498 210.25674022 73.6875 213.9375 C69.44791957 217.78851005 65.04567888 221.39843955 60.59375 225 C57.95352271 227.18501569 55.4077028 229.44171391 52.875 231.75 C48.58529191 235.65960737 44.13799868 239.32507635 39.625 242.97265625 C35.96662676 246.00224659 32.46303001 249.18601783 28.96875 252.40234375 C24.9474377 255.95100181 22.16485054 257.17787795 16.87109375 257.0703125 C10.71693416 255.38534051 6.22647265 250.23775754 1.68945312 245.94335938 C-1.16466406 243.27972149 -4.1456472 240.77150498 -7.125 238.25 C-8.29235652 237.25080539 -9.45902216 236.25080307 -10.625 235.25 C-11.49125 234.5075 -11.49125 234.5075 -12.375 233.75 C-18.79166667 228.25 -25.20833333 222.75 -31.625 217.25 C-32.20241943 216.75516113 -32.77983887 216.26032227 -33.37475586 215.75048828 C-34.54260401 214.7492894 -35.710084 213.74766092 -36.87719727 212.74560547 C-39.7729381 210.26031319 -42.67446611 207.78255246 -45.58984375 205.3203125 C-66.50034405 187.62182535 -88.11731701 168.59529725 -104.125 146.25 C-104.73601562 145.45722656 -105.34703125 144.66445312 -105.9765625 143.84765625 C-123.97220691 119.81237775 -131.16702132 91.28693953 -127.8203125 61.54199219 C-124.22800338 38.49439666 -112.81310178 15.90413927 -94.3125 1.375 C-66.71870758 -17.97971927 -27.67016097 -21.34432324 0 0 Z M-84.125 21.25 C-85.18654297 22.12398437 -85.18654297 22.12398437 -86.26953125 23.015625 C-98.27563682 33.90873854 -106.12687767 51.57503574 -107.30200195 67.67504883 C-108.17878617 103.90265491 -93.08484667 128.81334359 -68.73486328 154.56982422 C-61.45486499 162.16778422 -54.1120945 169.79532084 -46.06640625 176.58984375 C-43.59055003 178.70702462 -41.20838732 180.91781829 -38.8125 183.125 C-34.29596163 187.24906676 -29.63366984 191.12936865 -24.875 194.96875 C-22.04400422 197.31718968 -19.33116402 199.75909902 -16.625 202.25 C-12.15997583 206.35934657 -7.5443052 210.21235486 -2.82421875 214.0234375 C-0.10912207 216.26309756 2.51513139 218.57637832 5.125 220.9375 C5.93839844 221.67097656 6.75179687 222.40445313 7.58984375 223.16015625 C9.03640733 224.48308191 10.46825511 225.82243914 11.87890625 227.18359375 C15.05345539 230.36165543 15.05345539 230.36165543 19.25390625 231.1796875 C22.62464899 229.98410364 24.43199159 228.23368574 27 225.75 C27.96782894 224.83228518 28.93794217 223.91697423 29.91015625 223.00390625 C30.4014502 222.54129395 30.89274414 222.07868164 31.39892578 221.60205078 C33.66324153 219.52798849 36.04531678 217.61142608 38.4375 215.6875 C42.88493448 212.09801032 47.12906991 208.34171544 51.3515625 204.4921875 C53.92582358 202.20484096 56.56789489 200.03451729 59.25 197.875 C64.39692057 193.7108719 69.25774706 189.2991621 74.109375 184.80078125 C76.31555947 182.76598117 78.54132261 180.77353762 80.8125 178.8125 C95.44007299 166.08109388 110.14967777 152.75348162 121.875 137.25 C122.27525391 136.73147461 122.67550781 136.21294922 123.08789062 135.67871094 C139.43105056 114.40247739 146.65569394 92.18241766 144.875 65.25 C144.14967372 60.0619467 142.63501963 55.1756105 140.875 50.25 C140.441875 48.90808594 140.441875 48.90808594 140 47.5390625 C134.19494441 31.10868194 121.76522183 18.57648924 106.328125 11 C91.98863807 5.09039327 76.13342702 4.95318261 61.6875 10.375 C55.61015384 13.10098641 50.79825163 16.80958916 45.875 21.25 C44.97201172 22.01376953 44.97201172 22.01376953 44.05078125 22.79296875 C37.09170733 29.10317797 31.78562104 37.9090104 27.3125 46.1171875 C25.69145164 48.52232991 24.9047718 49.08285477 22.125 49.75 C18.68583796 50.366157 15.79488769 50.37960912 12.5859375 48.74609375 C9.39190122 45.95313509 7.68490791 42.14578579 5.69140625 38.453125 C2.93922538 33.59981681 -0.46504545 29.44324134 -4.125 25.25 C-4.67800781 24.61320312 -5.23101562 23.97640625 -5.80078125 23.3203125 C-15.26362027 13.1573589 -28.29050597 7.01655361 -42.15234375 6.21875 C-58.30534695 6.38855818 -71.73357857 10.90112056 -84.125 21.25 Z " fill="#1492FA" transform="translate(237.125,29.75)"/>
<path d="M0 0 C3.125 1.875 3.125 1.875 5 5 C5.98876625 10.02622846 5.7769173 13.70513784 3.125 18.125 C-1.29486216 20.7769173 -4.97377154 20.98876625 -10 20 C-13.125 18.125 -13.125 18.125 -15 15 C-15.98876625 9.97377154 -15.7769173 6.29486216 -13.125 1.875 C-8.70513784 -0.7769173 -5.02622846 -0.98876625 0 0 Z " fill="#1492FA" transform="translate(464,374)"/>
</svg>
