<?xml version="1.0" encoding="UTF-8"?>
<svg version="1.1" xmlns="http://www.w3.org/2000/svg" width="512" height="512">
<path d="M0 0 C0.97088562 0.00215515 1.94177124 0.0043103 2.94207764 0.00653076 C17.27751026 0.05757173 31.28525803 0.44028152 45.375 3.3125 C46.40109375 3.51649414 47.4271875 3.72048828 48.484375 3.93066406 C84.6345098 11.28704517 119.65036129 25.15969994 149.375 47.3125 C149.93832031 47.72709473 150.50164062 48.14168945 151.08203125 48.56884766 C169.03475496 61.82842667 185.5902051 76.70912734 199.375 94.3125 C199.97957031 95.02664062 200.58414062 95.74078125 201.20703125 96.4765625 C220.03763106 118.9147088 233.97525709 145.67736755 243.375 173.3125 C243.64747559 174.08400391 243.91995117 174.85550781 244.20068359 175.65039062 C247.5876021 185.26671072 250.09487597 194.94653554 252.125 204.9375 C252.32375732 205.91364258 252.52251465 206.88978516 252.72729492 207.89550781 C255.83154399 224.00620123 256.78408566 239.810718 256.75 256.1875 C256.74918427 257.66867813 256.74918427 257.66867813 256.74835205 259.17977905 C256.70787777 275.21228881 255.78917869 290.59643936 252.375 306.3125 C252.15537598 307.34020508 251.93575195 308.36791016 251.70947266 309.42675781 C240.88881011 358.72854512 216.51394862 402.2637036 181.375 438.3125 C180.529375 439.19808594 179.68375 440.08367187 178.8125 440.99609375 C173.38083137 446.59265232 167.49607593 451.48909217 161.375 456.3125 C159.89386719 457.50166016 159.89386719 457.50166016 158.3828125 458.71484375 C130.19683138 480.96138496 80.72031617 512.31378388 43.375 508.3125 C40.13885034 506.80229683 37.68628563 505.02491784 35.375 502.3125 C34.0650917 497.9599566 34.06758324 494.23475029 35.5 489.9375 C38.93664741 485.12619362 43.35681852 483.86555223 48.9375 482.5 C50.27927211 482.15739136 51.62038676 481.81220062 52.9609375 481.46484375 C54.03166504 481.18809814 54.03166504 481.18809814 55.12402344 480.90576172 C95.43959309 470.28029163 134.58714376 451.14044054 163.375 420.3125 C168.375 415.3125 168.375 415.3125 169.91577148 413.83544922 C174.35583758 409.52442155 178.17030201 404.95002627 181.875 400 C182.44468506 399.24364258 183.01437012 398.48728516 183.60131836 397.70800781 C184.71510538 396.22423263 185.82584948 394.73816698 186.93310547 393.24951172 C188.061703 391.7333768 189.20239187 390.22624097 190.34765625 388.72265625 C211.5936801 359.8552086 223.47750008 325.33195203 229.375 290.3125 C229.50777344 289.54615234 229.64054687 288.77980469 229.77734375 287.99023438 C239.110758 231.62270448 222.99761547 170.12465609 190.26171875 123.82421875 C187.40407076 119.90198392 184.41804583 116.09188519 181.375 112.3125 C180.72313721 111.48927246 180.72313721 111.48927246 180.05810547 110.64941406 C168.2818648 95.84268828 154.72173884 82.38540975 139.375 71.3125 C138.47394531 70.65290283 138.47394531 70.65290283 137.5546875 69.97998047 C107.10493911 47.81950721 72.55082167 33.37798718 35.375 27.3125 C34.69356934 27.19535645 34.01213867 27.07821289 33.31005859 26.95751953 C-23.51300997 17.55453818 -85.39915873 33.39739581 -132.11328125 66.42578125 C-136.03551608 69.28342924 -139.84561481 72.26945417 -143.625 75.3125 C-144.17381836 75.7470752 -144.72263672 76.18165039 -145.28808594 76.62939453 C-160.09481172 88.4056352 -173.55209025 101.96576116 -184.625 117.3125 C-185.06473145 117.91320312 -185.50446289 118.51390625 -185.95751953 119.1328125 C-208.11799279 149.58256089 -222.55951282 184.13667833 -228.625 221.3125 C-228.74214355 221.99393066 -228.85928711 222.67536133 -228.97998047 223.37744141 C-238.38296182 280.20050997 -222.54010419 342.08665873 -189.51171875 388.80078125 C-186.65407076 392.72301608 -183.66804583 396.53311481 -180.625 400.3125 C-180.1904248 400.86131836 -179.75584961 401.41013672 -179.30810547 401.97558594 C-167.5318648 416.78231172 -153.97173884 430.23959025 -138.625 441.3125 C-138.02429688 441.75223145 -137.42359375 442.19196289 -136.8046875 442.64501953 C-100.33747127 469.1848372 -56.76431531 485.66682341 -11.5234375 487.546875 C-10.67402588 487.58272705 -9.82461426 487.6185791 -8.94946289 487.65551758 C-7.32672872 487.71655345 -5.70341125 487.76421504 -4.07983398 487.7956543 C1.08722779 487.96906823 4.77180956 488.91134468 9.375 491.3125 C12.38502743 494.71091807 12.8519411 497.79877988 12.6640625 502.31640625 C12.20997263 505.45208086 11.12141329 507.69288006 9.375 510.3125 C4.47157049 513.49176577 -1.30695932 512.65225146 -6.9375 512.625 C-8.75205688 512.61654053 -8.75205688 512.61654053 -10.60327148 512.60791016 C-59.26079769 511.96369306 -109.62559707 494.37747818 -148.625 465.3125 C-149.18832031 464.89790527 -149.75164062 464.48331055 -150.33203125 464.05615234 C-168.28475496 450.79657333 -184.8402051 435.91587266 -198.625 418.3125 C-199.22957031 417.59835937 -199.83414063 416.88421875 -200.45703125 416.1484375 C-219.28763106 393.7102912 -233.22525709 366.94763245 -242.625 339.3125 C-242.89747559 338.54099609 -243.16995117 337.76949219 -243.45068359 336.97460938 C-246.8376021 327.35828928 -249.34487597 317.67846446 -251.375 307.6875 C-251.67313599 306.22328613 -251.67313599 306.22328613 -251.97729492 304.72949219 C-255.06841377 288.68694308 -256.00273815 272.99320096 -255.9375 256.6875 C-255.93534485 255.71661438 -255.9331897 254.74572876 -255.93096924 253.74542236 C-255.87992827 239.40998974 -255.49721848 225.40224197 -252.625 211.3125 C-252.42100586 210.28640625 -252.21701172 209.2603125 -252.00683594 208.203125 C-244.65045483 172.0529902 -230.77780006 137.03713871 -208.625 107.3125 C-208.00310791 106.46751953 -208.00310791 106.46751953 -207.36865234 105.60546875 C-194.10907333 87.65274504 -179.22837266 71.0972949 -161.625 57.3125 C-160.91085938 56.70792969 -160.19671875 56.10335937 -159.4609375 55.48046875 C-137.0227912 36.64986894 -110.26013245 22.71224291 -82.625 13.3125 C-81.85349609 13.04002441 -81.08199219 12.76754883 -80.28710938 12.48681641 C-70.67078928 9.0998979 -60.99096446 6.59262403 -51 4.5625 C-49.53578613 4.26436401 -49.53578613 4.26436401 -48.04199219 3.96020508 C-31.99944308 0.86908623 -16.30570096 -0.06523815 0 0 Z " fill="#1492FA" transform="translate(255.625,-0.3125)"/>
<path d="M0 0 C3.73528885 4.55955961 3.45200797 9.06365582 3.43359375 14.68359375 C3.4388356 15.6167189 3.44407745 16.54984406 3.44947815 17.51124573 C3.45588846 19.4805502 3.45457419 21.44989302 3.44604492 23.41918945 C3.43753811 26.42403707 3.46630491 29.4269808 3.49804688 32.43164062 C3.49965919 34.34895777 3.49908079 36.26627826 3.49609375 38.18359375 C3.50732773 39.07751328 3.51856171 39.9714328 3.53013611 40.8924408 C3.4671262 46.56343378 2.6748498 49.62842665 -1 54 C-4.0281958 56.3792967 -7.24769379 56.36275446 -11.0390625 56.25 C-13.99124996 55.8736255 -15.72135886 54.88801695 -18 53 C-20.73468002 49.20439893 -21.39726844 46.47090132 -21.51171875 41.82421875 C-21.54716797 40.66728516 -21.58261719 39.51035156 -21.61914062 38.31835938 C-21.64169922 37.12017578 -21.66425781 35.92199219 -21.6875 34.6875 C-21.72166016 33.46998047 -21.75582031 32.25246094 -21.79101562 30.99804688 C-21.87334817 27.99878986 -21.94254921 24.99981986 -22 22 C-34.91054807 23.5495514 -47.50063778 25.31440995 -60 29 C-60.67885254 29.19400391 -61.35770508 29.38800781 -62.05712891 29.58789062 C-81.41434826 35.20902369 -99.77452236 44.03783719 -116 56 C-116.54769043 56.39509766 -117.09538086 56.79019531 -117.65966797 57.19726562 C-124.24427891 61.9626755 -130.39822502 67.11749244 -136.375 72.625 C-136.93388916 73.13909424 -137.49277832 73.65318848 -138.06860352 74.18286133 C-171.56489784 105.66748582 -189.2774209 148.9291723 -194 194 C-192.86570557 194.01401855 -192.86570557 194.01401855 -191.70849609 194.02832031 C-188.26334866 194.082192 -184.81953438 194.16580841 -181.375 194.25 C-180.18519531 194.26417969 -178.99539062 194.27835938 -177.76953125 194.29296875 C-166.80069735 194.59936076 -166.80069735 194.59936076 -162 199 C-159.6207033 202.0281958 -159.63724554 205.24769379 -159.75 209.0390625 C-160.1263745 211.99124996 -161.11198305 213.72135886 -163 216 C-166.77136414 218.72364886 -169.33401105 219.36409214 -173.95703125 219.29296875 C-175.06884766 219.28330078 -176.18066406 219.27363281 -177.32617188 219.26367188 C-178.47666016 219.23853516 -179.62714844 219.21339844 -180.8125 219.1875 C-181.98232422 219.17396484 -183.15214844 219.16042969 -184.35742188 219.14648438 C-187.238752 219.11120278 -190.11913904 219.0619028 -193 219 C-187.1470174 267.32756485 -168.68025802 314.23146022 -130 346 C-128.95572073 346.89191721 -127.91145069 347.78384522 -126.8671875 348.67578125 C-96.65011729 374.06633913 -59.8866504 386.89657634 -21 391 C-21.02094727 390.27409668 -21.04189453 389.54819336 -21.06347656 388.80029297 C-21.1469365 385.49200445 -21.19875539 382.18393789 -21.25 378.875 C-21.30027344 377.16183594 -21.30027344 377.16183594 -21.3515625 375.4140625 C-21.42642797 368.97563175 -21.44606613 364.84422131 -17 360 C-13.9718042 357.6207033 -10.75230621 357.63724554 -6.9609375 357.75 C-4.00875004 358.1263745 -2.27864114 359.11198305 0 361 C2.72364886 364.77136414 3.36409214 367.33401105 3.29296875 371.95703125 C3.28330078 373.06884766 3.27363281 374.18066406 3.26367188 375.32617188 C3.23853516 376.47666016 3.21339844 377.62714844 3.1875 378.8125 C3.17396484 379.98232422 3.16042969 381.15214844 3.14648438 382.35742188 C3.11120278 385.238752 3.0619028 388.11913904 3 391 C51.32756485 385.1470174 98.23146022 366.68025802 130 328 C130.89191721 326.95572073 131.78384522 325.91145069 132.67578125 324.8671875 C158.06633913 294.65011729 170.89657634 257.8866504 175 219 C174.27409668 219.02094727 173.54819336 219.04189453 172.80029297 219.06347656 C169.49200445 219.1469365 166.18393789 219.19875539 162.875 219.25 C161.73289062 219.28351563 160.59078125 219.31703125 159.4140625 219.3515625 C152.97563175 219.42642797 148.84422131 219.44606613 144 215 C141.6207033 211.9718042 141.63724554 208.75230621 141.75 204.9609375 C142.1263745 202.00875004 143.11198305 200.27864114 145 198 C148.79560107 195.26531998 151.52909868 194.60273156 156.17578125 194.48828125 C157.33271484 194.45283203 158.48964844 194.41738281 159.68164062 194.38085938 C160.87982422 194.35830078 162.07800781 194.33574219 163.3125 194.3125 C164.53001953 194.27833984 165.74753906 194.24417969 167.00195312 194.20898438 C170.00121014 194.12665183 173.00018014 194.05745079 176 194 C172.62797468 167.61817518 166.62504643 143.57720886 154 120 C153.53207031 119.06414062 153.06414062 118.12828125 152.58203125 117.1640625 C145.95762736 104.2260772 136.94894762 92.5296255 127 82 C125.84935973 80.64991542 124.7033304 79.29588411 123.5625 77.9375 C102.09614632 53.4951291 71.79434359 38.45979225 41.3359375 28.76171875 C28.60672094 24.63440719 28.60672094 24.63440719 26.5 20.875 C24.40148885 16.59621753 24.47525133 12.47894921 26 8 C29.4106686 4.50187835 32.20326948 2.85408143 37.0390625 2.78125 C42.12254512 2.8461887 46.55267794 3.96915775 51.375 5.5 C52.23714111 5.76772217 53.09928223 6.03544434 53.98754883 6.3112793 C86.38211966 16.66491342 114.56868152 34.55381533 139 58 C140.2375 59.175625 140.2375 59.175625 141.5 60.375 C172.51052822 90.52412465 193.09382402 133.41824052 199 176 C199.17136475 177.21381348 199.17136475 177.21381348 199.34619141 178.45214844 C202.0494988 198.51669667 201.98418961 218.97608771 199 239 C198.89236328 239.75039551 198.78472656 240.50079102 198.67382812 241.27392578 C195.13233057 264.75885657 186.77264251 288.41530451 175 309 C174.40517822 310.04534912 174.40517822 310.04534912 173.79833984 311.11181641 C164.01465496 328.04003417 151.76895019 343.16568479 138 357 C137.44231934 357.56170898 136.88463867 358.12341797 136.31005859 358.70214844 C121.79389025 373.14630777 105.00990337 384.36697676 87 394 C86.32211426 394.36432129 85.64422852 394.72864258 84.94580078 395.10400391 C65.81971471 405.19004435 44.35744938 411.84010721 23 415 C21.87416504 415.17136475 21.87416504 415.17136475 20.72558594 415.34619141 C0.39445673 418.3051203 -20.69971828 418.06849432 -41 415 C-41.74749512 414.89236328 -42.49499023 414.78472656 -43.26513672 414.67382812 C-66.75376369 411.13328142 -90.4120509 402.77450329 -111 391 C-112.04534912 390.40517822 -112.04534912 390.40517822 -113.11181641 389.79833984 C-130.04003417 380.01465496 -145.16568479 367.76895019 -159 354 C-159.56170898 353.44231934 -160.12341797 352.88463867 -160.70214844 352.31005859 C-175.14630777 337.79389025 -186.36697676 321.00990337 -196 303 C-196.36432129 302.32211426 -196.72864258 301.64422852 -197.10400391 300.94580078 C-207.19004435 281.81971471 -213.84010721 260.35744938 -217 239 C-217.17136475 237.87416504 -217.17136475 237.87416504 -217.34619141 236.72558594 C-220.3051203 216.39445673 -220.06849432 195.30028172 -217 175 C-216.89236328 174.25250488 -216.78472656 173.50500977 -216.67382812 172.73486328 C-213.13328142 149.24623631 -204.77450329 125.5879491 -193 105 C-192.60345215 104.30310059 -192.2069043 103.60620117 -191.79833984 102.88818359 C-182.01465496 85.95996583 -169.76895019 70.83431521 -156 57 C-155.44231934 56.43829102 -154.88463867 55.87658203 -154.31005859 55.29785156 C-139.79389025 40.85369223 -123.00990337 29.63302324 -105 20 C-104.32211426 19.63567871 -103.64422852 19.27135742 -102.94580078 18.89599609 C-81.19879389 7.42782691 -24.08034184 -15.76729944 0 0 Z " fill="#1492FA" transform="translate(265,49)"/>
<path d="M0 0 C3.39010401 2.80894332 5.00798734 5.44791935 5.58622742 9.84346008 C5.602882 11.53223518 5.602882 11.53223518 5.61987305 13.25512695 C5.63966721 14.53607742 5.65946136 15.81702789 5.67985535 17.13679504 C5.6866241 18.52478895 5.69307108 19.91278446 5.69921875 21.30078125 C5.71607383 22.72854654 5.7342252 24.15629706 5.75361633 25.58403015 C5.80103297 29.33057033 5.83089587 33.07705064 5.85705566 36.8237915 C5.88690354 40.65152813 5.93341926 44.47905865 5.97851562 48.30664062 C6.06445372 55.80849129 6.1318408 63.31035709 6.1875 70.8125 C6.72874512 71.07659668 7.26999023 71.34069336 7.82763672 71.61279297 C8.54193848 71.96486816 9.25624023 72.31694336 9.9921875 72.6796875 C10.69843262 73.02628418 11.40467773 73.37288086 12.13232422 73.72998047 C19.94028609 77.84265604 24.06114222 84.62591108 27.34375 92.6328125 C28.33813952 96.38018782 28.48116274 99.90404028 28.4375 103.75 C28.44910156 104.76610352 28.44910156 104.76610352 28.4609375 105.80273438 C28.44304812 110.46738906 27.53034656 114.37223851 26.1875 118.8125 C27.04527542 119.6658342 27.90305084 120.5191684 28.78681946 121.39836121 C36.87029039 129.44128693 44.94847385 137.4894898 53.02151203 145.54288769 C57.17209513 149.6830341 61.32451797 153.82129963 65.48120117 157.95532227 C69.49262626 161.94501518 73.49914468 165.93957519 77.5023098 169.93755531 C79.03037001 171.46192047 80.56018934 172.98452434 82.09179115 174.50533104 C84.23685907 176.63587938 86.37558444 178.77260674 88.51293945 180.91088867 C89.14735458 181.53811325 89.78176971 182.16533783 90.43540955 182.81156921 C94.73257805 187.12894349 97.92811444 190.47802992 98.625 196.75 C98.45589443 201.00984994 96.97610181 203.55913122 94.1875 206.8125 C91.26857212 209.10594334 87.99508646 209.35336779 84.31751251 209.25687599 C77.6190542 207.85940342 71.87373076 200.78264524 67.22070312 196.07275391 C66.57579926 195.42814209 65.93089539 194.78353027 65.26644897 194.11938477 C63.16243276 192.0139891 61.06556608 189.90162691 58.96875 187.7890625 C57.50088637 186.31746382 56.03257691 184.84630971 54.56384277 183.37557983 C50.71913848 179.52327789 46.88048123 175.66500565 43.04309082 171.80541992 C39.1183289 167.8601159 35.18782441 163.92054193 31.2578125 159.98046875 C23.56210633 152.26338098 15.87278212 144.53996795 8.1875 136.8125 C7.11226074 137.13629639 6.03702148 137.46009277 4.92919922 137.79370117 C-3.93565422 140.20744471 -15.60064628 140.27719717 -23.8125 135.8125 C-31.68550315 130.9840824 -37.89110217 124.28109382 -40.98046875 115.48828125 C-43.55630774 104.10863576 -42.44395529 93.63951866 -36.52734375 83.640625 C-32.44125055 77.58546739 -26.76609017 73.13036339 -19.8125 70.8125 C-19.80885437 70.02402679 -19.80520874 69.23555359 -19.80145264 68.42318726 C-19.76352482 60.9784125 -19.70661856 53.53413553 -19.62859726 46.08968163 C-19.58915302 42.262733 -19.55694989 38.43601341 -19.54150391 34.60888672 C-19.5263167 30.91275822 -19.49183596 27.21725949 -19.44419098 23.5214119 C-19.42939819 22.11413687 -19.42146019 20.70677192 -19.42061615 19.2994194 C-19.41823879 17.3223897 -19.38883054 15.34544925 -19.35839844 13.36865234 C-19.34951599 12.24502289 -19.34063354 11.12139343 -19.33148193 9.9637146 C-18.60401827 5.5466165 -16.59943767 2.21652246 -13.0625 -0.5625 C-8.41962268 -1.85218814 -4.38633678 -1.85200886 0 0 Z M-14.8125 95.8125 C-16.90361708 98.1824327 -17.76819007 99.82172987 -17.91015625 102.99609375 C-17.66702686 106.60745464 -17.18645394 109.18924344 -15.3125 112.3125 C-11.60931858 114.53440885 -8.10327281 115.00439503 -3.8125 114.8125 C-0.6126048 113.5603671 0.80816135 112.24241714 3.0625 109.6875 C4.68979587 105.528855 4.3301107 102.08730225 3.1875 97.8125 C1.48315275 94.97192125 0.27918358 94.1042958 -2.90234375 93.25390625 C-7.7387305 92.47332469 -10.97181938 92.42366416 -14.8125 95.8125 Z " fill="#1492FA" transform="translate(262.8125,152.1875)"/>
<path d="M0 0 C3.43763262 2.61559004 4.76958023 4.22233329 6 8.375 C6 13.43556956 4.73201578 17.14426881 1.25 20.875 C-3.36995975 23.18497988 -6.84349941 23.36622519 -11.75 21.8125 C-14.98188518 20.0101025 -16.15156523 19.09884653 -18 16 C-18.93981166 10.74488647 -18.95192186 6.37188738 -15.875 1.9375 C-10.13062281 -1.93371071 -6.52565539 -2.72891044 0 0 Z " fill="#1492FA" transform="translate(402,164)"/>
<path d="M0 0 C3.0623912 4.54718693 3.06306527 8.73949276 2.0625 14.0625 C-0.62426251 17.82396751 -3.42438302 19.98794834 -7.9375 21.0625 C-12.2876895 20.98481804 -14.3293132 20.54904944 -17.75 17.8125 C-20.88361008 13.87310448 -21.96557235 11.6345516 -21.875 6.5625 C-20.73576099 2.30934102 -19.39299634 0.75010826 -15.9375 -1.9375 C-9.87080657 -4.97084671 -5.50662986 -3.63203246 0 0 Z " fill="#1492FA" transform="translate(125.9375,165.9375)"/>
<path d="M0 0 C3.13361008 3.93939552 4.21557235 6.1779484 4.125 11.25 C3.01454023 15.39571647 1.41688099 17.00502616 -1.8125 19.75 C-2.1425 20.08 -2.4725 20.41 -2.8125 20.75 C-8.08060149 21.36873675 -12.39088372 21.70741505 -16.875 18.6875 C-19.7620159 14.31041138 -21.195416 10.87731114 -20.25 5.625 C-18.30231489 1.72962978 -15.95314307 -1.25103323 -11.9375 -3.125 C-7.08592408 -3.41038682 -3.85954951 -3.08763961 0 0 Z " fill="#1492FA" transform="translate(182.8125,107.25)"/>
<path d="M0 0 C3.43763262 2.61559004 4.76958023 4.22233329 6 8.375 C6 13.44723044 4.74855936 17.19114549 1.1875 20.875 C-2.70739911 22.87809097 -5.7754667 23.24990476 -10.0625 22.375 C-13.78721895 20.63151453 -15.63241262 19.41211122 -18 16 C-18.70766059 12.20488474 -18.70766059 8.79511526 -18 5 C-15.65576379 1.62154194 -13.76391243 0.38195621 -10.125 -1.4375 C-6.07177669 -2.1670802 -3.79107629 -1.58535917 0 0 Z " fill="#1492FA" transform="translate(402,327)"/>
<path d="M0 0 C4.15633291 2.94406915 6.09828903 5.99049458 7 11 C6.13377569 16.48608733 4.44597687 19.64081748 0 23 C-4.27228789 24.26586308 -6.49047262 24.16135034 -10.75 22.8125 C-13.91648882 21.04657354 -15.36622181 20.17679093 -17 17 C-18.30823164 12.37087267 -17.99502903 9.3700636 -16 5 C-11.32731121 -0.40279642 -6.93920466 -0.96165356 0 0 Z " fill="#1492FA" transform="translate(180,384)"/>
<path d="M0 0 C2.875 2.5 2.875 2.5 5 5 C5.33 5.33 5.66 5.66 6 6 C6.64316312 10.2497614 6.88000254 14.29784976 4.87109375 18.18359375 C2.46818402 21.20134722 0.66627145 22.76402886 -3 24.0625 C-7.93392621 23.95970987 -10.91251693 22.84582017 -14.8125 19.8125 C-17.51434562 16.33869849 -18 14.38822309 -18 10 C-16.56081274 5.45519813 -15.26762583 2.32779591 -11 0 C-7.25061168 -1.55147103 -3.87252894 -0.95114746 0 0 Z " fill="#1492FA" transform="translate(122,326)"/>
<path d="M0 0 C2.54336609 3.34270971 3.53271535 5.72803056 4.1875 9.875 C3.46747976 14.37512649 1.69955504 17.17374494 -1.96875 19.9609375 C-5.50760381 21.71536926 -8.98907411 21.50399243 -12.8125 20.875 C-16.61573152 19.46945792 -17.60411927 18.21109795 -19.75 14.75 C-21.4181969 10.2601672 -20.67246839 6.206548 -18.8125 1.875 C-13.39043879 -3.83243286 -6.53057058 -4.93420888 0 0 Z " fill="#1492FA" transform="translate(345.8125,107.125)"/>
<path d="M0 0 C3.63467079 1.62400184 4.77408696 2.66113044 7 6 C8.41038035 11.64152141 7.8288828 14.92752049 5 20 C2.65037715 22.51745306 1.04564721 22.98794225 -2.3125 23.875 C-6.72533606 24.02458766 -9.16140096 23.14075716 -13 21 C-16.06843518 18.03384599 -16.746924 15.21793329 -17 11 C-16.0082786 6.49217545 -14.52211753 3.97178666 -11 1 C-7.55359623 -0.72320188 -3.7757718 -0.3723512 0 0 Z " fill="#1492FA" transform="translate(342,384)"/>
</svg>
