<?xml version="1.0" encoding="UTF-8"?>
<svg version="1.1" xmlns="http://www.w3.org/2000/svg" width="512" height="512">
<path d="M0 0 C7.62865278 4.57976457 12.74293881 10.73707972 15.125 19.3125 C15.65446282 23.19522738 15.5 27.14383916 15.5 31.0625 C59.39 31.0625 103.28 31.0625 148.5 31.0625 C148.5 27.7625 148.5 24.4625 148.5 21.0625 C150.3515148 12.17522897 155.25685003 5.92535102 162.5625 0.54296875 C169.85457853 -3.36547486 179.40199701 -3.28973625 187.25390625 -1.20703125 C195.77337992 2.32473025 200.63940595 7.84912462 204.5 16.0625 C205.59506492 19.34769475 205.59960608 21.79913415 205.5625 25.25 C205.55347656 26.33667969 205.54445313 27.42335938 205.53515625 28.54296875 C205.51775391 29.79013672 205.51775391 29.79013672 205.5 31.0625 C206.72243156 31.04917633 206.72243156 31.04917633 207.96955872 31.0355835 C215.69207469 30.95506045 223.41438388 30.89434565 231.1372118 30.85525131 C235.10655097 30.83447601 239.07554 30.80634557 243.04467773 30.76074219 C246.88320489 30.71692111 250.72139766 30.6932875 254.56015587 30.68299103 C256.01643822 30.67566404 257.47270461 30.66135815 258.92884254 30.63957977 C272.57801155 30.44376715 283.97471585 33.15864887 294.21484375 42.65234375 C303.07777241 52.23693581 305.84417532 63.8557983 305.71118164 76.56121826 C305.70928676 77.93106806 305.70928676 77.93106806 305.70735359 79.32859159 C305.70098105 82.3659795 305.68046421 85.40310555 305.66015625 88.44042969 C305.65307807 90.62752995 305.64702675 92.81463374 305.641922 95.0017395 C305.62972531 99.70139359 305.61216934 104.4009868 305.59100342 109.10060883 C305.55944923 116.54000475 305.55166205 123.97930643 305.54931641 131.41876221 C305.54854599 133.30507012 305.54854599 133.30507012 305.54776001 135.22948527 C305.54671861 137.80037688 305.54571434 140.3712685 305.5447464 142.94216013 C305.54174107 149.53826554 305.5365077 156.13436717 305.52880859 162.73046875 C305.5280451 163.39186691 305.52728161 164.05326507 305.52649498 164.7347056 C305.51401415 174.78094384 305.47675039 184.82692447 305.42822266 194.87304688 C305.37208912 206.56283028 305.3515224 218.25209183 305.37142277 229.94200063 C305.3804888 236.12154277 305.37142926 242.29986131 305.31863403 248.4792099 C305.26917007 254.29432073 305.26659153 260.10760494 305.29910851 265.92281723 C305.30276525 268.04920721 305.28949944 270.17570868 305.25748634 272.30186081 C305.05824914 286.35308924 306.56852826 293.83287527 316.5 304.0625 C318.23679359 306.5646676 319.74036593 309.13455036 321.1875 311.8125 C321.54996826 312.47314453 321.91243652 313.13378906 322.28588867 313.81445312 C339.72191526 346.35251986 343.02077519 382.86762452 332.8125 418.25 C327.47935476 435.7217557 318.23597072 451.12886681 306.5 465.0625 C305.87351562 465.82433594 305.24703125 466.58617187 304.6015625 467.37109375 C299.4911077 473.38891501 293.74112512 478.25037732 287.5 483.0625 C286.23736328 484.06603516 286.23736328 484.06603516 284.94921875 485.08984375 C274.00012874 493.48026933 261.9708333 499.51773911 248.9375 503.9375 C248.13650879 504.21150635 247.33551758 504.4855127 246.51025391 504.76782227 C233.24074061 509.02669912 220.11762255 510.63002166 206.25 510.5 C205.5338855 510.49629395 204.817771 510.49258789 204.07995605 510.48876953 C169.19616012 510.23305447 138.83155461 496.99133009 113.5 473.0625 C112.37464844 472.03382813 112.37464844 472.03382813 111.2265625 470.984375 C99.31919684 459.70371279 89.43999482 444.34588426 83.5 429.0625 C82.79854764 429.06011165 82.09709528 429.05772329 81.37438679 429.05526257 C64.30659396 428.99612688 47.23895276 428.92058604 30.17131519 428.82678509 C21.91752715 428.78181924 13.66378233 428.74240642 5.40991211 428.71606445 C-1.78415452 428.69309073 -8.97808444 428.65969978 -16.17204267 428.61379844 C-19.98121852 428.58985766 -23.79025891 428.57113454 -27.59950829 428.56488609 C-31.18565177 428.55883902 -34.77144865 428.53885329 -38.35746384 428.50822449 C-40.29950174 428.4952518 -42.24162059 428.49701524 -44.18370056 428.4992218 C-45.34331299 428.48668365 -46.50292542 428.47414551 -47.69767761 428.46122742 C-48.70335376 428.45661845 -49.7090299 428.45200949 -50.74518108 428.44726086 C-54.0027629 427.99227996 -55.86084155 427.00198833 -58.5 425.0625 C-60.5 422.0625 -60.5 422.0625 -60.375 418.5625 C-59.5 415.0625 -59.5 415.0625 -57.79095078 413.36867046 C-54.98246014 411.76742806 -53.19427759 411.67898244 -49.9697876 411.66377258 C-48.28291588 411.64496536 -48.28291588 411.64496536 -46.56196594 411.6257782 C-45.33269882 411.62721329 -44.1034317 411.62864838 -42.83691406 411.63012695 C-41.53910507 411.6199353 -40.24129608 411.60974365 -38.90415955 411.59924316 C-35.34870242 411.57165839 -31.79340523 411.56238672 -28.23785496 411.55638909 C-24.52087118 411.54700921 -20.80400706 411.52080616 -17.08709717 411.49638367 C-10.05010139 411.45270428 -3.01312882 411.42416621 4.02396131 411.40106028 C12.03606229 411.37401629 20.04804299 411.33010432 28.06005812 411.28477156 C44.53998005 411.19190468 61.01991923 411.1208317 77.5 411.0625 C76.51 405.7825 75.52 400.5025 74.5 395.0625 C72.21926071 395.05885437 69.93852142 395.05520874 67.58866882 395.05145264 C46.09171923 395.0151991 24.59490899 394.95697439 3.0980711 394.87859726 C-7.95358325 394.83882959 -19.00516663 394.80642553 -30.05688477 394.79150391 C-39.69232556 394.77847565 -49.32761005 394.75148091 -58.96296281 394.70788693 C-64.06232778 394.68529865 -69.16150014 394.66958775 -74.26091957 394.67061615 C-79.06677484 394.67136431 -83.87220475 394.65335083 -88.67794991 394.62133217 C-90.43583484 394.61285695 -92.19376762 394.61106698 -93.95166397 394.61669731 C-105.13615979 394.64773112 -115.38082071 394.33774547 -124.5 387.0625 C-124.10178567 394.49583419 -122.08980025 399.59542796 -116.671875 404.828125 C-107.8283062 412.0004682 -97.87536126 411.40092752 -86.9921875 411.453125 C-85.44144531 411.48792969 -85.44144531 411.48792969 -83.859375 411.5234375 C-82.92577148 411.53165527 -81.99216797 411.53987305 -81.03027344 411.54833984 C-77.73540848 412.21786759 -76.5376383 413.43167732 -74.5 416.0625 C-74.03081317 419.81599462 -73.96863619 422.10098453 -75.8125 425.4375 C-79.93321254 429.40559356 -86.23017221 428.24665265 -91.5625 428.25 C-92.56216797 428.26224609 -93.56183594 428.27449219 -94.59179688 428.28710938 C-107.7761268 428.31280982 -119.92619597 425.62131215 -129.875 416.375 C-137.97901241 407.54500315 -141.73662548 397.28683442 -141.76742554 385.40777588 C-141.77195665 384.68097398 -141.77648776 383.95417207 -141.78115618 383.20534587 C-141.79371935 380.79340635 -141.79218516 378.38169497 -141.79052734 375.96972656 C-141.79651727 374.23121351 -141.80332388 372.49270311 -141.81088257 370.75419617 C-141.82849292 366.04999156 -141.83323558 361.34585979 -141.83451414 356.6416254 C-141.835938 353.70208292 -141.84021184 350.76255884 -141.84550858 347.82302094 C-141.86398554 337.56738614 -141.87218126 327.31180323 -141.87060547 317.05615234 C-141.86940156 307.4947684 -141.89055868 297.93360927 -141.9220928 288.37228227 C-141.94821661 280.15895215 -141.95897455 271.94569572 -141.95769465 263.73232436 C-141.95718429 258.82832782 -141.96290971 253.92453163 -141.98405075 249.02057648 C-142.00337 244.41413758 -142.00360118 239.80809168 -141.98901749 235.20163918 C-141.98692109 233.51012157 -141.9916795 231.81857973 -142.0037384 230.12710381 C-142.01911899 227.82069959 -142.00993243 225.51566318 -141.99447632 223.20928955 C-141.99556585 221.91810841 -141.99665539 220.62692726 -141.99777794 219.29661942 C-141.41293066 215.49680069 -140.54003947 214.33886164 -137.5 212.0625 C-133.81548282 210.88659026 -132.21745725 210.72768662 -128.6875 212.375 C-126.5 214.0625 -126.5 214.0625 -125.5 216.0625 C-125.40302414 217.91742116 -125.37095748 219.77586302 -125.36869812 221.63331604 C-125.36468994 222.8178688 -125.36068176 224.00242157 -125.35655212 225.22286987 C-125.35708084 226.52934479 -125.35760956 227.8358197 -125.3581543 229.18188477 C-125.35512332 230.56657523 -125.35160204 231.95126469 -125.34762573 233.33595276 C-125.33972903 236.32286757 -125.3345888 239.3097704 -125.33133507 242.2966938 C-125.32542631 247.02505778 -125.30888528 251.75334641 -125.28999329 256.48167419 C-125.28365547 258.10073562 -125.27732985 259.71979709 -125.27101612 261.3388586 C-125.26785031 262.14985165 -125.2646845 262.96084471 -125.26142275 263.7964133 C-125.21936738 274.80574959 -125.18639539 285.81505168 -125.17407227 296.82446289 C-125.16567763 304.24785632 -125.1431317 311.67106405 -125.1047166 319.09436458 C-125.0849961 323.02106427 -125.07253778 326.94748662 -125.07755089 330.87423897 C-125.08221595 334.57374016 -125.06829168 338.27271707 -125.04053879 341.97211266 C-125.0303931 343.96586186 -125.03984901 345.95968117 -125.05003357 347.95343018 C-124.95941879 356.70620986 -123.46643353 363.27974438 -118.25 370.375 C-111.28918743 377.17761229 -103.61576051 378.17310952 -94.13479614 378.22071838 C-93.05517382 378.22812535 -93.05517382 378.22812535 -91.95374095 378.23568195 C-89.55396102 378.25097933 -87.15420768 378.2593964 -84.75439453 378.26782227 C-83.02939116 378.2774069 -81.30439011 378.28741732 -79.57939148 378.29782104 C-74.90429092 378.32481275 -70.22918032 378.34585331 -65.5540452 378.36582303 C-60.6653146 378.38771801 -55.77661473 378.4150895 -50.88790894 378.44187927 C-41.63393333 378.4917587 -32.37994062 378.53671513 -23.12593162 378.57990164 C-12.58909237 378.62931463 -2.05228396 378.68421768 8.48452544 378.73958123 C30.15632155 378.85332835 51.82814711 378.96018319 73.5 379.0625 C73.5629425 377.82561935 73.62588501 376.58873871 73.69073486 375.31437683 C73.77708847 373.6759675 73.86358269 372.03756558 73.95019531 370.39916992 C73.99121368 369.58578911 74.03223206 368.77240829 74.07449341 367.93437958 C74.37615063 362.2999047 74.95928973 356.87720066 76.25 351.375 C76.42845459 350.58722168 76.60690918 349.79944336 76.79077148 348.98779297 C79.52561855 337.29877522 83.37971898 326.83885868 88.875 316.1875 C89.54414429 314.88546631 89.54414429 314.88546631 90.22680664 313.55712891 C93.05315165 308.25576469 96.23575301 303.59636859 100.06884766 298.96826172 C101.69087585 297.01789043 101.69087585 297.01789043 102.5 294.0625 C101.79875 294.041875 101.0975 294.02125 100.375 294 C96.15466086 292.62380245 93.97975562 289.65657618 91.5 286.0625 C89.8444346 281.09580381 90.273518 275.95041871 90.25 270.75 C90.2190625 269.05713867 90.2190625 269.05713867 90.1875 267.33007812 C90.15595233 260.63014214 90.27798759 255.59496673 95 250.41796875 C101.4909147 245.36384506 106.8723548 245.84840795 114.8125 245.8125 C116.50536133 245.7815625 116.50536133 245.7815625 118.23242188 245.75 C125.85292223 245.71411771 130.61322913 246.24133756 136.25 251.75 C138.98325402 255.23190428 139.53340083 258.79628277 140.5 263.0625 C141.43457031 262.55460937 142.36914062 262.04671875 143.33203125 261.5234375 C175.53171238 244.46480266 212.16753494 241.34355104 247.07641602 251.81005859 C262.29173405 256.74389232 275.75883446 264.50662585 288.5 274.0625 C288.83 237.4325 289.16 200.8025 289.5 163.0625 C152.55 163.0625 15.6 163.0625 -125.5 163.0625 C-125.5 172.6325 -125.5 182.2025 -125.5 192.0625 C-129.5 197.0625 -129.5 197.0625 -131.5 197.7265625 C-132.16 197.71367187 -132.82 197.70078125 -133.5 197.6875 C-134.16 197.70039063 -134.82 197.71328125 -135.5 197.7265625 C-138.83320073 196.6198357 -139.69775059 195.08993298 -141.5 192.0625 C-142.10781134 188.09095315 -142.04607292 184.14593902 -142.01757812 180.13476562 C-142.02809204 178.3215683 -142.02809204 178.3215683 -142.03881836 176.47174072 C-142.05339827 173.16099962 -142.04999002 169.85125984 -142.03730202 166.54057503 C-142.02714451 163.06329163 -142.036577 159.58604981 -142.04284668 156.10876465 C-142.05012289 150.26123426 -142.04054437 144.41390593 -142.02148438 138.56640625 C-141.99979688 131.83572129 -142.00670733 125.10552261 -142.02879 118.3748498 C-142.04704268 112.57667505 -142.04945212 106.77864536 -142.03903532 100.98045111 C-142.03284364 97.52650358 -142.03184204 94.07278305 -142.04518127 90.61885071 C-142.05906301 86.75417789 -142.03973054 82.8900319 -142.01757812 79.02539062 C-142.02567505 77.90179138 -142.03377197 76.77819214 -142.04211426 75.62054443 C-141.90814005 62.90136796 -138.40805143 51.56267012 -129.72265625 42.1328125 C-122.44241765 35.19499821 -113.04833474 30.93013915 -103.0090332 30.94897461 C-102.3551059 30.94882858 -101.70117859 30.94868256 -101.0274353 30.9485321 C-98.86851674 30.94922812 -96.70968472 30.95700592 -94.55078125 30.96484375 C-93.05291287 30.96670904 -91.55504389 30.96813242 -90.05717468 30.96913147 C-86.11654981 30.97294793 -82.17596186 30.9827708 -78.23535156 30.99383545 C-74.21354675 31.00406828 -70.19173596 31.0086331 -66.16992188 31.01367188 C-58.27993099 31.02439384 -50.38997009 31.04145983 -42.5 31.0625 C-42.45174072 30.1864209 -42.40348145 29.3103418 -42.35375977 28.40771484 C-42.27955811 27.24965332 -42.20535645 26.0915918 -42.12890625 24.8984375 C-42.06002197 23.7542334 -41.9911377 22.6100293 -41.92016602 21.43115234 C-40.90961506 13.32912904 -36.85279404 7.72481626 -30.7578125 2.53515625 C-21.86313546 -3.26638915 -9.80233055 -4.39205198 0 0 Z M-23.5 18.0625 C-27.1092767 23.47641505 -26.67224228 29.15099261 -26.703125 35.45703125 C-26.70882507 36.36321701 -26.71452515 37.26940277 -26.72039795 38.20304871 C-26.72982361 40.11688071 -26.73637223 42.03072876 -26.74023438 43.94458008 C-26.74993209 46.85462104 -26.78097533 49.76395291 -26.8125 52.67382812 C-26.81903177 54.53905834 -26.82428156 56.40429356 -26.828125 58.26953125 C-26.8404718 59.13125443 -26.8528186 59.9929776 -26.86553955 60.8808136 C-26.84468242 66.60837123 -25.92374228 70.84829332 -23.5 76.0625 C-20.32505259 79.01593945 -17.77449456 80.30096305 -13.5 80.5625 C-9.26157884 80.31937833 -6.70466563 78.89453009 -3.5 76.0625 C0.03500472 70.69223429 -0.06214746 65.8325742 -0.1015625 59.625 C-0.09869232 58.62670166 -0.09582214 57.62840332 -0.09286499 56.59985352 C-0.09082918 54.49527416 -0.09632517 52.39067567 -0.10888672 50.28613281 C-0.12494684 47.07313544 -0.10902119 43.86139596 -0.08984375 40.6484375 C-0.09182627 38.59895557 -0.09567012 36.54947442 -0.1015625 34.5 C-0.09548981 33.54359619 -0.08941711 32.58719238 -0.0831604 31.60180664 C-0.15176272 25.06449486 -1.13825748 20.70209458 -5.625 15.6875 C-12.05931295 12.05071442 -17.97413811 13.34530082 -23.5 18.0625 Z M166.5 19.0625 C164.6673385 22.06995331 164.2418057 24.32554548 164.20947266 27.82763672 C164.19671295 28.76896454 164.18395325 29.71029236 164.17080688 30.68014526 C164.16858124 31.6906192 164.16635559 32.70109314 164.1640625 33.7421875 C164.1574057 34.78770782 164.1507489 35.83322815 164.14389038 36.91043091 C164.13377023 39.12109621 164.12907316 41.33179202 164.12939453 43.54248047 C164.12502504 46.91815756 164.0887076 50.29252325 164.05078125 53.66796875 C164.0449122 55.81770387 164.0409434 57.96744519 164.0390625 60.1171875 C164.02469147 61.12361298 164.01032043 62.13003845 163.99551392 63.16696167 C164.03423192 69.12972491 164.54928209 72.51072489 168.5 77.0625 C172.05937466 80.02864555 175.07465211 80.54255273 179.57421875 80.34765625 C183.43287166 79.77629385 185.64852678 78.07411683 188.10961914 75.15014648 C190.22353674 70.45572755 189.94784353 65.93986156 189.93359375 60.84765625 C189.94145653 59.21491005 189.94145653 59.21491005 189.94947815 57.54917908 C189.95589318 55.25032401 189.95456811 52.9514361 189.94604492 50.65258789 C189.93753838 47.14084235 189.96630012 43.63072542 189.99804688 40.11914062 C189.99965912 37.88281299 189.99908091 35.64648247 189.99609375 33.41015625 C190.00732773 32.36312027 190.01856171 31.31608429 190.03013611 30.23731995 C189.97264693 24.20435056 189.54144326 20.64949802 185.5 16.0625 C178.7010401 11.42684552 171.71610303 13.4647309 166.5 19.0625 Z M-121.24609375 56.92578125 C-131.31654719 74.08633587 -125.5 92.8601132 -125.5 113.0625 C11.45 113.0625 148.4 113.0625 289.5 113.0625 C292.41941062 80.78363419 292.41941062 80.78363419 283.375 54.75 C274.9713319 46.89439721 266.40042759 46.36094959 255.3046875 46.57421875 C253.86167639 46.58356513 252.41864922 46.59067259 250.97561646 46.59565735 C247.21055908 46.61458444 243.4464939 46.66355654 239.68182373 46.71917725 C235.82708145 46.7706826 231.97217602 46.79323752 228.1171875 46.81835938 C220.57762414 46.87169408 213.0390785 46.95950712 205.5 47.0625 C205.5 52.6725 205.5 58.2825 205.5 64.0625 C208.6246875 64.18625 208.6246875 64.18625 211.8125 64.3125 C217.98265299 64.55686249 217.98265299 64.55686249 220.3984375 66.91796875 C221.8808947 69.80402903 221.84061415 71.86072701 221.5 75.0625 C219.5 78.0625 219.5 78.0625 216.5 79.0625 C214.20837871 79.08783734 211.91669862 79.1080424 209.625 79.125 C204.74620403 79.24281265 204.74620403 79.24281265 200.8203125 81.6953125 C200.09712642 83.08361862 199.4153841 84.49418577 198.7734375 85.921875 C195.8993435 90.75317412 189.68115552 93.33544816 184.5 95.0625 C173.76780272 95.90397048 166.06317599 94.91413536 157.625 88.125 C155.48596332 86.27013486 154.47410224 85.00805858 153.23828125 82.41015625 C151.65417672 79.71395765 151.65417672 79.71395765 148.28515625 79.4609375 C146.44244141 79.44933594 146.44244141 79.44933594 144.5625 79.4375 C136.76930465 79.35555263 136.76930465 79.35555263 133.5 76.0625 C132.36784819 72.98951652 132.38158395 71.46329279 133.3125 68.3125 C134.5 66.0625 134.5 66.0625 136.5 65.0625 C138.5374763 64.83391886 140.58040303 64.65225722 142.625 64.5 C144.56375 64.355625 146.5025 64.21125 148.5 64.0625 C148.5 58.4525 148.5 52.8425 148.5 47.0625 C104.61 47.0625 60.72 47.0625 15.5 47.0625 C15.5 52.6725 15.5 58.2825 15.5 64.0625 C20.04101562 64.30664062 20.04101562 64.30664062 24.58203125 64.55078125 C27.5 65.0625 27.5 65.0625 29.359375 66.35546875 C30.72862894 68.40466043 30.93285452 69.60968439 30.9375 72.0625 C30.95683594 72.743125 30.97617188 73.42375 30.99609375 74.125 C30.5 76.0625 30.5 76.0625 28.8984375 77.8046875 C25.7021399 79.48092175 23.27838997 79.25752819 19.6875 79.1875 C14.5032618 79.35909396 14.5032618 79.35909396 10.23828125 81.98046875 C9.08900718 83.56362606 7.98814344 85.18319457 6.94140625 86.8359375 C3.77220283 91.73145497 -1.10694558 93.52255554 -6.5 95.0625 C-16.61674926 96.08247706 -23.84074161 94.79246576 -32.25 89.25 C-34.5 87.0625 -34.5 87.0625 -35.453125 85.2890625 C-36.65112613 83.0986873 -37.56459468 81.66333854 -39.5 80.0625 C-42.86477704 79.40240361 -46.01508489 79.25027408 -49.44140625 79.23046875 C-52.44204677 79.06568262 -54.02933383 78.71929966 -56.5 77.0625 C-58.02491998 74.01266004 -57.73562548 71.4201631 -57.5 68.0625 C-56.37109375 66.3828125 -56.37109375 66.3828125 -54.5 65.0625 C-51.58203125 64.55078125 -51.58203125 64.55078125 -48.3125 64.375 C-46.394375 64.271875 -44.47625 64.16875 -42.5 64.0625 C-42.5 58.4525 -42.5 52.8425 -42.5 47.0625 C-50.67187125 46.94906965 -58.84311985 46.85753982 -67.01556969 46.80343914 C-70.81129829 46.77745984 -74.60645558 46.74227993 -78.40185547 46.68530273 C-82.0718196 46.63055992 -85.74123789 46.60099196 -89.41157913 46.58811378 C-90.80452684 46.57894884 -92.19744817 46.56105339 -93.59016037 46.53384972 C-104.91039396 46.32173636 -113.70241004 47.98595309 -121.24609375 56.92578125 Z M-125.5 129.0625 C-125.5 135.0025 -125.5 140.9425 -125.5 147.0625 C11.45 147.0625 148.4 147.0625 289.5 147.0625 C289.5 141.1225 289.5 135.1825 289.5 129.0625 C152.55 129.0625 15.6 129.0625 -125.5 129.0625 Z M106.5 262.0625 C106.5 267.6725 106.5 273.2825 106.5 279.0625 C108.5625 279.145 110.625 279.2275 112.75 279.3125 C113.91015625 279.35890625 115.0703125 279.4053125 116.265625 279.453125 C119.52487214 279.30465642 119.52487214 279.30465642 121.90625 277.46875 C124.03282823 274.25803385 123.90266293 272.12907321 123.75 268.3125 C123.62625 265.21875 123.62625 265.21875 123.5 262.0625 C117.89 262.0625 112.28 262.0625 106.5 262.0625 Z M131.5 289.0625 C130.57832031 289.82046875 129.65664063 290.5784375 128.70703125 291.359375 C105.92422243 311.02521279 92.40875966 339.74016179 89.84375 369.54858398 C87.83795015 398.61074333 96.30057322 428.80475744 115.5 451.0625 C116.57701172 452.34447266 116.57701172 452.34447266 117.67578125 453.65234375 C138.74908947 477.94466531 166.5583092 491.8916568 198.50927734 494.734375 C229.530836 496.79446744 259.02527459 486.0824545 282.5 466.0625 C283.05945313 465.62421875 283.61890625 465.1859375 284.1953125 464.734375 C288.54264474 461.32023973 292.01669869 457.32224271 295.5 453.0625 C296.20253906 452.20914063 296.90507812 451.35578125 297.62890625 450.4765625 C316.94645513 425.95167436 324.76895876 396.17795773 322.18359375 365.28125 C318.37707107 334.82906858 303.23684908 306.64311755 279.16015625 287.33984375 C235.34509107 253.37276955 174.21872123 253.53405858 131.5 289.0625 Z " fill="#1492FA" transform="translate(157.5,1.9375)"/>
<path d="M0 0 C18.95532028 16.47974461 31.93911824 40.33021212 33.91015625 65.6171875 C34.92366538 92.49721215 28.97970252 118.28676669 11 139 C10.34644531 139.79664063 9.69289063 140.59328125 9.01953125 141.4140625 C-6.37796231 159.53206039 -28.50149989 170.91395065 -52 174 C-56.25456535 174.28372776 -60.48688912 174.33457559 -64.75 174.3125 C-65.89452637 174.30686035 -67.03905273 174.3012207 -68.21826172 174.29541016 C-94.82861784 173.91456192 -117.25660147 163.51551526 -136 145 C-136.96292969 144.14535156 -136.96292969 144.14535156 -137.9453125 143.2734375 C-153.02639868 129.59524305 -163.05763862 106.08672512 -164.16113281 86.07836914 C-164.54706392 58.10958276 -160.59927509 34.01938972 -142 12 C-141.35546875 11.20980469 -140.7109375 10.41960937 -140.046875 9.60546875 C-104.50642544 -32.18746731 -41.22705405 -34.29413482 0 0 Z M-127.54296875 19.6640625 C-144.47908683 39.42772525 -149.47176388 61.41492422 -148 87 C-145.76406186 107.24562567 -133.24131516 126.98707023 -118 140 C-98.35686882 154.75141084 -76.02967356 161.03037083 -51.60400391 157.67041016 C-29.53785873 153.6668068 -10.23150583 141.57896299 2.83203125 123.359375 C16.04905593 102.87894036 20.93077018 80.35018338 16.0390625 56.28125 C11.26544854 35.2887369 -2.32830151 17.08879247 -20 5 C-55.47892482 -16.55279765 -98.99772141 -10.24048233 -127.54296875 19.6640625 Z " fill="#1492FA" transform="translate(429,305)"/>
<path d="M0 0 C3.14621725 2.9412059 3.95218091 4.54101204 4.40307617 8.86889648 C4.38365138 10.36995196 4.34594883 11.87084778 4.29296875 13.37109375 C4.28309461 15.013664 4.27467588 16.65624353 4.26757812 18.29882812 C4.23441558 20.87150474 4.18736875 23.4420711 4.11352539 26.01391602 C3.4086416 35.71432694 3.4086416 35.71432694 6.88134766 44.21533203 C9.20740136 45.70857853 9.20740136 45.70857853 11.73168945 46.78857422 C14.49075554 48.26209547 15.09935466 49.54520299 16.4375 52.32421875 C17.8385664 54.84505867 18.38603552 55.80716988 21.171875 56.68212891 C23.81159417 56.90500892 26.35296298 56.91032528 29 56.8125 C39.97140376 56.64554386 39.97140376 56.64554386 44 60 C45.54586876 63.09173752 45.29359521 65.59429552 45 69 C43.66796875 71.20703125 43.66796875 71.20703125 41 73 C36.35012767 73.5932478 31.65292175 73.36055005 26.9765625 73.22460938 C24.16962967 73.23777863 21.72084368 73.30171515 19 74 C16.85393451 76.18257294 16.20384832 78.09276836 15 81 C9.87316663 86.90806512 3.74908658 89.64294414 -3.9375 90.375 C-11.16575624 90.03484677 -17.20653701 87.61333439 -22.49609375 82.6796875 C-27.62662209 76.94948702 -29.34272738 70.90058475 -29.20703125 63.36328125 C-28.52746408 55.60595787 -24.51581767 50.27336415 -19 45 C-14.78125 42 -14.78125 42 -12 42 C-12.01571045 40.86981445 -12.0314209 39.73962891 -12.04760742 38.57519531 C-12.10194595 34.37832783 -12.13636431 30.18149139 -12.16479492 25.984375 C-12.17987262 24.16856658 -12.20033798 22.35279453 -12.22631836 20.53710938 C-12.2627468 17.92568992 -12.27973638 15.31475235 -12.29296875 12.703125 C-12.30845261 11.89256653 -12.32393646 11.08200806 -12.33988953 10.24688721 C-12.34087746 6.93121911 -12.25298929 4.47172686 -10.66918945 1.51855469 C-7.24801047 -1.59388253 -4.21267863 -1.20362247 0 0 Z M-11 59.5625 C-13.30907001 62.86838332 -13.30907001 62.86838332 -13 66.6875 C-11.93540327 70.60403562 -11.93540327 70.60403562 -9 73 C-5.62649951 74.08916154 -5.62649951 74.08916154 -2 74 C0.80189446 72.23358828 2.51524911 70.96950178 4 68 C4.53507099 63.9869676 4.33051628 62.46071967 1.9375 59.125 C-0.88873671 56.76803078 -0.88873671 56.76803078 -4.5 56.3125 C-8.19321382 56.7406371 -8.19321382 56.7406371 -11 59.5625 Z " fill="#1492FA" transform="translate(368,315)"/>
<path d="M0 0 C1.16337891 -0.02449219 2.32675781 -0.04898438 3.52539062 -0.07421875 C10.30315275 -0.09736421 14.74178019 0.20220778 20.1875 4.375 C25.41858186 10.98268235 25.39265742 16.51970279 25.4375 24.625 C25.458125 25.54152344 25.47875 26.45804687 25.5 27.40234375 C25.53579379 33.67520613 25.22054628 40.03729039 20.77050781 44.93432617 C14.50201801 50.39170201 8.25390419 49.59079966 0.375 49.625 C-0.80126953 49.645625 -1.97753906 49.66625 -3.18945312 49.6875 C-14.02077094 49.73648278 -14.02077094 49.73648278 -18.8125 46.375 C-24.19608312 40.99141688 -25.06960613 34.74317576 -25.13476562 27.4453125 C-25.13154297 26.63835937 -25.12832031 25.83140625 -25.125 25 C-25.14111328 24.20078125 -25.15722656 23.4015625 -25.17382812 22.578125 C-25.17849446 16.81053028 -24.29461905 11.62531981 -21.8125 6.375 C-15.2033561 -0.2341439 -8.91062137 0.00977578 0 0 Z M-8.8125 16.375 C-8.8125 21.985 -8.8125 27.595 -8.8125 33.375 C-2.8725 33.375 3.0675 33.375 9.1875 33.375 C9.1875 27.765 9.1875 22.155 9.1875 16.375 C3.2475 16.375 -2.6925 16.375 -8.8125 16.375 Z " fill="#1492FA" transform="translate(139.8125,247.625)"/>
<path d="M0 0 C1.15951172 -0.03738281 2.31902344 -0.07476562 3.51367188 -0.11328125 C9.81935012 -0.1778078 14.42627486 0.17347294 19.73754883 3.70849609 C25.59881279 9.91047839 24.82888529 17.34515053 24.8125 25.3125 C24.84085938 26.56224609 24.86921875 27.81199219 24.8984375 29.09960938 C24.92021358 39.35069738 24.92021358 39.35069738 22.15625 43.56640625 C16.36908228 49.28202932 11.73220226 49.75805237 3.8359375 49.78515625 C2.67320313 49.77355469 1.51046875 49.76195312 0.3125 49.75 C-1.43160156 49.76740234 -1.43160156 49.76740234 -3.2109375 49.78515625 C-9.96628835 49.76196855 -15.07527875 49.59253675 -20.33203125 44.91015625 C-25.38878862 38.53424478 -24.89819068 32.92927706 -24.9375 25.0625 C-24.958125 24.04220703 -24.97875 23.02191406 -25 21.97070312 C-25.03463742 15.27269117 -24.73387913 9.91324243 -20.1875 4.6328125 C-13.60539414 -0.33804869 -7.98607952 0.09606001 0 0 Z M-8.6875 16.375 C-8.6875 21.985 -8.6875 27.595 -8.6875 33.375 C-3.0775 33.375 2.5325 33.375 8.3125 33.375 C8.3125 27.765 8.3125 22.155 8.3125 16.375 C2.7025 16.375 -2.9075 16.375 -8.6875 16.375 Z " fill="#1492FA" transform="translate(73.6875,247.625)"/>
<path d="M0 0 C1.10601562 -0.00708984 2.21203125 -0.01417969 3.3515625 -0.02148438 C9.92098838 0.02983926 14.954833 0.31791774 20.01953125 4.9375 C25.07365494 11.4284147 24.58909205 16.8098548 24.625 24.75 C24.645625 25.87857422 24.66625 27.00714844 24.6875 28.16992188 C24.71900802 34.86143764 24.62693211 39.95387807 19.83984375 45.08203125 C13.21734458 50.14629532 8.45710417 49.71826394 0.25 49.8125 C-0.96171875 49.84988281 -2.1734375 49.88726562 -3.421875 49.92578125 C-9.85004831 49.98880256 -14.65825964 49.7371622 -20.06982422 46.10400391 C-25.79943616 39.9642345 -25.10866453 32.85216629 -25.0625 25 C-25.08248047 23.79794922 -25.10246094 22.59589844 -25.12304688 21.35742188 C-25.11930892 14.58051812 -25.11078275 9.70280266 -20.625 4.4375 C-14.51572283 -0.4730213 -7.49884215 -0.1364226 0 0 Z M-8.625 16.4375 C-8.625 22.0475 -8.625 27.6575 -8.625 33.4375 C-3.015 33.4375 2.595 33.4375 8.375 33.4375 C8.375 27.8275 8.375 22.2175 8.375 16.4375 C2.765 16.4375 -2.845 16.4375 -8.625 16.4375 Z " fill="#1492FA" transform="translate(206.625,247.5625)"/>
<path d="M0 0 C1.19753906 -0.01546875 2.39507812 -0.0309375 3.62890625 -0.046875 C10.3996929 -0.01688259 15.19191422 0.10513328 20.5 4.5 C25.64431938 10.70491769 25.10020221 17.27595316 25 25.0625 C25.01546875 26.26841797 25.0309375 27.47433594 25.046875 28.71679688 C24.998667 39.62988343 24.998667 39.62988343 20.5 44.5 C14.10034231 50.27530084 8.43028509 49.71272341 0.1875 49.75 C-0.94107422 49.770625 -2.06964844 49.79125 -3.23242188 49.8125 C-9.93235786 49.84404767 -14.96753327 49.72201241 -20.14453125 45 C-25.1648573 38.55249096 -24.74505779 33.20323859 -24.8125 25.3125 C-24.84150391 24.20068359 -24.87050781 23.08886719 -24.90039062 21.94335938 C-24.95101664 15.36587115 -24.77221606 9.77345362 -20.5 4.5 C-14.38710472 -0.69267449 -7.7320745 -0.0998761 0 0 Z M-8.5 16.5 C-8.5 22.11 -8.5 27.72 -8.5 33.5 C-2.89 33.5 2.72 33.5 8.5 33.5 C8.5 27.89 8.5 22.28 8.5 16.5 C2.89 16.5 -2.72 16.5 -8.5 16.5 Z " fill="#1492FA" transform="translate(272.5,181.5)"/>
<path d="M0 0 C1.22396484 -0.02900391 2.44792969 -0.05800781 3.70898438 -0.08789062 C14.8973968 -0.16698218 14.8973968 -0.16698218 19.6875 4.3125 C25.43692182 10.68348093 24.93009863 16.35141899 25 24.5625 C25.02900391 25.68269531 25.05800781 26.80289063 25.08789062 27.95703125 C25.13938992 34.66778548 24.75677572 38.89174949 20.6875 44.3125 C14.38883139 50.15029042 8.55154505 49.52552297 0.375 49.5625 C-0.75357422 49.583125 -1.88214844 49.60375 -3.04492188 49.625 C-9.73643764 49.65650802 -14.82887807 49.56443211 -19.95703125 44.77734375 C-25.05971318 38.10460584 -24.5282424 33.32714515 -24.5625 25.0625 C-24.583125 23.83402344 -24.60375 22.60554688 -24.625 21.33984375 C-24.63015625 20.15003906 -24.6353125 18.96023437 -24.640625 17.734375 C-24.6499707 16.64737305 -24.65931641 15.56037109 -24.66894531 14.44042969 C-24.11249114 9.55735372 -22.40209008 6.32037083 -18.8125 3 C-13.10916982 -0.84974787 -6.63804754 0.0519409 0 0 Z M-8.3125 16.3125 C-8.3125 21.9225 -8.3125 27.5325 -8.3125 33.3125 C-2.7025 33.3125 2.9075 33.3125 8.6875 33.3125 C8.6875 27.7025 8.6875 22.0925 8.6875 16.3125 C3.0775 16.3125 -2.5325 16.3125 -8.3125 16.3125 Z " fill="#1492FA" transform="translate(206.3125,181.6875)"/>
<path d="M0 0 C1.27617188 -0.02900391 2.55234375 -0.05800781 3.8671875 -0.08789062 C13.22309503 -0.15137016 13.22309503 -0.15137016 17.890625 1.95703125 C23.8926035 7.9490727 24.7613037 12.08746911 24.796875 20.45117188 C24.78140625 21.70478516 24.7659375 22.95839844 24.75 24.25 C24.76546875 25.49974609 24.7809375 26.74949219 24.796875 28.03710938 C24.74569279 40.08412311 24.74569279 40.08412311 20.25 45.3125 C14.24102037 50.07696284 7.54933538 49.89061423 0.1875 49.75 C-0.86244141 49.75708984 -1.91238281 49.76417969 -2.99414062 49.77148438 C-9.00014635 49.72234776 -13.47800977 49.26111987 -18.75 46.3125 C-25.16778466 39.7212617 -25.08862477 33.09544874 -25.0625 24.375 C-25.07861328 23.30314453 -25.09472656 22.23128906 -25.11132812 21.12695312 C-25.11536238 14.61162664 -24.86971531 9.65448511 -20.21484375 4.66796875 C-13.44038543 -0.51249938 -8.39545735 0.06284025 0 0 Z M-8.75 16.3125 C-8.75 21.9225 -8.75 27.5325 -8.75 33.3125 C-3.14 33.3125 2.47 33.3125 8.25 33.3125 C8.25 27.7025 8.25 22.0925 8.25 16.3125 C2.64 16.3125 -2.97 16.3125 -8.75 16.3125 Z " fill="#1492FA" transform="translate(73.75,181.6875)"/>
<path d="M0 0 C1.01191406 -0.02900391 2.02382812 -0.05800781 3.06640625 -0.08789062 C9.43091821 -0.14154734 14.52109938 0.45100836 19.75 4.3125 C25.11297961 11.05060259 24.98877654 16.73805791 25.0625 25 C25.09150391 26.06412109 25.12050781 27.12824219 25.15039062 28.22460938 C25.20240808 34.70278354 24.9137584 40.10740786 20.75 45.3125 C14.55415439 50.64008426 7.54120804 49.90970938 -0.3125 49.8125 C-1.56611328 49.82796875 -2.81972656 49.8434375 -4.11132812 49.859375 C-15.68488321 49.81015201 -15.68488321 49.81015201 -20.25 45.3125 C-24.99136566 40.50791613 -24.76972728 35.53186214 -24.796875 29.125 C-24.78140625 27.866875 -24.7659375 26.60875 -24.75 25.3125 C-24.76546875 24.054375 -24.7809375 22.79625 -24.796875 21.5 C-24.74864244 10.11711628 -24.74864244 10.11711628 -20.25 5.3125 C-14.02086333 -0.44945142 -8.12275666 0.07643748 0 0 Z M-8.25 16.3125 C-8.25 21.9225 -8.25 27.5325 -8.25 33.3125 C-2.64 33.3125 2.97 33.3125 8.75 33.3125 C8.75 27.7025 8.75 22.0925 8.75 16.3125 C3.14 16.3125 -2.47 16.3125 -8.25 16.3125 Z " fill="#1492FA" transform="translate(206.25,313.6875)"/>
<path d="M0 0 C1.258125 -0.01546875 2.51625 -0.0309375 3.8125 -0.046875 C15.19538372 0.00135756 15.19538372 0.00135756 20 4.5 C25.66984225 10.62955919 25.20797422 16.26510202 25.25 24.25 C25.270625 25.21421875 25.29125 26.1784375 25.3125 27.171875 C25.34602006 33.33956636 24.6512911 37.90564893 22 43.5 C15.57530334 49.92469666 8.77379246 49.86462382 0.1875 49.875 C-1.39514648 49.91173828 -1.39514648 49.91173828 -3.00976562 49.94921875 C-9.28060623 49.97266114 -15.03135269 49.70135156 -20 45.5 C-23.45722337 41.18474857 -24.50957386 38.28389193 -24.53125 32.78125 C-24.53640625 31.51925781 -24.5415625 30.25726563 -24.546875 28.95703125 C-24.53140625 27.65121094 -24.5159375 26.34539062 -24.5 25 C-24.51546875 23.69417969 -24.5309375 22.38835937 -24.546875 21.04296875 C-24.54171875 19.78097656 -24.5365625 18.51898438 -24.53125 17.21875 C-24.52673828 16.07341797 -24.52222656 14.92808594 -24.51757812 13.74804688 C-23.71978322 8.7415075 -21.16969506 5.65430434 -17.625 2.15625 C-11.88462003 -0.46650981 -6.23123859 -0.07661359 0 0 Z M-8 16.5 C-8 22.11 -8 27.72 -8 33.5 C-2.39 33.5 3.22 33.5 9 33.5 C9 27.89 9 22.28 9 16.5 C3.39 16.5 -2.22 16.5 -8 16.5 Z " fill="#1492FA" transform="translate(405,181.5)"/>
<path d="M0 0 C1.27617187 -0.02900391 2.55234375 -0.05800781 3.8671875 -0.08789062 C13.22309503 -0.15137016 13.22309503 -0.15137016 17.890625 1.95703125 C23.8926035 7.9490727 24.7613037 12.08746911 24.796875 20.45117188 C24.78140625 21.70478516 24.7659375 22.95839844 24.75 24.25 C24.76546875 25.49974609 24.7809375 26.74949219 24.796875 28.03710938 C24.74569279 40.08412311 24.74569279 40.08412311 20.25 45.3125 C14.26202372 50.04577547 7.58562191 49.92144488 0.25 49.8125 C-0.7915625 49.82796875 -1.833125 49.8434375 -2.90625 49.859375 C-9.28136013 49.82717747 -14.51478625 49.17831567 -19.75 45.3125 C-25.03481019 38.67261027 -24.95969218 33.19460333 -25 25.0625 C-25.020625 24.03769531 -25.04125 23.01289063 -25.0625 21.95703125 C-25.09701814 15.25188182 -24.83733613 9.81619444 -20.21484375 4.5703125 C-13.41348376 -0.47417445 -8.34856668 0.06248927 0 0 Z M-8.75 16.3125 C-8.75 21.9225 -8.75 27.5325 -8.75 33.3125 C-3.14 33.3125 2.47 33.3125 8.25 33.3125 C8.25 27.7025 8.25 22.0925 8.25 16.3125 C2.64 16.3125 -2.97 16.3125 -8.75 16.3125 Z " fill="#1492FA" transform="translate(338.75,181.6875)"/>
<path d="M0 0 C1.27617187 -0.02900391 2.55234375 -0.05800781 3.8671875 -0.08789062 C15.59247024 -0.1674463 15.59247024 -0.1674463 20.25 4.3125 C25.43139223 11.03430614 25.45491249 16.43598074 25.5 24.625 C25.520625 25.54990234 25.54125 26.47480469 25.5625 27.42773438 C25.60353027 34.6439338 24.65033592 39.46999693 19.875 45.125 C13.91149843 50.09458464 7.86014778 49.67853003 0.4375 49.6875 C-1.14514648 49.72423828 -1.14514648 49.72423828 -2.75976562 49.76171875 C-9.2261294 49.78589207 -14.43205944 49.22936135 -19.75 45.3125 C-24.97901977 39.01086079 -24.951015 32.88785379 -25 25.0625 C-25.020625 24.25425781 -25.04125 23.44601563 -25.0625 22.61328125 C-25.10200328 16.4408945 -24.58210696 9.49070576 -20.29760742 4.68261719 C-13.88897435 -0.77079431 -8.09748989 0.06060995 0 0 Z M-8.75 16.3125 C-8.75 21.9225 -8.75 27.5325 -8.75 33.3125 C-2.81 33.3125 3.13 33.3125 9.25 33.3125 C9.25 27.7025 9.25 22.0925 9.25 16.3125 C3.31 16.3125 -2.63 16.3125 -8.75 16.3125 Z " fill="#1492FA" transform="translate(139.75,181.6875)"/>
<path d="M0 0 C1.02480469 -0.020625 2.04960938 -0.04125 3.10546875 -0.0625 C9.81061818 -0.09701814 15.24630556 0.16266387 20.4921875 4.78515625 C25.53667445 11.58651624 25.00001073 16.65143332 25.0625 25 C25.09150391 26.27617187 25.12050781 27.55234375 25.15039062 28.8671875 C25.21387016 38.22309503 25.21387016 38.22309503 23.10546875 42.890625 C17.09903615 48.90701852 12.9466973 49.76134874 4.5625 49.796875 C3.304375 49.78140625 2.04625 49.7659375 0.75 49.75 C-0.508125 49.76546875 -1.76625 49.7809375 -3.0625 49.796875 C-14.45423953 49.74860492 -14.45423953 49.74860492 -19.25 45.25 C-24.880507 39.01078954 -24.4907656 33.60153562 -24.5625 25.5625 C-24.59150391 24.49837891 -24.62050781 23.43425781 -24.65039062 22.33789062 C-24.70252857 15.84471128 -24.2322857 10.57476068 -20.25 5.25 C-13.61011027 -0.03481019 -8.13210333 0.04030782 0 0 Z M-8.25 16.25 C-8.25 21.86 -8.25 27.47 -8.25 33.25 C-2.64 33.25 2.97 33.25 8.75 33.25 C8.75 27.64 8.75 22.03 8.75 16.25 C3.14 16.25 -2.47 16.25 -8.25 16.25 Z " fill="#1492FA" transform="translate(73.25,313.75)"/>
<path d="M0 0 C1.43859375 -0.01740234 1.43859375 -0.01740234 2.90625 -0.03515625 C10.16185386 -0.00525678 15.07980043 0.97394702 20.8125 5.6875 C25.51307108 11.46248732 25.3375573 17.63372748 25.3125 24.75 C25.32861328 25.6575 25.34472656 26.565 25.36132812 27.5 C25.36580006 33.70704748 25.0110593 40.14069303 20.54785156 44.93481445 C14.10563407 50.44625068 8.4228188 49.62632621 0.25 49.6875 C-1.66425781 49.73100586 -1.66425781 49.73100586 -3.6171875 49.77539062 C-15.33412214 49.85488966 -15.33412214 49.85488966 -20 45.375 C-25.1537235 38.82837826 -25.18131134 32.9957463 -25.1875 25 C-25.19974609 24.175 -25.21199219 23.35 -25.22460938 22.5 C-25.23972493 16.15146883 -24.89806819 10.76114287 -20.8125 5.625 C-14.14992969 0.29494376 -8.27115504 -0.10005429 0 0 Z M-9 17.375 C-9.07325436 20.0736905 -9.09222351 22.74002556 -9.0625 25.4375 C-9.041875 28.056875 -9.02125 30.67625 -9 33.375 C-3.06 33.375 2.88 33.375 9 33.375 C9 27.765 9 22.155 9 16.375 C6.215625 16.354375 3.43125 16.33375 0.5625 16.3125 C-0.31591553 16.303396 -1.19433105 16.29429199 -2.09936523 16.28491211 C-5.85214329 15.89276712 -5.85214329 15.89276712 -9 17.375 Z " fill="#1492FA" transform="translate(140,313.625)"/>
</svg>
