<?xml version="1.0" standalone="no"?>
<!DOCTYPE svg PUBLIC "-//W3C//DTD SVG 20010904//EN"
 "http://www.w3.org/TR/2001/REC-SVG-20010904/DTD/svg10.dtd">
<svg version="1.0" xmlns="http://www.w3.org/2000/svg"
 width="512.000000pt" height="512.000000pt" viewBox="0 0 512.000000 512.000000"
 preserveAspectRatio="xMidYMid meet">

<g transform="translate(0.000000,512.000000) scale(0.100000,-0.100000)"
fill="#000000" stroke="none">
<path d="M1719 5091 l-29 -29 0 -658 0 -657 -29 40 c-64 88 -180 156 -296 173
-89 12 -494 13 -601 1 -156 -18 -254 -70 -331 -175 -89 -121 -160 -293 -189
-458 -11 -67 -14 -153 -12 -376 l3 -289 30 -49 c19 -30 49 -60 79 -79 43 -26
59 -30 123 -30 l73 0 0 -77 c0 -84 14 -111 62 -123 13 -3 229 -4 480 -3 l457
3 23 23 c23 22 23 27 28 326 l5 304 210 -114 c133 -73 229 -119 261 -126 106
-21 206 22 283 122 l34 45 1183 5 1183 5 23 23 23 23 0 1065 0 1066 -28 24
-28 24 -1495 0 -1496 0 -29 -29z m2911 -1086 l0 -945 -1119 0 -1119 0 -11 32
c-7 18 -24 50 -38 71 l-26 38 242 360 c134 199 239 364 235 368 -26 22 -115
81 -123 81 -5 0 -118 -162 -251 -360 -134 -198 -244 -360 -245 -360 -9 0 -302
165 -307 174 -4 6 -8 343 -8 749 l0 737 1385 0 1385 0 0 -945z m-3203 -232
c63 -34 105 -83 198 -233 139 -224 117 -203 349 -329 122 -67 216 -125 231
-142 59 -71 16 -176 -75 -186 -42 -4 -59 3 -290 129 l-245 134 -5 63 c-4 50
-10 67 -29 82 -32 26 -77 24 -106 -6 l-25 -24 0 -396 0 -395 -365 0 -365 0 0
419 c0 231 -3 427 -6 436 -8 19 -55 45 -82 45 -11 0 -30 -9 -43 -19 l-24 -19
-5 -310 c-5 -287 -6 -312 -24 -331 -25 -28 -77 -28 -102 0 -18 20 -19 39 -19
293 1 280 5 325 47 456 30 94 94 213 145 270 36 40 57 54 106 70 57 18 87 19
377 17 305 -2 316 -3 357 -24z"/>
<path d="M4205 4678 c-3 -7 -4 -328 -3 -713 l3 -700 83 -3 82 -3 0 716 0 715
-80 0 c-55 0 -82 -4 -85 -12z"/>
<path d="M3110 3680 l0 -420 80 0 80 0 0 420 0 420 -80 0 -80 0 0 -420z"/>
<path d="M3760 3655 l0 -395 85 0 85 0 0 395 0 395 -85 0 -85 0 0 -395z"/>
<path d="M3440 3530 l0 -271 83 3 82 3 3 268 2 267 -85 0 -85 0 0 -270z"/>
<path d="M983 4979 c-120 -14 -253 -100 -323 -209 -118 -184 -85 -441 74 -588
90 -83 191 -122 317 -122 187 0 333 94 418 270 35 73 36 78 36 190 0 112 -1
117 -37 192 -93 195 -269 292 -485 267z m189 -186 c59 -27 117 -85 148 -148
34 -70 34 -180 0 -250 -30 -62 -83 -115 -146 -146 -66 -32 -177 -34 -245 -2
-60 27 -119 86 -150 149 -32 66 -33 177 -2 246 29 65 99 131 164 157 67 26
162 24 231 -6z"/>
<path d="M730 2151 c-72 -23 -106 -42 -158 -86 -94 -81 -143 -191 -143 -321 0
-173 89 -311 250 -388 61 -29 74 -31 172 -31 101 0 108 1 180 37 93 46 158
112 202 206 30 63 32 74 32 177 0 103 -2 114 -32 178 -36 76 -116 163 -181
196 -100 51 -225 64 -322 32z m217 -167 c115 -46 185 -184 154 -301 -18 -67
-70 -133 -130 -167 -137 -76 -315 -6 -366 143 -72 210 137 408 342 325z"/>
<path d="M2453 2155 c-123 -33 -213 -108 -270 -222 -33 -67 -38 -85 -41 -170
-4 -79 -1 -103 18 -156 43 -117 116 -197 229 -251 61 -29 74 -31 171 -31 97 0
110 2 171 31 113 54 186 134 229 251 19 53 22 77 18 156 -3 85 -8 103 -41 170
-90 182 -291 274 -484 222z m194 -166 c84 -26 158 -121 170 -217 24 -205 -199
-356 -378 -256 -68 39 -114 98 -130 168 -16 71 -5 131 34 197 63 104 178 145
304 108z"/>
<path d="M4160 2154 c-119 -32 -217 -116 -274 -234 -29 -61 -31 -73 -31 -175
0 -103 2 -114 32 -177 44 -94 109 -160 202 -206 72 -36 79 -37 181 -37 102 0
109 1 182 38 212 104 299 349 200 561 -88 189 -291 284 -492 230z m229 -181
c82 -39 139 -129 140 -224 4 -197 -209 -328 -380 -233 -92 52 -147 157 -136
257 14 113 100 206 210 226 58 11 103 4 166 -26z"/>
<path d="M745 1184 c-81 -12 -199 -50 -280 -90 -169 -82 -290 -209 -343 -357
-24 -68 -26 -88 -34 -362 -9 -302 -6 -335 32 -355 10 -5 323 -10 735 -11 l717
-1 22 21 c20 21 21 29 21 309 0 313 -4 348 -57 461 -37 78 -146 195 -233 250
-135 85 -281 130 -440 136 -60 2 -123 1 -140 -1z m289 -185 c153 -45 291 -138
354 -236 54 -86 62 -133 62 -375 l0 -218 -600 0 -600 0 0 183 c1 294 20 370
123 475 69 70 151 120 267 159 85 29 107 32 209 33 87 0 130 -5 185 -21z"/>
<path d="M2455 1184 c-209 -31 -438 -155 -537 -290 -101 -138 -114 -201 -121
-548 -6 -281 -2 -314 37 -329 8 -3 338 -7 732 -8 l716 -1 22 21 c20 21 21 29
21 319 0 287 -1 300 -24 370 -87 264 -374 455 -701 467 -63 2 -128 1 -145 -1z
m289 -185 c153 -45 291 -138 354 -236 54 -86 62 -133 62 -375 l0 -218 -600 0
-600 0 0 173 c1 298 21 376 121 482 68 72 151 122 269 162 85 29 107 32 209
33 87 0 130 -5 185 -21z"/>
<path d="M4165 1184 c-110 -16 -259 -71 -358 -131 -123 -74 -238 -219 -277
-348 -15 -49 -31 -609 -18 -645 4 -14 17 -31 27 -37 14 -9 204 -12 737 -14
l718 -1 24 28 24 27 -4 296 c-4 270 -6 302 -26 362 -86 260 -377 452 -702 464
-63 2 -128 1 -145 -1z m289 -185 c186 -55 323 -158 385 -289 25 -54 26 -60 29
-298 l4 -242 -601 0 -601 0 0 148 c2 321 20 401 121 507 68 72 151 122 269
162 85 29 107 32 209 33 88 0 130 -5 185 -21z"/>
</g>
</svg>
