<?xml version="1.0" encoding="UTF-8"?>
<svg version="1.1" xmlns="http://www.w3.org/2000/svg" width="512" height="512">
<path d="M0 0 C2.12060198 0.90619513 4.24575044 1.80181457 6.375 2.6875 C7.84066406 3.31205078 7.84066406 3.31205078 9.3359375 3.94921875 C20.55704888 8.37514098 33.1772652 6.66394096 44 2 C46.92784731 0.72185346 49.83619684 -0.58016384 52.72265625 -1.94921875 C59.09946822 -4.89152136 66.54138556 -5.09613777 73.3515625 -3.421875 C81.03996521 -0.05245548 85.9152969 7.30003499 90.4375 14.0625 C97.91720805 24.96053616 108.0626919 31.44426673 121 34 C124.75090843 34.50461772 128.5174353 34.81732624 132.2890625 35.12304688 C140.43642056 35.89998566 147.05885312 38.05885312 153 44 C158.04916488 50.87247442 158.49004341 58.45760891 159.421875 66.7578125 C161.2090959 82.01081842 165.96294433 92.32459775 177.82421875 102.3203125 C180.19551429 104.15093563 182.64183659 105.82470235 185.125 107.5 C191.99104239 112.2111614 196.85890873 117.21614809 198.51171875 125.59375 C199.16778767 136.44075607 194.55979168 145.13237555 189.93969727 154.7109375 C185.84241146 164.69175113 187.00905558 177.31028101 190.78125 187.171875 C192.45162918 191.04801131 194.14032214 194.90885256 195.94921875 198.72265625 C198.89152136 205.09946822 199.09613777 212.54138556 197.421875 219.3515625 C194.03995127 227.06849756 186.61758486 231.9578079 179.875 236.5625 C168.8315464 244.18692772 162.5675465 253.6226995 160 267 C159.4980644 270.75137404 159.18268348 274.51731543 158.87695312 278.2890625 C158.16577228 285.74685078 156.37117508 292.47536278 151 298 C144.3400372 303.17997107 137.45288144 304.18843031 129.3125 304.875 C114.42981085 306.3634208 101.7230733 311.18406788 92 323 C90.66431949 324.98459412 89.35331071 326.98593348 88.0625 329 C83.65272028 335.81977561 78.9039745 341.42854203 71 344 C61.72228084 345.29615194 54.37680242 342.77063229 46 339 C45.11570312 338.608125 44.23140625 338.21625 43.3203125 337.8125 C41.84194252 337.1532924 40.36823056 336.48339397 38.90234375 335.796875 C30.16475647 332.13677684 17.3191421 332.77726537 8.4765625 335.9375 C4.23119956 337.75885445 0.04032527 339.68167378 -4.1171875 341.6953125 C-10.71011402 344.6791031 -18.23058433 345.20868753 -25.28125 343.421875 C-33.04925015 340.03108129 -37.92841011 332.66063163 -42.5625 325.875 C-50.03259209 315.05509083 -59.08495906 309.12593348 -72 306 C-74.95048834 305.58669801 -77.90770089 305.32346462 -80.875 305.0625 C-97.62640299 303.37359701 -97.62640299 303.37359701 -104 297 C-109.17997107 290.3400372 -110.18843031 283.45288144 -110.875 275.3125 C-112.36697963 260.39422616 -117.20616957 247.77203093 -129 238 C-131.17561081 236.47707243 -133.35694221 234.97781678 -135.5625 233.5 C-142.16347238 229.07691854 -147.43003631 224.7894917 -150 217 C-151.20822529 207.52497011 -149.15103924 200.43179846 -145 192 C-144.24238043 190.35766022 -143.49164512 188.71211507 -142.75 187.0625 C-142.43546875 186.39347656 -142.1209375 185.72445312 -141.796875 185.03515625 C-137.98167127 175.29142516 -138.72034941 162.066013 -142.78125 152.56640625 C-143.1834375 151.71949219 -143.585625 150.87257812 -144 150 C-144.4434375 149.01902344 -144.886875 148.03804687 -145.34375 147.02734375 C-146.19579047 145.14740562 -147.06257717 143.27402508 -147.94921875 141.41015625 C-150.74721951 134.99243703 -151.1429384 127.50997313 -149.421875 120.71875 C-146.04362412 112.97948435 -138.7432801 108.11366882 -131.9375 103.5625 C-121.03946384 96.08279195 -114.55573327 85.9373081 -112 73 C-111.49538228 69.24909157 -111.18267376 65.4825647 -110.87695312 61.7109375 C-110.10001434 53.56357944 -107.94114688 46.94114688 -102 41 C-94.73008465 35.76566095 -86.75195066 35.29290485 -78.02539062 34.35717773 C-63.33519166 32.72359738 -53.27347606 27.5601156 -43.6796875 16.17578125 C-41.84906437 13.80448571 -40.17529765 11.35816341 -38.5 8.875 C-28.73171908 -5.36128385 -15.34560667 -7.33205097 0 0 Z M-55 105 C-72.05340877 125.54003688 -79.71743479 152.26213101 -77.72265625 178.671875 C-75.20049598 205.3587014 -62.22825884 230.38887438 -42 248 C-19.21090171 266.07817358 7.76510301 274.23886086 36.67431641 271.2890625 C59.43900586 268.45960708 79.63891598 257.91968786 96 242 C96.63421875 241.41605469 97.2684375 240.83210937 97.921875 240.23046875 C115.84987661 223.29406015 124.89893594 197.70937502 126.18359375 173.546875 C126.73078131 144.83562172 116.2982668 119.07276373 96.6809082 98.28051758 C77.76342791 78.89296094 51.81604126 68.05374361 24.8125 67.6875 C-6.90272157 67.86301907 -33.81719997 81.79188524 -55 105 Z " fill="#1492FA" transform="translate(232,4)"/>
<path d="M0 0 C0.63615234 0.61488281 0.63615234 0.61488281 1.28515625 1.2421875 C1.87167969 1.78101563 2.45820313 2.31984375 3.0625 2.875 C3.63097656 3.40867187 4.19945312 3.94234375 4.78515625 4.4921875 C10.10152185 8.11144168 16.31065862 8.32797411 22.54125977 8.93652344 C37.04591941 10.38169943 46.994401 12.89654709 57 24 C59.61979174 27.31006797 62.04289395 30.7558777 64.4609375 34.21484375 C69.06662284 40.58726024 74.15202929 45.07804799 82 47 C83.43587301 47.18014643 84.87354779 47.34637521 86.3125 47.5 C88.1378125 47.7475 88.1378125 47.7475 90 48 C90.33 48.66 90.66 49.32 91 50 C90.25190735 52.00843811 90.25190735 52.00843811 89.0090332 54.51196289 C88.54717117 55.45217789 88.08530914 56.39239288 87.60945129 57.36109924 C87.09509018 58.38791306 86.58072906 59.41472687 86.05078125 60.47265625 C85.25899727 62.07747108 85.25899727 62.07747108 84.45121765 63.71470642 C82.74575554 67.16771244 81.02951529 70.61522642 79.3125 74.0625 C77.09768615 78.53127927 74.88693949 83.00206733 72.67578125 87.47265625 C71.84555199 89.1482663 71.84555199 89.1482663 70.99855042 90.85772705 C65.66850422 101.62997585 60.47112794 112.46411088 55.28872681 123.30795288 C53.51408154 127.01504475 51.72634056 130.71569727 49.93359375 134.4140625 C49.63919403 135.02158356 49.34479431 135.62910461 49.04147339 136.2550354 C48.17372774 138.04514262 47.30561462 139.83507169 46.4375 141.625 C41.95041454 150.88230044 37.48714317 160.15013793 33.0625 169.4375 C28.81652189 178.34718301 24.45975678 187.19549449 20 196 C15.61627439 194.53875813 14.34059103 191.10344702 12.0625 187.3125 C6.33564314 178.00126748 0.3297512 168.89506908 -5.75 159.8125 C-6.20736542 159.12854156 -6.66473083 158.44458313 -7.13595581 157.73989868 C-9.75421619 153.82452387 -12.3756132 149.91127084 -15 146 C-15.65875122 146.07516846 -16.31750244 146.15033691 -16.99621582 146.2277832 C-23.87415493 147.01171716 -30.75278223 147.78938555 -37.63183594 148.56347656 C-40.19646967 148.85289622 -42.76092581 149.14389427 -45.32519531 149.43652344 C-49.01842022 149.8577058 -52.7122539 150.27314275 -56.40625 150.6875 C-57.5461438 150.81874268 -58.6860376 150.94998535 -59.86047363 151.08520508 C-65.61571266 151.72503369 -71.2093937 152.14784527 -77 152 C-68.20630231 133.14013156 -59.02746404 114.46575509 -49.23071289 96.10546875 C-44.49180346 87.15263847 -40.01525636 78.06689289 -35.5 69 C-25.1326637 48.18189207 -25.1326637 48.18189207 -19.66430664 37.97314453 C-14.88897276 29.0087927 -10.41918055 19.88594605 -5.91113281 10.78515625 C-5.59348465 10.14563019 -5.27583649 9.50610413 -4.94856262 8.84719849 C-4.07470838 7.08756321 -3.20318077 5.32677306 -2.33178711 3.56591797 C-1 1 -1 1 0 0 Z " fill="#1492FA" transform="translate(126,313)"/>
<path d="M0 0 C1.47027521 2.20198382 2.65750373 4.26875858 3.8359375 6.62109375 C4.19166336 7.30352646 4.54738922 7.98595917 4.91389465 8.68907166 C6.08001658 10.93235538 7.22719056 13.18479986 8.375 15.4375 C9.18378235 16.99964878 9.99409896 18.56100411 10.8059082 20.12158203 C12.44234113 23.26884543 14.073323 26.4188378 15.70068359 29.57080078 C18.79229754 35.54390966 21.98278039 41.46184432 25.1875 47.375 C26.31805868 49.46856084 27.44826673 51.56231107 28.578125 53.65625 C29.13693359 54.69136719 29.69574219 55.72648437 30.27148438 56.79296875 C33.33737435 62.48132055 36.3874378 68.17815056 39.4375 73.875 C40.37178833 75.61982666 40.37178833 75.61982666 41.32495117 77.39990234 C42.58636947 79.7558024 43.84765642 82.11177273 45.10888672 84.46777344 C47.61519719 89.14938748 50.12296768 93.83021917 52.63085938 98.51098633 C53.86814559 100.82055494 55.10512918 103.13028569 56.34179688 105.44018555 C59.28867055 110.94379109 62.23843216 116.44577246 65.19747925 121.94284058 C66.60583907 124.55955998 68.01269781 127.17708498 69.41943359 129.79467773 C70.09494878 131.05061761 70.77121139 132.30615578 71.44824219 133.5612793 C72.38270924 135.29376261 73.31447348 137.02770296 74.24609375 138.76171875 C74.77904053 139.75131592 75.3119873 140.74091309 75.86108398 141.76049805 C77 144 77 144 77 145 C64.28515046 144.36467642 51.73360558 142.62467651 39.125 140.9375 C36.97270665 140.6526138 34.82036321 140.36810567 32.66796875 140.08398438 C27.44472748 139.39367811 22.22212246 138.69871703 17 138 C13.86079223 145.30363717 10.94941021 152.67862949 8.1171875 160.10546875 C7.41809438 161.93038667 6.7188738 163.75525577 6.01953125 165.58007812 C4.93655708 168.40685364 3.85714856 171.23476583 2.78759766 174.06665039 C1.7411294 176.83366757 0.6805406 179.59490429 -0.3828125 182.35546875 C-0.86102951 183.63649727 -0.86102951 183.63649727 -1.34890747 184.94340515 C-1.80485794 186.11646965 -1.80485794 186.11646965 -2.27001953 187.31323242 C-2.53251495 188.00317795 -2.79501038 188.69312347 -3.06546021 189.40397644 C-4 191 -4 191 -7 192 C-7.35602295 191.35788574 -7.7120459 190.71577148 -8.07885742 190.05419922 C-14.91681393 177.73866009 -21.8291885 165.48514935 -29.03417969 153.37988281 C-33.22769007 146.32842315 -37.3459439 139.23606351 -41.4375 132.125 C-46.28945679 123.69474063 -51.15801601 115.27482331 -56.0625 106.875 C-56.63677734 105.89144531 -57.21105469 104.90789062 -57.80273438 103.89453125 C-59.53466654 100.92940104 -61.26720896 97.96462837 -63 95 C-70.46674879 82.22515594 -77.91503676 69.44008855 -85.3125 56.625 C-85.96532959 55.49465332 -86.61815918 54.36430664 -87.29077148 53.19970703 C-87.89219971 52.15669434 -88.49362793 51.11368164 -89.11328125 50.0390625 C-89.64735596 49.11303223 -90.18143066 48.18700195 -90.73168945 47.23291016 C-91.5223118 45.8409887 -92.28410489 44.43179021 -93 43 C-91.88882812 42.84144531 -90.77765625 42.68289063 -89.6328125 42.51953125 C-75.74545984 40.40369064 -65.74227144 36.68779519 -56 26 C-54.28165225 23.46947913 -52.77179924 20.90254148 -51.29296875 18.2265625 C-45.71261976 8.61689807 -35.47783564 5.29558555 -25.35595703 2.57275391 C-21.18677421 1.55918884 -16.98422264 0.80972614 -12.75 0.125 C-11.94022705 -0.00720947 -11.1304541 -0.13941895 -10.29614258 -0.27563477 C-2.90373971 -1.36782735 -2.90373971 -1.36782735 0 0 Z " fill="#1492FA" transform="translate(386,320)"/>
<path d="M0 0 C0.66 0 1.32 0 2 0 C2.4319165 1.24088379 2.86383301 2.48176758 3.30883789 3.76025391 C10.60059604 26.12785441 10.60059604 26.12785441 25.26263428 43.45349121 C35.28478866 47.98766677 46.9034131 48.10019004 57.73144531 47.88867188 C62.32557048 47.86243044 66.57414263 48.83918858 71 50 C66.31429594 55.62883299 61.31520448 60.83578987 56.125 66 C55.36058594 66.76828125 54.59617187 67.5365625 53.80859375 68.328125 C49.55747943 72.57202181 45.22974432 76.63371788 40.62451172 80.4921875 C38.76446484 82.10144098 38.76446484 82.10144098 37 85 C36.97376427 86.93040064 36.97376427 86.93040064 37.41552734 89.0090332 C37.62597183 90.21092033 37.62597183 90.21092033 37.84066772 91.43708801 C38.00410675 92.29960678 38.16754578 93.16212555 38.3359375 94.05078125 C38.49413971 94.94234421 38.65234192 95.83390717 38.81533813 96.75248718 C39.32373569 99.60802996 39.84841772 102.46025939 40.375 105.3125 C40.89201283 108.15438569 41.40547397 110.99682492 41.91323853 113.84037781 C42.23002795 115.61001706 42.55250952 117.37864944 42.88143921 119.14607239 C43.66770309 123.49418133 44.18452091 127.5584466 44 132 C39.69170847 130.6693266 35.81923295 129.00362613 31.82421875 126.91796875 C30.66599609 126.31533203 29.50777344 125.71269531 28.31445312 125.09179688 C27.71769775 124.77847412 27.12094238 124.46515137 26.50610352 124.14233398 C24.70488703 123.19662883 22.900654 122.25691413 21.09570312 121.31835938 C19.35256836 120.40860352 19.35256836 120.40860352 17.57421875 119.48046875 C15.88111572 118.5994751 15.88111572 118.5994751 14.15380859 117.70068359 C11.37102224 116.20007284 8.7075623 114.58658233 6.01953125 112.92578125 C3.19507899 111.37510158 2.40862169 110.95274443 -0.87109375 111.33203125 C-1.90363281 111.88246094 -2.93617188 112.43289062 -4 113 C-4.79422363 113.39493652 -5.58844727 113.78987305 -6.40673828 114.19677734 C-9.31545756 115.65191072 -12.18919756 117.16369791 -15.0625 118.6875 C-16.5942688 119.4923584 -16.5942688 119.4923584 -18.15698242 120.31347656 C-24.73051068 123.77416149 -31.27343353 127.28644925 -37.76953125 130.890625 C-40 132 -40 132 -42 132 C-41.65724107 125.25469212 -40.61118963 118.78001166 -39.23828125 112.18359375 C-38.75881227 109.76028138 -38.2845537 107.33600147 -37.81176758 104.91137695 C-37.47778356 103.25648208 -37.12507212 101.6052612 -36.75415039 99.95825195 C-34.29445887 90.17347556 -34.29445887 90.17347556 -36.80615234 80.86767578 C-39.38346381 78.25679657 -42.02041139 76.13468482 -45 74 C-46.37727457 72.81537852 -47.7431833 71.61732641 -49.09375 70.40234375 C-49.73441406 69.85304199 -50.37507813 69.30374023 -51.03515625 68.73779297 C-54.68366602 65.51089281 -58.07783381 62.02585893 -61.5 58.5625 C-62.22703125 57.83095703 -62.9540625 57.09941406 -63.703125 56.34570312 C-65.47109499 54.56610176 -67.23666378 52.78419082 -69 51 C-65.94972525 47.94972525 -62.13161109 48.08458302 -58.01171875 47.52734375 C-57.11636917 47.39936905 -56.22101959 47.27139435 -55.29853821 47.13954163 C-52.42924097 46.73099357 -49.55849541 46.33392163 -46.6875 45.9375 C-43.82759638 45.53512688 -40.96803306 45.1304268 -38.1085968 44.7247467 C-36.32817009 44.47297514 -34.54740812 44.22356023 -32.76628113 43.97679138 C-31.95226334 43.86319778 -31.13824554 43.74960419 -30.29956055 43.63256836 C-29.58833542 43.53423203 -28.87711029 43.43589569 -28.14433289 43.33457947 C-27.43670303 43.22416824 -26.72907318 43.11375702 -26 43 C-25.13778839 42.90381378 -24.27557678 42.80762756 -23.38723755 42.70852661 C-20.90876545 42.21669097 -20.90876545 42.21669097 -19.60148621 40.28526306 C-19.23952652 39.54135818 -18.87756683 38.79745331 -18.50463867 38.03100586 C-18.08458054 37.19020981 -17.6645224 36.34941376 -17.23173523 35.48313904 C-16.58142082 34.11283287 -16.58142082 34.11283287 -15.91796875 32.71484375 C-15.45892654 31.78402481 -14.99988434 30.85320587 -14.52693176 29.8941803 C-13.06336662 26.91663497 -11.62530788 23.92755499 -10.1875 20.9375 C-9.20022197 18.91781031 -8.2113094 16.89891874 -7.22070312 14.88085938 C-4.79475316 9.92968099 -2.38963581 4.96879792 0 0 Z " fill="#1492FA" transform="translate(255,108)"/>
</svg>
