<?xml version="1.0" encoding="UTF-8"?>
<svg version="1.1" xmlns="http://www.w3.org/2000/svg" width="512" height="512">
<path d="M0 0 C12.37827528 -0.23197431 24.75603139 -0.40952041 37.13603973 -0.51812172 C42.88509537 -0.57025343 48.63266121 -0.64092711 54.38085938 -0.75439453 C59.93122424 -0.86326775 65.48015896 -0.92288641 71.0315094 -0.94877243 C73.14635228 -0.96721209 75.26111914 -1.00322373 77.37535095 -1.05730057 C93.98409824 -1.46511142 93.98409824 -1.46511142 98.96728516 2.15655518 C100.9731702 4.6794704 102.43001558 7.1962874 104 10 C117.70793465 23.09999016 134.45254159 23.30709006 152.42578125 23.25878906 C154.14057564 23.26150534 155.85536886 23.26506982 157.57015991 23.26940918 C162.1899799 23.27845977 166.8097097 23.27501944 171.4295311 23.26865101 C176.28676326 23.26355278 181.1439882 23.26829301 186.0012207 23.27142334 C194.15479912 23.27505191 202.30834118 23.27029309 210.46191406 23.26074219 C219.86013229 23.24985979 229.25826371 23.25338616 238.65647984 23.264395 C246.75624867 23.27349957 254.85599152 23.2747377 262.95576382 23.26951766 C267.77998208 23.26641534 272.60415967 23.26594045 277.42837524 23.27259064 C281.96587775 23.27840979 286.50326939 23.27428446 291.04076004 23.26280212 C292.69624269 23.2601798 294.35173484 23.26087855 296.00721359 23.26532745 C314.08006236 23.30938175 329.06213271 21.83956743 342.96484375 9.22265625 C344.97660723 7.19598048 344.97660723 7.19598048 345.96272564 5.27963161 C347.57972023 2.47687617 348.81326063 0.3804634 351.98694801 -0.63700676 C354.4763641 -0.86268288 356.88131868 -0.86616543 359.38012695 -0.79467773 C360.78573631 -0.79621101 360.78573631 -0.79621101 362.21974182 -0.79777527 C365.31041807 -0.79290667 368.39812265 -0.73849949 371.48828125 -0.68359375 C373.63346238 -0.67053498 375.77866442 -0.66057213 377.9238739 -0.65357971 C383.56492951 -0.62687646 389.20471964 -0.55813285 394.84527588 -0.48065186 C400.60305664 -0.40899254 406.36104229 -0.37706236 412.11914062 -0.34179688 C423.41331585 -0.26676548 434.70655262 -0.14732264 446 0 C446.09125286 28.56150664 446.16203995 57.12299496 446.20426132 85.68461884 C446.20926414 89.05667322 446.21444143 92.4287273 446.21972656 95.80078125 C446.2207758 96.47209571 446.22182505 97.14341017 446.22290608 97.8350675 C446.24031073 108.70452328 446.27184872 119.57389444 446.30861118 130.44330002 C446.34601899 141.5965399 446.36793611 152.7497508 446.37635398 163.90305412 C446.38157344 170.16763289 446.39385997 176.4320197 446.42292023 182.69653702 C446.45004467 188.59143932 446.45845089 194.48607035 446.45243073 200.38102913 C446.45353228 202.54580089 446.46150363 204.71058161 446.4768219 206.87529945 C446.49670291 209.82940149 446.49194569 212.78247734 446.48101807 215.73660278 C446.49266943 216.5945891 446.5043208 217.45257542 446.51632524 218.33656132 C446.46282065 223.6822565 445.65073483 226.8276693 442 231 C437.44184108 235.04319802 432.18415953 234.4107466 426.41423035 234.36076355 C424.79686075 234.36460846 424.79686075 234.36460846 423.14681703 234.36853105 C419.52765836 234.37347914 415.90891527 234.3569586 412.28979492 234.34057617 C409.69795746 234.33973012 407.10611927 234.3402046 404.51428223 234.34190369 C398.93108492 234.34347627 393.34799284 234.33406871 387.76482201 234.31719017 C379.69252536 234.29280263 371.62027956 234.28499516 363.54795007 234.2812262 C350.45096456 234.27466132 337.35403514 234.2546992 324.25708008 234.22631836 C311.53507772 234.19877871 298.8130906 234.17754467 286.09106445 234.16479492 C285.30679823 234.16400675 284.52253201 234.16321858 283.71450015 234.16240653 C279.78004268 234.1584914 275.8455851 234.15470028 271.91112745 234.15097082 C239.27404414 234.11987379 206.63702958 234.06703703 174 234 C173.99503478 232.95831744 173.99503478 232.95831744 173.98996925 231.89559078 C173.90869322 214.98568321 173.8165857 198.07587269 173.71247292 181.16609097 C173.66238471 172.98859458 173.61594138 164.81110803 173.578125 156.63354492 C173.54514891 149.50467626 173.50528674 142.37588477 173.45720994 135.24710137 C173.43200072 131.4736564 173.41020309 127.70026226 173.39665604 123.92675591 C173.3837849 120.37186349 173.36167657 116.81714587 173.33261681 113.26235008 C173.31928579 111.34216055 173.31562931 109.4219114 173.31230164 107.50167847 C173.31911285 97.18519861 173.31911285 97.18519861 168.8125 88.1875 C163.4654395 84.02867517 157.54362285 83.70384263 150.97265625 83.74121094 C150.20259247 83.7377063 149.43252869 83.73420166 148.63912964 83.73059082 C146.11349259 83.72184473 143.58813952 83.7275973 141.0625 83.734375 C139.29565375 83.7330263 137.52880787 83.73108406 135.76196289 83.72857666 C132.06685843 83.72563504 128.37185096 83.72989202 124.67675781 83.73925781 C119.95254292 83.75065176 115.22855532 83.74408713 110.50434875 83.73211288 C106.85825911 83.72486827 103.21222289 83.72719415 99.56613159 83.73236847 C97.82469658 83.73369777 96.08325664 83.73208259 94.34182739 83.72740936 C91.9035364 83.72230123 89.46560792 83.73011415 87.02734375 83.74121094 C85.9595015 83.73513824 85.9595015 83.73513824 84.87008667 83.72894287 C78.94664931 83.77860712 73.92614912 84.50188402 69.1875 88.1875 C63.89713662 94.98939578 64.69543774 103.03567943 64.68115234 111.27905273 C64.67184291 112.61997576 64.66167274 113.96089305 64.65071106 115.30180359 C64.62351124 118.92522832 64.60829155 122.5486144 64.59528303 126.17211413 C64.57960843 129.96513452 64.5528321 133.75807646 64.5272522 137.55104065 C64.48054084 144.7260529 64.44375985 151.90108002 64.41057932 159.07616621 C64.3723038 167.24792659 64.32290793 175.41960805 64.27259517 183.5913018 C64.16938904 200.39414444 64.08009199 217.19703095 64 234 C56.27713258 234.10151824 48.55443761 234.17151568 40.83105469 234.21972656 C38.20436167 234.23982715 35.57771331 234.26711204 32.95117188 234.30175781 C29.17306488 234.35034164 25.39555016 234.37298509 21.6171875 234.390625 C20.44509735 234.41127014 19.2730072 234.43191528 18.06539917 234.45318604 C11.93082137 234.45486989 7.66764994 234.45198608 3 230 C-0.58141338 225.44108596 -0.41707034 221.40407181 -0.36076355 215.8568573 C-0.36332682 214.93378589 -0.3658901 214.01071449 -0.36853105 213.05967122 C-0.37347373 209.9656287 -0.3569678 206.87207377 -0.34057617 203.77807617 C-0.33973001 201.5606182 -0.34020484 199.34315939 -0.34190369 197.1257019 C-0.34276547 191.10338933 -0.32510993 185.0812555 -0.30418181 179.05898452 C-0.2854456 172.76624565 -0.28366698 166.47350282 -0.28010559 160.18074036 C-0.27183656 149.61793986 -0.25308974 139.05519804 -0.22631836 128.49243164 C-0.19877443 117.61352873 -0.17754249 106.73464364 -0.16479492 95.85571289 C-0.16400675 95.1849525 -0.16321858 94.51419212 -0.16240653 93.82310566 C-0.15849137 90.45804291 -0.15470025 87.09298003 -0.15097082 83.72791708 C-0.11960144 55.81856566 -0.06682341 27.90928745 0 0 Z M267 61 C264.2420907 65.42376056 264.35277763 69.942077 265 75 C267.16298837 79.40608743 269.39680479 82.1987497 274 84 C279.04325384 84.68426057 282.83076884 84.5739862 287.4375 82.3125 C291.65708311 78.50458354 293.17356691 75.79462733 293.5 70.125 C293.36469168 65.59217113 292.245325 62.91992346 289.484375 59.375 C285.58106111 55.75929872 281.672075 55.51479029 276.54296875 55.61328125 C272.54249358 56.22164844 269.72987411 58.05297681 267 61 Z M315 61 C312.2420907 65.42376056 312.35277763 69.942077 313 75 C315.16298837 79.40608743 317.39680479 82.1987497 322 84 C327.04325384 84.68426057 330.83076884 84.5739862 335.4375 82.3125 C339.65708311 78.50458354 341.17356691 75.79462733 341.5 70.125 C341.36469168 65.59217113 340.245325 62.91992346 337.484375 59.375 C333.58106111 55.75929872 329.672075 55.51479029 324.54296875 55.61328125 C320.54249358 56.22164844 317.72987411 58.05297681 315 61 Z M226.125 94.125 C224.43515749 98.44348642 224.34039017 102.4267052 225 107 C227.16298837 111.40608743 229.39680479 114.1987497 234 116 C239.04325384 116.68426057 242.83076884 116.5739862 247.4375 114.3125 C250.79656012 111.28115306 252.69355631 109.25860352 253.31640625 104.66796875 C253.58213652 98.95048191 252.96847152 95.39749547 249 91 C245.16286804 87.61429533 241.36598538 87.48708828 236.4375 87.6484375 C231.77473854 88.32095117 229.14809708 90.69882331 226.125 94.125 Z M354.125 94.125 C352.43515749 98.44348642 352.34039017 102.4267052 353 107 C355.16298837 111.40608743 357.39680479 114.1987497 362 116 C367.04325384 116.68426057 370.83076884 116.5739862 375.4375 114.3125 C378.79656012 111.28115306 380.69355631 109.25860352 381.31640625 104.66796875 C381.58213652 98.95048191 380.96847152 95.39749547 377 91 C373.16286804 87.61429533 369.36598538 87.48708828 364.4375 87.6484375 C359.77473854 88.32095117 357.14809708 90.69882331 354.125 94.125 Z M264 126 C257.6613149 134.27431538 253.1759197 143.04689452 250 153 C249.80019531 153.61359375 249.60039062 154.2271875 249.39453125 154.859375 C247.63824035 164.38855728 247.75781745 175.64804814 253 184 C260.76964947 194.95627989 272.1417591 201.13446675 285.27929688 203.39160156 C305.41800164 206.3578287 326.19131932 205.67302032 343.5234375 193.91015625 C350.30978954 188.67588788 355.14900519 182.47733719 357 174 C358.66693236 156.57454213 353.94296394 141.75232822 343.1875 127.875 C334.49304044 117.48446216 323.99074247 106.37778931 310 104 C290.22350618 102.25565655 276.64311053 111.2326835 264 126 Z " fill="#0099ffff" transform="translate(33,237)"/>
<path d="M0 0 C0.76774657 -0.00538554 1.53549315 -0.01077108 2.32650477 -0.01631981 C4.89520686 -0.03061006 7.4633944 -0.02349317 10.03211975 -0.01637268 C11.87531956 -0.0220757 13.71851584 -0.02903969 15.56170654 -0.03717041 C20.56583683 -0.05512449 25.56979198 -0.0539292 30.57394481 -0.04822803 C34.7514798 -0.04513944 38.92898099 -0.05122495 43.10651118 -0.05726677 C52.9616254 -0.07131777 62.81665295 -0.06974591 72.67176819 -0.05836487 C82.83915104 -0.04688269 93.00627016 -0.06095974 103.17361826 -0.08776134 C111.90327117 -0.10991162 120.63284125 -0.11655724 129.36252028 -0.11068493 C134.57624696 -0.1073126 139.78980456 -0.10974885 145.00350761 -0.12693596 C149.90622211 -0.14239227 154.80854561 -0.13846409 159.71124458 -0.11963081 C161.50995432 -0.11594131 163.30869295 -0.11906393 165.1073761 -0.1295166 C167.56430445 -0.1427038 170.01993409 -0.13120015 172.47680664 -0.11352539 C173.54272259 -0.1279329 173.54272259 -0.1279329 174.63017219 -0.14263147 C179.63793014 -0.06858515 182.49586447 1.17017418 186.30189514 4.38768005 C189.47566511 8.34352283 189.67990945 11.48225179 189.6895752 16.47836304 C189.6976535 17.53197764 189.6976535 17.53197764 189.70589501 18.60687739 C189.72017315 20.9544827 189.71307149 23.30152403 189.70594788 25.64915466 C189.71165154 27.3347214 189.71861578 29.02028428 189.72674561 30.70584106 C189.74469266 35.2802378 189.74350572 39.85444287 189.73780322 44.42886424 C189.73471359 48.24851316 189.74080131 52.06812514 189.74684197 55.88776881 C189.76089068 64.8990823 189.75932304 73.910301 189.74794006 82.9216156 C189.7364583 92.21650261 189.75053468 101.51110111 189.77733654 110.80595011 C189.79949145 118.7882649 189.80613139 126.77048911 189.80026013 134.75283247 C189.79688887 139.51943435 189.79931685 144.28585128 189.81651115 149.05242729 C189.83197488 153.5349172 189.8280312 158.01697961 189.80920601 162.49945259 C189.80551853 164.14335676 189.80863327 165.78729256 189.8190918 167.4311676 C189.83229336 169.67794209 189.82076357 171.92329957 189.80310059 174.17001343 C189.8028913 175.42637572 189.80268202 176.68273802 189.80246639 177.9771719 C189.05904824 183.04225239 186.96850523 186.02818653 183.0330267 189.23845005 C179.52297924 190.71543927 176.34743693 190.80692321 172.60379028 190.77536011 C171.83604371 190.78074565 171.06829714 190.78613118 170.27728552 190.79167992 C167.70858342 190.80597017 165.14039588 190.79885327 162.57167053 190.79173279 C160.72847072 190.7974358 158.88527444 190.8043998 157.04208374 190.81253052 C152.03795346 190.8304846 147.03399831 190.82928931 142.02984548 190.82358813 C137.85231048 190.82049954 133.67480929 190.82658506 129.49727911 190.83262688 C119.64216488 190.84667788 109.78713734 190.84510601 99.93202209 190.83372498 C89.76463924 190.82224279 79.59752013 190.83631985 69.43017203 190.86312145 C60.70051911 190.88527173 51.97094903 190.89191735 43.24127001 190.88604504 C38.02754333 190.8826727 32.81398572 190.88510896 27.60028267 190.90229607 C22.69756818 190.91775238 17.79524467 190.9138242 12.8925457 190.89499092 C11.09383596 190.89130141 9.29509734 190.89442404 7.49641418 190.90487671 C5.03948583 190.91806391 2.5838562 190.90656026 0.12698364 190.8888855 C-0.93893231 190.90329301 -0.93893231 190.90329301 -2.02638191 190.91799158 C-7.03413986 190.84394526 -9.89207419 189.60518593 -13.69810486 186.38768005 C-16.87187483 182.43183727 -17.07611917 179.29310831 -17.08578491 174.29699707 C-17.09117045 173.59458733 -17.09655599 172.8921776 -17.10210472 172.16848272 C-17.11638287 169.82087741 -17.10928121 167.47383608 -17.10215759 165.12620544 C-17.10786125 163.4406387 -17.1148255 161.75507583 -17.12295532 160.06951904 C-17.14090238 155.49512231 -17.13971544 150.92091724 -17.13401294 146.34649587 C-17.13092331 142.52684695 -17.13701103 138.70723497 -17.14305168 134.8875913 C-17.1571004 125.87627781 -17.15553275 116.86505911 -17.14414978 107.85374451 C-17.13266802 98.55885749 -17.1467444 89.26425899 -17.17354625 79.96941 C-17.19570116 71.98709521 -17.20234111 64.00487099 -17.19646984 56.02252764 C-17.19309858 51.25592576 -17.19552656 46.48950883 -17.21272087 41.72293282 C-17.2281846 37.24044291 -17.22424092 32.7583805 -17.20541573 28.27590752 C-17.20172825 26.63200335 -17.20484298 24.98806754 -17.21530151 23.3441925 C-17.22850308 21.09741802 -17.21697329 18.85206053 -17.1993103 16.60534668 C-17.19910102 15.34898438 -17.19889174 14.09262209 -17.19867611 12.79818821 C-16.45525796 7.73310772 -14.36471495 4.74717357 -10.42923641 1.53691006 C-6.91918896 0.05992084 -3.74364664 -0.0315631 0 0 Z M74.30189514 62.38768005 C71.15737122 68.19381886 70.99378795 73.91742912 71.30189514 80.38768005 C70.73341858 80.36447693 70.16494202 80.3412738 69.57923889 80.31736755 C63.20151893 80.16830565 57.94869471 80.62314701 52.48939514 84.26268005 C49.01912997 87.63379479 48.00183502 90.45153986 47.92689514 95.26268005 C48.03268006 100.05121058 49.02342014 102.75477533 52.30189514 106.38768005 C58.23531308 110.79970878 64.21085901 110.52671998 71.30189514 110.38768005 C71.27869202 110.95615662 71.25548889 111.52463318 71.23158264 112.1103363 C71.07869955 118.6515486 71.26769681 124.04052813 75.73939514 129.20018005 C80.35281897 133.13846869 82.89207927 133.83313886 88.79408264 133.7040863 C92.49411427 133.23725988 94.56003211 131.86204425 97.30189514 129.38768005 C101.71392387 123.45426212 101.44093507 117.47871619 101.30189514 110.38768005 C101.8703717 110.41088318 102.43884827 110.4340863 103.02455139 110.45799255 C109.56576369 110.61087565 114.95474322 110.42187839 120.11439514 105.95018005 C124.05268378 101.33675623 124.74735394 98.79749593 124.61830139 92.89549255 C124.15147497 89.19546092 122.77625934 87.12954308 120.30189514 84.38768005 C114.3684772 79.97565133 108.39293127 80.24864013 101.30189514 80.38768005 C101.32509827 79.81920349 101.34830139 79.25072693 101.37220764 78.6650238 C101.52509073 72.12381151 101.33609347 66.73483198 96.86439514 61.57518005 C92.30100883 57.67960637 89.73387838 56.8665659 83.87611389 57.02049255 C79.69025676 57.61756474 77.01611895 59.15323001 74.30189514 62.38768005 Z " fill="#0099ffff" transform="translate(169.69810485839844,40.61231994628906)"/>
<path d="M0 0 C18.68625 -0.0825 37.3725 -0.165 56.625 -0.25 C65.47046631 -0.30462402 65.47046631 -0.30462402 74.49462891 -0.36035156 C81.70385742 -0.37841797 81.70385742 -0.37841797 85.08041382 -0.3817749 C87.4351809 -0.38791124 89.78993553 -0.40196725 92.1446228 -0.42230225 C95.71463813 -0.45158761 99.28388643 -0.45562387 102.85400391 -0.45410156 C103.90040857 -0.468494 104.94681324 -0.48288643 106.02492714 -0.497715 C111.8321693 -0.46457275 115.52706678 -0.10165472 120 4 C123.98763241 8.52894384 123.43028007 13.66240236 123.40405273 19.38647461 C123.41091599 20.43095261 123.41777924 21.4754306 123.42485046 22.55155945 C123.44314205 26.00195942 123.43927745 29.45190572 123.43359375 32.90234375 C123.4381544 35.302212 123.44345962 37.70207894 123.44947815 40.10194397 C123.45841391 45.1314118 123.4559807 50.16072089 123.44604492 55.19018555 C123.43455482 61.6343031 123.45476565 68.07787273 123.48396206 74.5219183 C123.50231104 79.47790506 123.50203414 84.43376021 123.49632454 89.38977242 C123.49617117 91.7656182 123.50222864 94.14147281 123.51461601 96.5172863 C123.52949895 99.83991715 123.51886768 103.16153174 123.50170898 106.48413086 C123.51137695 107.46458374 123.52104492 108.44503662 123.53100586 109.4552002 C123.46982842 115.11469283 122.94951377 118.61917483 119 123 C114.39054166 127.14692521 108.82410704 126.40078344 102.9675293 126.34057617 C101.83693746 126.34093778 100.70634562 126.34129938 99.54149342 126.34167194 C95.88555443 126.33943462 92.23007555 126.31659663 88.57421875 126.29296875 C86.31563538 126.28855736 84.05704896 126.28549715 81.79846191 126.28381348 C73.42809447 126.26809115 65.05779271 126.22620748 56.6875 126.1875 C37.980625 126.125625 19.27375 126.06375 0 126 C0 84.42 0 42.84 0 0 Z " fill="#0099ffff" transform="translate(389,81)"/>
<path d="M0 0 C1.13059184 -0.0003616 2.26118368 -0.00072321 3.42603588 -0.00109577 C7.08197487 0.00114155 10.73745375 0.02397954 14.39331055 0.04760742 C16.65189391 0.05201882 18.91048034 0.05507902 21.16906738 0.0567627 C29.53943482 0.07248502 37.90973659 0.11436869 46.2800293 0.15307617 C74.3403418 0.24588867 74.3403418 0.24588867 102.9675293 0.34057617 C102.9675293 41.92057617 102.9675293 83.50057617 102.9675293 126.34057617 C84.2812793 126.42307617 65.5950293 126.50557617 46.3425293 126.59057617 C40.44555176 126.62699219 34.54857422 126.6634082 28.47290039 126.70092773 C21.26367187 126.71899414 21.26367187 126.71899414 17.88711548 126.72235107 C15.5323484 126.72848741 13.17759377 126.74254342 10.82290649 126.76287842 C7.25289117 126.79216378 3.68364287 126.79620004 0.11352539 126.79467773 C-0.93287928 126.80907017 -1.97928394 126.8234626 -3.05739784 126.83829117 C-8.86464 126.80514892 -12.55953748 126.44223089 -17.0324707 122.34057617 C-21.02010311 117.81163233 -20.46275077 112.67817381 -20.43652344 106.95410156 C-20.44338669 105.90962357 -20.45024994 104.86514557 -20.45732117 103.78901672 C-20.47561275 100.33861675 -20.47174816 96.88867045 -20.46606445 93.43823242 C-20.4706251 91.03836417 -20.47593032 88.63849724 -20.48194885 86.2386322 C-20.49088461 81.20916437 -20.48845141 76.17985528 -20.47851562 71.15039062 C-20.46702552 64.70627307 -20.48723635 58.26270344 -20.51643276 51.81865788 C-20.53478174 46.86267111 -20.53450485 41.90681596 -20.52879524 36.95080376 C-20.52864187 34.57495798 -20.53469934 32.19910336 -20.54708672 29.82328987 C-20.56196966 26.50065902 -20.55133839 23.17904443 -20.53417969 19.85644531 C-20.54384766 18.87599243 -20.55351562 17.89553955 -20.56347656 16.88537598 C-20.50229912 11.22588334 -19.98198447 7.72140135 -16.0324707 3.34057617 C-11.42301237 -0.80634904 -5.85657775 -0.06020727 0 0 Z " fill="#0099ffff" transform="translate(20.032470703125,80.659423828125)"/>
<path d="M0 0 C16.5 0 33 0 50 0 C50 39.93 50 79.86 50 121 C33.5 121 17 121 0 121 C0 81.07 0 41.14 0 0 Z " fill="#0099ffff" transform="translate(127,350)"/>
<path d="M0 0 C9.4218373 5.43972106 17.93683328 15.4703644 21 26 C21.47130918 29.43841468 21.62161656 32.57513184 21 36 C17.65311007 40.18361241 13.10691963 41.12408591 8 42 C4.03774522 42.300385 0.09725134 42.32489779 -3.875 42.3125 C-4.89980469 42.32861328 -5.92460937 42.34472656 -6.98046875 42.36132812 C-13.92923926 42.36574285 -22.17511936 42.23368004 -27.74536133 37.52441406 C-29.94280047 34.85447634 -29.58442687 32.21649282 -29.47265625 28.8828125 C-27.67922952 17.94439163 -19.86571978 8.75965873 -11.5 1.9375 C-7.76945017 -0.45409402 -4.28787 -1.31340162 0 0 Z " fill="#0099ffff" transform="translate(340,370)"/>
</svg>
