<?xml version="1.0" encoding="UTF-8"?>
<svg version="1.1" xmlns="http://www.w3.org/2000/svg" width="512" height="512">
<path d="M0 0 C1.03573977 -0.00453111 2.07147954 -0.00906223 3.13860536 -0.01373065 C6.59051684 -0.0263363 10.04226978 -0.02475674 13.49420166 -0.02310181 C15.97686973 -0.02908944 18.45953593 -0.03589552 20.94219971 -0.04345703 C26.9752481 -0.05926944 33.00823475 -0.06556437 39.04129812 -0.06668179 C43.94896766 -0.06763456 48.85662438 -0.07175624 53.76428986 -0.07808304 C67.70100162 -0.09568214 81.63768268 -0.10492398 95.57440564 -0.10342209 C96.6996949 -0.10330222 96.6996949 -0.10330222 97.84771729 -0.10317993 C98.97439219 -0.10305729 98.97439219 -0.10305729 100.1238282 -0.10293217 C112.29099623 -0.10211962 124.45804037 -0.12125284 136.62517259 -0.14945666 C149.14041643 -0.17823681 161.65559995 -0.19199415 174.1708777 -0.19026911 C181.18837106 -0.18960699 188.20573452 -0.19502117 195.22319794 -0.21662521 C201.82574397 -0.23682283 208.42806347 -0.23611107 215.03063965 -0.22159195 C217.44725191 -0.21950654 219.86388143 -0.22418863 222.28046417 -0.23631287 C239.11048074 -0.31524986 254.43821119 -0.20065098 267.32720947 12.15023804 C276.9458006 22.52123482 278.68246232 32.95061515 278.48736572 46.70492554 C278.47834229 47.91342163 278.46931885 49.12191772 278.46002197 50.36703491 C278.4365674 53.33403832 278.40374367 56.30062697 278.36236572 59.26742554 C280.1026001 59.3409021 280.1026001 59.3409021 281.87799072 59.41586304 C298.50876133 60.17797283 313.81857582 61.23556504 326.61236572 73.28305054 C333.82286078 81.4592369 336.74603923 90.29781865 336.66699219 101.0607605 C336.66248857 101.95890142 336.65798496 102.85704234 336.65334487 103.78239965 C336.44076195 117.59403829 334.98740407 131.35852271 333.71562624 145.10428238 C333.3242512 149.3571639 332.94390482 153.61103513 332.56201172 157.86477661 C331.81485397 166.16690665 331.05744798 174.46806976 330.29601887 182.76890188 C329.67704068 189.51810691 329.06148522 196.26761591 328.44829559 203.01734924 C328.36063893 203.98212699 328.27298226 204.94690474 328.18266933 205.94091818 C328.00454565 207.90144122 327.82642459 209.8619645 327.6483061 211.82248801 C325.98279935 230.14893588 324.30501218 248.47424397 322.6233978 266.79921979 C321.0872939 283.54273104 319.56662957 300.28760268 318.05320385 317.03317767 C316.49535824 334.26870131 314.92715935 351.50325421 313.34777427 368.73681784 C312.46272544 378.39606259 311.58171543 388.0556338 310.71155548 397.7162323 C309.97140229 405.9321953 309.22143056 414.14719063 308.45893791 422.3611117 C308.07068046 426.54647306 307.68682151 430.73210926 307.31520081 434.91898346 C306.97424404 438.75902135 306.62019771 442.59762901 306.2561309 446.43554276 C306.06689832 448.46508002 305.89123709 450.49586894 305.71623063 452.52668238 C304.36028041 466.51525635 301.21053441 479.61495532 290.19439697 489.14242554 C276.46544539 498.86203728 262.22475352 498.97586809 246.09837341 497.45240784 C245.1269672 497.36468638 244.15556099 497.27696493 243.15471822 497.18658525 C239.93205773 496.89431638 236.71009978 496.59493979 233.48809814 496.29550171 C231.16443015 496.08321735 228.84072404 495.87134994 226.51698303 495.65986633 C220.22718735 495.08601507 213.93800211 494.50572132 207.64895034 493.9237802 C202.38845382 493.43750852 197.12769085 492.95415344 191.86693364 492.47071153 C178.74082713 491.26446871 165.61535404 490.05145904 152.49011514 488.83581672 C141.11985196 487.78294406 129.7487911 486.7389815 118.37732717 485.69916495 C106.67164472 484.62869565 94.96656097 483.55188376 83.26207429 482.46841604 C76.70272768 481.86140533 70.14317319 481.25692453 63.58299828 480.65892601 C57.41067994 480.09602411 51.23917656 479.52488941 45.06818962 478.94758034 C42.81191536 478.7378689 40.5553743 478.53100409 38.29854965 478.32730103 C0.75307887 474.93274762 0.75307887 474.93274762 -11.88763428 461.45101929 C-16.57326198 455.60444366 -18.60730179 449.84944443 -19.82513428 442.51742554 C-20.76564996 437.84802976 -20.76564996 437.84802976 -23.79779053 434.35336304 C-25.53075381 433.375794 -27.29138676 432.44580367 -29.07513428 431.56430054 C-37.3651926 427.36872224 -41.16181099 419.53708564 -44.63763428 411.26742554 C-45.78828198 407.67352898 -45.79494146 404.23823498 -45.84295654 400.4793396 C-45.85285614 399.80575912 -45.86275574 399.13217865 -45.87295532 398.43818665 C-45.90445086 396.21984325 -45.92928024 394.00147847 -45.95404053 391.78305054 C-45.97462039 390.24176488 -45.99561713 388.70048474 -46.01701355 387.15921021 C-46.07212768 383.10851515 -46.12158381 379.05777006 -46.16986084 375.00698853 C-46.22015383 370.87109948 -46.27579914 366.73528282 -46.33099365 362.59945679 C-46.4384448 354.48884097 -46.53991856 346.37816446 -46.63763428 338.26742554 C-52.02040724 343.57339589 -52.02040724 343.57339589 -57.08294678 349.18148804 C-60.77110628 353.45382897 -64.62560549 357.55130901 -68.51263428 361.64242554 C-72.98727958 366.35722382 -77.39410465 371.09374831 -81.63763428 376.01742554 C-88.01169091 383.14279683 -94.81578524 386.7902248 -104.45013428 387.57992554 C-113.07903901 387.29618979 -120.40026851 384.20158602 -126.63763428 378.26742554 C-132.98554315 370.24901433 -133.35181259 362.16389641 -132.63763428 352.26742554 C-131.12906579 344.34427171 -125.87863357 339.12391982 -119.94232178 334.03305054 C-115.67102616 330.32460469 -111.55290457 326.472933 -107.45013428 322.57992554 C-102.32911706 317.74000097 -97.19863971 312.91270609 -92.01263428 308.14242554 C-87.36895598 303.87053196 -82.74699031 299.57633723 -78.13763428 295.26742554 C-67.36535746 285.20089481 -56.51327756 275.2220684 -45.63763428 265.26742554 C-47.08884741 261.88126156 -48.69138952 259.51481702 -51.63763428 257.26742554 C-54.81027668 256.97121459 -54.81027668 256.97121459 -58.26263428 257.32992554 C-66.0136894 257.54769712 -71.38549584 255.92647611 -77.28997803 250.84555054 C-81.50983376 246.29544523 -82.47350884 241.3354061 -82.95013428 235.32992554 C-82.57355044 225.5199166 -77.28898025 219.93265949 -70.63763428 213.26742554 C-68.64359641 211.59253005 -66.62809674 209.9429135 -64.59387207 208.31706238 C-54.62842395 200.175185 -45.87186979 192.3151227 -44.25553632 178.9942469 C-43.58856655 171.16983691 -43.8302164 163.32911706 -44.13397694 155.49335074 C-44.27318509 151.19244501 -44.26871045 146.89147198 -44.28015137 142.58866882 C-44.32202084 134.46775214 -44.48197404 126.35405048 -44.68996215 118.2358616 C-44.98979812 106.32098162 -45.10800717 94.40394092 -45.22697067 82.48610401 C-45.24488008 80.71804556 -45.26285061 78.94998773 -45.28088379 77.18193054 C-45.28948008 76.31817348 -45.29807638 75.45441641 -45.30693316 74.56448489 C-45.36163375 69.47011408 -45.45044385 64.37781144 -45.57114935 59.2845844 C-45.64429196 56.11576698 -45.70192657 52.94676535 -45.75742531 49.77759552 C-45.78701042 48.31943338 -45.82384567 46.86139562 -45.86883354 45.4036274 C-46.25248233 32.86133084 -44.30804733 22.69699918 -35.63763428 13.26742554 C-25.28519354 2.78611625 -14.43437823 -0.04690032 0 0 Z M-23.45013428 25.01742554 C-24.26417725 25.93781616 -24.26417725 25.93781616 -25.09466553 26.87680054 C-30.05753335 34.56610461 -30.0554995 41.7533601 -29.97821045 50.66000366 C-29.97736293 52.00106792 -29.97784175 53.34213357 -29.97953796 54.68319702 C-29.98039449 58.30256635 -29.96282487 61.92163403 -29.94181609 65.54093361 C-29.92299166 69.33121819 -29.92129433 73.1215106 -29.91773987 76.91183472 C-29.90843626 84.07982636 -29.88384547 91.24767983 -29.8536914 98.41561079 C-29.82009474 106.58007125 -29.80364818 114.7445385 -29.78860509 122.90905094 C-29.75729428 139.69525654 -29.70456681 156.48132337 -29.63763428 173.26742554 C-28.73380005 172.94910767 -28.73380005 172.94910767 -27.81170654 172.62435913 C-26.61372437 172.21177856 -26.61372437 172.21177856 -25.39154053 171.79086304 C-24.60335937 171.51677612 -23.81517822 171.24268921 -23.00311279 170.96029663 C-16.56953206 169.07583981 -10.49248361 170.14483923 -4.63763428 173.26742554 C-0.2317362 176.77211719 2.87267471 180.83174807 4.36236572 186.26742554 C4.26482363 188.09749987 4.16249597 189.92809224 3.99747753 191.75331974 C3.4677143 198.65943217 4.00219158 202.96353563 8.56231689 208.50595093 C10.44233446 210.53419728 12.40890945 212.45220892 14.40533447 214.36508179 C15.45285051 215.41831343 16.49783559 216.47406766 17.54042053 217.53218079 C19.72098071 219.72720626 21.92691304 221.89157276 24.15606689 224.03720093 C26.99734107 226.77582393 29.76599342 229.57664043 32.51938915 232.40328312 C34.66198877 234.58890038 36.83743654 236.7392592 39.02422523 238.88058281 C40.05907631 239.90117706 41.08414122 240.93180313 42.09847069 241.97279549 C47.97277803 248.06575108 47.97277803 248.06575108 55.81173706 250.60528564 C59.24800092 250.36960687 59.24800092 250.36960687 62.44410706 249.71614075 C68.0681342 248.85138309 72.45095817 251.120581 77.17486572 253.95492554 C82.92365399 260.03221599 83.81198945 265.67942151 83.89361572 273.92367554 C82.36470066 283.54684683 75.82875413 289.39500785 69.19049072 295.97055054 C68.18345786 296.98028389 67.17701891 297.99060988 66.17114258 299.00149536 C64.06943984 301.10906692 61.9607475 303.20930737 59.84674072 305.30453491 C57.15229126 307.97619662 54.47620454 310.66542052 51.80513382 313.36043167 C49.7327428 315.4473517 47.65082576 317.5245593 45.56600189 319.59905243 C44.57600974 320.58639688 43.58892286 321.57666413 42.60495758 322.57001495 C30.95098077 334.31069687 30.95098077 334.31069687 22.05377197 335.83383179 C13.15767471 335.82272555 7.27848336 334.18354317 0.92486572 327.82992554 C-2.27356492 322.58449929 -2.77377663 318.38994533 -2.32513428 312.32992554 C-2.17295014 307.28076339 -2.17295014 307.28076339 -4.18841553 302.80258179 C-5.92368425 301.10208798 -7.62913797 299.63033375 -9.63763428 298.26742554 C-13.77564776 301.4970946 -17.23341096 304.91509286 -20.63372803 308.91195679 C-22.63763428 311.26742554 -22.63763428 311.26742554 -24.33683777 312.59156799 C-28.59232774 316.3489643 -30.05284318 319.64000361 -30.41618443 325.33640003 C-30.53097339 329.53536134 -30.49358309 333.72420631 -30.42669678 337.92367554 C-30.42124687 339.75395117 -30.41847291 341.58423653 -30.41824341 343.41452026 C-30.41053441 347.24114027 -30.37966946 351.06660569 -30.33050537 354.89291382 C-30.26824398 359.78195902 -30.24966415 364.66989945 -30.24671364 369.55930328 C-30.24199814 373.33591383 -30.22117147 377.11229262 -30.19483566 380.8888092 C-30.18282914 382.69080226 -30.17409636 384.49282037 -30.16878128 386.29484558 C-30.15748673 388.81933446 -30.12625355 391.34280701 -30.08929443 393.86703491 C-30.08908295 394.60181564 -30.08887146 395.33659637 -30.08865356 396.09364319 C-29.92270551 404.22562614 -27.14389998 410.53349141 -21.61029053 416.50180054 C-17.81515139 419.89863794 -13.78145728 422.26742554 -8.63763428 422.26742554 C-8.62828857 421.40987671 -8.61894287 420.55232788 -8.60931396 419.66879272 C-8.56522136 416.47769874 -8.50357371 413.28755798 -8.43011475 410.09701538 C-8.40194328 408.71790902 -8.38070956 407.33864236 -8.36663818 405.95932007 C-8.34515883 403.97319604 -8.29640296 401.98742645 -8.24700928 400.00180054 C-8.21558838 398.21080933 -8.21558838 398.21080933 -8.18353271 396.38363647 C-7.53813958 392.6994692 -6.57849586 391.50756665 -3.63763428 389.26742554 C-1.05950928 388.65805054 -1.05950928 388.65805054 1.61236572 388.51742554 C2.50439697 388.46070679 3.39642822 388.40398804 4.31549072 388.34555054 C4.99095947 388.31976929 5.66642822 388.29398804 6.36236572 388.26742554 C6.4010376 386.90810913 6.4010376 386.90810913 6.44049072 385.52133179 C6.89727386 375.71087574 7.77298294 368.32807017 15.11236572 361.39242554 C21.27276437 356.03443176 28.2387352 354.81736675 36.09820557 354.8633728 C37.34870445 354.85307793 37.34870445 354.85307793 38.62446594 354.84257507 C41.35758908 354.82439838 44.09013309 354.82813184 46.82330322 354.83383179 C48.7384764 354.82926523 50.65364795 354.82395824 52.56881714 354.81794739 C56.57493767 354.8090339 60.58085868 354.81141887 64.5869751 354.82138062 C69.70003586 354.83286105 74.81240502 354.81266388 79.92537498 354.78346348 C83.87871619 354.76504356 87.83189349 354.76540557 91.78526688 354.771101 C93.66936843 354.77125354 95.55348157 354.76526503 97.43754196 354.75280952 C118.63182742 354.63243133 118.63182742 354.63243133 127.01861572 361.41586304 C127.62705322 362.15062866 128.23549072 362.88539429 128.86236572 363.64242554 C129.49142822 364.37203491 130.12049072 365.10164429 130.76861572 365.85336304 C134.06891262 370.85234216 134.65389384 375.75108901 134.98736572 381.64242554 C135.09951416 383.5102771 135.09951416 383.5102771 135.21392822 385.41586304 C135.2629126 386.35687866 135.31189697 387.29789429 135.36236572 388.26742554 C136.03783447 388.29320679 136.71330322 388.31898804 137.40924072 388.34555054 C138.30127197 388.40226929 139.19330322 388.45898804 140.11236572 388.51742554 C140.99408447 388.56383179 141.87580322 388.61023804 142.78424072 388.65805054 C146.15051517 389.45371541 147.22782141 390.55759821 149.36236572 393.26742554 C149.90826416 396.38363647 149.90826416 396.38363647 149.97174072 400.00180054 C150.00396729 401.29730835 150.03619385 402.59281616 150.06939697 403.92758179 C150.08414041 405.29085855 150.09845795 406.65413999 150.11236572 408.01742554 C150.14053386 409.39636929 150.1704625 410.77527828 150.20220947 412.15414429 C150.27293297 415.5252977 150.32562076 418.89575834 150.36236572 422.26742554 C162.48021188 422.36022535 174.59797308 422.43124141 186.7161026 422.47467422 C192.34343545 422.4955229 197.97052465 422.52379122 203.59771729 422.56918335 C209.03124884 422.61273756 214.46454645 422.6365831 219.89823914 422.64693451 C221.96823304 422.65430865 224.03821457 422.66870865 226.10810852 422.69034576 C229.01410295 422.71950671 231.91913846 422.7233762 234.82525635 422.7215271 C236.10056717 422.74309875 236.10056717 422.74309875 237.40164185 422.7651062 C244.21363302 422.71839775 249.30809608 420.79192805 254.56939697 416.44320679 C255.09920166 415.82832397 255.62900635 415.21344116 256.17486572 414.57992554 C256.71756104 413.97793335 257.26025635 413.37594116 257.81939697 412.75570679 C262.9268462 404.51913677 262.79298289 395.91315367 262.75004578 386.47827148 C262.75422317 384.98103702 262.75970291 383.48380572 262.76636559 381.98658025 C262.7807858 377.88931628 262.77658623 373.79225405 262.76919878 369.69497919 C262.76446089 365.26950869 262.77698245 360.84408144 262.78721619 356.41862488 C262.8043975 347.75530407 262.80524556 339.09205582 262.80000328 330.4287224 C262.79595903 323.38573599 262.79740818 316.342771 262.80275154 309.29978561 C262.80349996 308.29672485 262.80424839 307.29366408 262.80501949 306.26020753 C262.80655099 304.22237337 262.80808934 302.18453922 262.80963445 300.14670508 C262.82335714 281.04341497 262.81792348 261.94016584 262.80644924 242.83687668 C262.7965176 225.36905156 262.80945677 207.90133238 262.83338343 190.43352361 C262.85777957 172.48744761 262.86738101 154.54142094 262.86073071 136.59532869 C262.85723957 126.52401739 262.85946359 116.45278755 262.87698174 106.3814888 C262.89171014 97.80784126 262.8923308 89.23433254 262.87491082 80.6606877 C262.86640364 76.28865018 262.86424434 71.91686058 262.87956238 67.54483604 C262.89342795 63.537675 262.88862259 59.53097385 262.86932314 55.52383928 C262.86556852 54.07910517 262.86846957 52.63433405 262.87893479 51.18963297 C262.94396898 41.51938954 262.35982549 32.39144215 256.21392822 24.51351929 C255.4791626 23.91668335 254.74439697 23.31984741 253.98736572 22.70492554 C252.89295166 21.77486694 252.89295166 21.77486694 251.77642822 20.82601929 C245.76924212 16.94759331 239.92443125 16.97791777 233.0138855 17 C231.97309762 16.99546889 230.93230975 16.99093777 229.85998285 16.98626935 C226.37326453 16.97361136 222.88670213 16.97524665 219.39996338 16.97689819 C216.89977314 16.97091387 214.39958476 16.96410855 211.8993988 16.95654297 C205.81347438 16.94070301 199.72761124 16.93443422 193.64167191 16.93331821 C188.69384191 16.93236702 183.74602466 16.92825316 178.7981987 16.92191696 C164.76309668 16.90430996 150.7280252 16.89507735 136.69291206 16.89657791 C135.93672239 16.89665782 135.18053273 16.89673773 134.40142822 16.89682007 C133.64431295 16.89690183 132.88719767 16.89698359 132.10713951 16.89706783 C119.83617227 16.89788079 107.56532775 16.87873922 95.294396 16.85054334 C82.68774033 16.82180508 70.08114449 16.80800353 57.47445524 16.80973089 C50.39950906 16.81039442 43.32469157 16.80491825 36.24977493 16.78337479 C29.59639642 16.76324432 22.94324322 16.76384629 16.28983498 16.77840805 C13.84854931 16.78050113 11.40724675 16.77576569 8.96599007 16.76368713 C5.63194411 16.74826024 2.29883881 16.75752693 -1.03518677 16.77294922 C-1.99998313 16.76266209 -2.9647795 16.75237497 -3.95881212 16.74177611 C-11.79391063 16.82180333 -18.24298022 18.88539983 -23.45013428 25.01742554 Z M278.36236572 76.26742554 C278.36176863 76.96363457 278.36117155 77.6598436 278.36055636 78.37714988 C278.32465052 119.65415984 278.26799326 160.93109602 278.18444477 202.20803838 C278.1744275 207.16590346 278.16458334 212.12376888 278.15484619 217.08163452 C278.15193413 218.56214663 278.15193413 218.56214663 278.14896324 220.07256808 C278.11795508 236.04715364 278.10096589 252.02172485 278.0891715 267.99633483 C278.07675382 284.3917788 278.04923845 300.78714749 278.00775266 317.18254393 C277.98263497 327.29670548 277.96924718 337.41074215 277.97093615 347.52493533 C277.97096594 354.46371951 277.95631046 361.40237663 277.93020144 368.34111128 C277.91557594 372.34245499 277.90733491 376.34353813 277.91656303 380.34490395 C277.92488104 384.01383446 277.91461089 387.68224262 277.8900291 391.35109588 C277.88170358 393.29546243 277.89284927 395.23988289 277.90486407 397.18423015 C277.7855907 409.42566692 274.23370653 420.49002884 265.36236572 429.24008179 C254.71738471 438.19327118 242.55862733 439.41144901 229.17510986 439.42564392 C228.17597124 439.4305819 227.17683262 439.43551988 226.14741707 439.44060749 C222.8141203 439.4559121 219.48084269 439.46432397 216.14752197 439.4727478 C213.75228203 439.48233186 211.35704377 439.49234225 208.96180725 439.50274658 C203.14222683 439.52694401 197.32264362 439.54670717 191.50304037 439.56449933 C184.72839617 439.58545176 177.95377673 439.61189588 171.17915344 439.63867079 C159.09879772 439.68627027 147.01843058 439.72955503 134.93804932 439.77011108 C123.20659497 439.809505 111.47515075 439.8509405 99.74371338 439.89511108 C99.01997524 439.89783536 98.2962371 439.90055963 97.55056751 439.90336645 C93.91960314 439.91704657 90.28863893 439.93076672 86.65767479 439.94450676 C56.55925953 440.05835137 26.46082253 440.165115 -3.63763428 440.26742554 C-3.17193667 441.55682542 -2.70175475 442.84460631 -2.22967529 444.13168335 C-1.83764671 445.20763763 -1.83764671 445.20763763 -1.43769836 446.30532837 C0.440358 450.91112075 4.14486969 454.06621599 8.45892811 456.40312576 C15.52269135 459.36641783 22.29167101 460.23778758 29.88653564 460.87973022 C31.22639508 461.00410652 32.56613006 461.12982973 33.90574837 461.25677681 C37.53859362 461.59721436 41.17288371 461.91886492 44.80772424 462.23718786 C48.68505048 462.58012833 52.56072865 462.94081752 56.43663025 463.29943848 C63.90000474 463.98729294 71.36470924 464.65943591 78.83001226 465.32599723 C87.40327524 466.09213638 95.97505646 466.87424667 104.54674006 467.65782905 C115.62835259 468.67071605 126.71023076 469.68059268 137.79302979 470.68041992 C138.62348997 470.75534444 139.45395015 470.83026895 140.3095758 470.90746391 C141.13436124 470.98187489 141.95914669 471.05628587 142.80892563 471.13295174 C159.17194582 472.6092782 175.53202711 474.11224344 191.88850594 475.65969849 C195.02769521 475.95657769 198.16698572 476.25235939 201.30632019 476.54769897 C202.29489171 476.64071037 203.28346323 476.73372177 204.30199146 476.8295517 C206.22242001 477.01021447 208.14284984 477.19086367 210.06328106 477.37149811 C214.55350172 477.79419627 219.04351306 478.21890375 223.53311157 478.64816284 C227.6267996 479.03928551 231.72109238 479.42331859 235.81595802 479.80190659 C237.2522726 479.93592233 238.68835963 480.07241071 240.12415123 480.21191788 C258.4459615 482.84554853 258.4459615 482.84554853 275.69049072 478.65023804 C285.57117093 470.47789973 287.40107682 461.30961581 288.58714932 448.87662953 C288.70427946 447.53943805 288.82121379 446.20222941 288.93797302 444.86500549 C289.07167955 443.42187836 289.20629075 441.97883482 289.34172136 440.53586847 C289.7090715 436.59381837 290.06360186 432.65070698 290.41593826 428.70729053 C290.7990094 424.44541361 291.19405535 420.18464427 291.58757019 415.92372131 C292.35578991 407.58484792 293.11297094 399.24500762 293.86635014 390.90478178 C294.7448543 381.18369605 295.63409147 371.46360106 296.52369408 361.74352578 C298.11121766 344.39346163 299.68865329 327.04249496 301.26055908 309.69100952 C302.78426893 292.87160083 304.31561572 276.05291012 305.85528564 259.23495483 C307.80145848 237.97654606 309.74087542 216.71753165 311.6747103 195.45799699 C312.29053781 188.69010567 312.90876011 181.92243555 313.52779198 175.15483665 C314.28274554 166.89978185 315.03327159 158.64433773 315.77833863 150.38838454 C316.1582208 146.17995332 316.53991108 141.97170844 316.92672729 137.76390839 C317.28143313 133.90470998 317.63061077 130.04505092 317.97555796 126.18496839 C318.10062378 124.7958972 318.22761963 123.40699798 318.35684767 122.01830783 C320.75931022 103.28960878 320.75931022 103.28960878 314.36236572 86.26742554 C308.10750303 79.10166052 300.671327 77.10760669 291.46392822 76.38070679 C288.69367517 76.27952626 285.94017439 76.25626245 283.16851807 76.26034546 C281.8183107 76.26187874 281.8183107 76.26187874 280.44082642 76.26344299 C279.41198837 76.26541435 279.41198837 76.26541435 278.36236572 76.26742554 Z M-22.30560303 189.2046814 C-23.00346924 189.84734955 -23.70133545 190.4900177 -24.42034912 191.15216064 C-25.15205322 191.85019806 -25.88375732 192.54823547 -26.63763428 193.26742554 C-27.36804932 193.95990387 -28.09846436 194.6523822 -28.85101318 195.36584473 C-33.92402432 200.22972618 -38.91200784 205.18145983 -43.90374756 210.12850952 C-45.73449153 211.93750952 -47.57148153 213.74020904 -49.41448975 215.53671265 C-52.08672684 218.14229799 -54.7389735 220.7668101 -57.38763428 223.39633179 C-58.62960571 224.59655724 -58.62960571 224.59655724 -59.89666748 225.82102966 C-61.02914917 226.95767311 -61.02914917 226.95767311 -62.18450928 228.11727905 C-62.85321045 228.77567276 -63.52191162 229.43406647 -64.21087646 230.1124115 C-66.10554925 232.97417712 -65.97871647 234.90209202 -65.63763428 238.26742554 C-64.59389406 240.31193572 -64.59389406 240.31193572 -62.63763428 241.26742554 C-58.76924596 240.8704513 -56.69290553 239.85354519 -53.86175537 237.23324585 C-53.17313416 236.59987305 -52.48451294 235.96650024 -51.77502441 235.31393433 C-48.16022979 231.85283996 -44.5856849 228.35795711 -41.05169678 224.81430054 C-40.26870209 224.03226257 -39.4857074 223.25022461 -38.6789856 222.44448853 C-37.03913638 220.80531511 -35.40053042 219.16489706 -33.76312256 217.52328491 C-31.25237631 215.00714553 -28.73628892 212.49643517 -26.21966553 209.98617554 C-24.62168823 208.38753806 -23.02402082 206.78859074 -21.42669678 205.18930054 C-20.67465973 204.43928772 -19.92262268 203.6892749 -19.14779663 202.91653442 C-18.45302216 202.21860779 -17.75824768 201.52068115 -17.04241943 200.80160522 C-16.43145416 200.18984436 -15.82048889 199.5780835 -15.19100952 198.94778442 C-13.44127498 197.14349956 -13.44127498 197.14349956 -11.63763428 194.26742554 C-11.98209025 189.75892372 -11.98209025 189.75892372 -14.63763428 186.26742554 C-19.01842863 186.26742554 -19.31187643 186.42431742 -22.30560303 189.2046814 Z M-9.01705933 215.40634155 C-9.54556488 215.93928833 -10.07407043 216.47223511 -10.61859131 217.02133179 C-11.21906281 217.62195435 -11.8195343 218.2225769 -12.4382019 218.84140015 C-13.08409271 219.49761353 -13.72998352 220.1538269 -14.39544678 220.82992554 C-15.05849823 221.49580688 -15.72154968 222.16168823 -16.4046936 222.8477478 C-18.52872845 224.98300935 -20.64571821 227.12510839 -22.76263428 229.26742554 C-24.19837469 230.71319252 -25.63456682 232.15851106 -27.07122803 233.60336304 C-30.598633 237.1528614 -34.11973325 240.70850862 -37.63763428 244.26742554 C-36.1307846 247.79981577 -34.08396816 250.06364213 -31.371521 252.7605896 C-30.49075897 253.64120056 -29.60999695 254.52181152 -28.70254517 255.42910767 C-27.74091077 256.38052985 -26.77916708 257.33184157 -25.81732178 258.28305054 C-24.83325321 259.26338683 -23.84962686 260.24416722 -22.86642456 261.22537231 C-20.28320714 263.8009702 -17.69403916 266.37050411 -15.10357666 268.93881226 C-12.45895808 271.56293621 -9.82002418 274.19276325 -7.18060303 276.82211304 C-2.00515356 281.97614224 3.17659695 287.1237771 8.36236572 292.26742554 C12.94900916 288.43181921 17.30891128 284.46103998 21.51470947 280.21273804 C22.05970596 279.6663266 22.60470245 279.11991516 23.16621399 278.5569458 C24.8798269 276.83780496 26.58990016 275.1151935 28.29986572 273.39242554 C29.47215776 272.21510916 30.64468187 271.0380238 31.81744385 269.86117554 C34.66843555 266.99925064 37.51626187 264.13421097 40.36236572 261.26742554 C35.55593041 255.48913638 30.4061462 250.15029034 25.09674072 244.83383179 C24.22213196 243.95589462 23.34752319 243.07795746 22.44641113 242.17341614 C20.60883612 240.33080277 18.76992513 238.48952085 16.92974854 236.64950562 C15.0415874 234.75987191 13.15560795 232.86837719 11.27349854 230.9727478 C8.55288577 228.23393143 5.82575086 225.50177798 3.09674072 222.77133179 C2.25093445 221.91834 1.40512817 221.06534821 0.53369141 220.18650818 C-0.24762146 219.40827194 -1.02893433 218.63003571 -1.83392334 217.82821655 C-2.52198059 217.13873428 -3.21003784 216.44925201 -3.91894531 215.73887634 C-6.01082883 213.94791605 -6.84041943 213.60920873 -9.01705933 215.40634155 Z M58.18536377 267.19223022 C57.24238581 268.21547546 56.30171661 269.2408496 55.36236572 270.26742554 C53.96512799 271.68061302 52.5619184 273.08790731 51.15460205 274.49105835 C50.36060501 275.28828308 49.56660797 276.08550781 48.74855042 276.90689087 C45.16921203 280.49955109 41.58728235 284.0896228 38.00518799 287.67953491 C36.11176404 289.57746019 34.21959661 291.47662584 32.32843018 293.37680054 C29.59858304 296.11871931 26.86557039 298.8574472 24.13189697 301.59555054 C23.28295364 302.44965515 22.43401031 303.30375977 21.55934143 304.18374634 C20.77480087 304.96836243 19.99026031 305.75297852 19.1819458 306.56137085 C18.49087234 307.25466492 17.79979889 307.94795898 17.08778381 308.66226196 C15.36236572 310.26742554 15.36236572 310.26742554 13.36236572 311.26742554 C13.69236572 313.57742554 14.02236572 315.88742554 14.36236572 318.26742554 C19.32735106 319.50729256 19.32735106 319.50729256 23.90579224 317.71968079 C25.07708176 316.54436546 25.07708176 316.54436546 26.27203369 315.3453064 C27.61779984 314.02284157 27.61779984 314.02284157 28.99075317 312.67366028 C29.94615657 311.69397945 30.90073713 310.71349559 31.85455322 309.73226929 C32.84967587 308.73491569 33.84620977 307.73896838 34.84408569 306.74436951 C36.92940921 304.65730429 39.00037666 302.55726034 41.06158447 300.44638062 C43.69936388 297.74627384 46.3648889 295.07579467 49.04110527 292.41384029 C51.10120077 290.36016852 53.14847245 288.29409539 55.19186783 286.22381783 C56.17018565 285.23464824 57.15179795 284.24872547 58.13677597 283.26618767 C59.51331658 281.88821399 60.87161113 280.4920865 62.22906494 279.0953064 C63.00515106 278.3061937 63.78123718 277.51708099 64.58084106 276.70405579 C66.68292966 273.82898323 67.15233501 271.79880855 67.36236572 268.26742554 C66.29891521 266.28712872 66.29891521 266.28712872 64.36236572 265.26742554 C60.37749574 264.82583894 60.37749574 264.82583894 58.18536377 267.19223022 Z M-33.98529053 277.55258179 C-34.55118896 278.13910522 -35.1170874 278.72562866 -35.70013428 279.32992554 C-38.25822227 281.92986364 -40.87185615 284.3898268 -43.63763428 286.76742554 C-46.24411036 289.01300493 -48.72697948 291.31294066 -51.13763428 293.76742554 C-54.17595845 296.86099197 -57.38528748 299.6884806 -60.66888428 302.51742554 C-62.56786499 304.20540839 -64.35769416 305.95512287 -66.13763428 307.76742554 C-69.17595845 310.86099197 -72.38528748 313.6884806 -75.66888428 316.51742554 C-77.56786499 318.20540839 -79.35769416 319.95512287 -81.13763428 321.76742554 C-84.17595845 324.86099197 -87.38528748 327.6884806 -90.66888428 330.51742554 C-92.56786499 332.20540839 -94.35769416 333.95512287 -96.13763428 335.76742554 C-98.54828907 338.22191042 -101.03115819 340.52184614 -103.63763428 342.76742554 C-111.91610824 349.29940624 -111.91610824 349.29940624 -116.63763428 358.26742554 C-116.55379526 362.2078595 -115.65909249 364.2312148 -113.63763428 367.64242554 C-110.67223679 370.23714834 -110.01493625 370.7676625 -106.32513428 371.07992554 C-100.49889173 370.65619881 -97.51609324 367.31710246 -93.63763428 363.26742554 C-92.52195068 362.18461304 -92.52195068 362.18461304 -91.38372803 361.07992554 C-87.14406832 356.94787141 -83.17000036 352.65769567 -79.31732178 348.16586304 C-77.11598034 345.67783528 -74.75674913 343.37548476 -72.38763428 341.04867554 C-70.55520941 339.18352879 -68.84410293 337.24814808 -67.13763428 335.26742554 C-64.35524096 332.03786187 -61.42743999 329.03419901 -58.38763428 326.04867554 C-56.55520941 324.18352879 -54.84410293 322.24814808 -53.13763428 320.26742554 C-50.35524096 317.03786187 -47.42743999 314.03419901 -44.38763428 311.04867554 C-41.9325603 308.54976095 -39.67685424 305.89349973 -37.39154053 303.24008179 C-35.14872828 300.7175424 -32.75604952 298.37351652 -30.34857178 296.00961304 C-27.61671412 293.22785844 -25.13894668 290.2567989 -22.63763428 287.26742554 C-24.04064575 284.08068591 -25.71528499 281.94521148 -28.20013428 279.51742554 C-29.13019287 278.59703491 -29.13019287 278.59703491 -30.07904053 277.65805054 C-32.07056474 275.80839428 -32.07056474 275.80839428 -33.98529053 277.55258179 Z M24.92486572 374.76742554 C22.68294766 379.15049917 22.68294766 379.15049917 23.36236572 388.26742554 C55.37236572 388.26742554 87.38236572 388.26742554 120.36236572 388.26742554 C120.70073398 381.13878277 120.70073398 381.13878277 118.36236572 375.26742554 C113.11914042 370.30015946 109.1854003 370.1427983 102.13458252 370.12216187 C101.41372467 370.11880325 100.69286682 370.11544464 99.95016479 370.11198425 C97.57062041 370.10249738 95.19114659 370.10053216 92.81158447 370.09945679 C91.15255199 370.09624222 89.4935198 370.092878 87.83448792 370.08937073 C84.35687605 370.08338483 80.87928902 370.08153023 77.40167236 370.0821228 C72.9565135 370.0822243 68.5115148 370.06858258 64.06639385 370.05135059 C60.63905615 370.04020313 57.21175682 370.03820445 53.78440285 370.03873253 C52.14623272 370.03755615 50.50806149 370.03315365 48.86990929 370.02540016 C46.57260475 370.01554634 44.27564318 370.01849955 41.97833252 370.02450562 C40.67357468 370.0230806 39.36881683 370.02165558 38.02452087 370.02018738 C32.75881709 370.37568376 28.67710858 370.91897133 24.92486572 374.76742554 Z M7.36236572 405.26742554 C7.36236572 410.87742554 7.36236572 416.48742554 7.36236572 422.26742554 C49.27236572 422.26742554 91.18236572 422.26742554 134.36236572 422.26742554 C134.36236572 416.65742554 134.36236572 411.04742554 134.36236572 405.26742554 C92.45236572 405.26742554 50.54236572 405.26742554 7.36236572 405.26742554 Z " fill="#1492FA" transform="translate(162.63763427734375,6.732574462890625)"/>
<path d="M0 0 C4.86623399 3.59750746 8.30619863 7.63227394 9.54453945 13.64320564 C10.05399283 17.39793308 10.16063027 21.08408722 10.17408752 24.86495972 C10.18383595 26.02565371 10.18383595 26.02565371 10.19378132 27.20979607 C10.21410092 29.79333695 10.22737003 32.3768624 10.24047852 34.96044922 C10.25329889 36.81712556 10.26643456 38.67379975 10.27986145 40.5304718 C10.39573424 57.47791938 10.45241251 74.42594661 10.49662876 91.37371635 C10.52982889 103.88585865 10.58932908 116.39727445 10.68413979 128.90910518 C10.74865938 137.72383065 10.78219429 146.53835919 10.79337829 155.35331166 C10.80090806 160.60901729 10.82182834 165.86384411 10.87640572 171.1192894 C10.92723646 176.07235162 10.93933397 181.02407952 10.92315483 185.97736168 C10.92375332 187.78321985 10.93777364 189.58913813 10.96710205 191.39475822 C11.15174805 203.40219643 9.2080538 211.94331202 3.01621521 222.29489732 C1.43579535 224.9466763 -0.01320669 227.66938159 -1.484375 230.3828125 C-2.56879113 232.29921535 -3.65724619 234.21333912 -4.75 236.125 C-5.30042969 237.09953125 -5.85085937 238.0740625 -6.41796875 239.078125 C-14.80082654 253.83356293 -14.80082654 253.83356293 -19 255 C-24.69032258 255.72258065 -24.69032258 255.72258065 -27 255 C-32.11039756 249.99977684 -35.07638513 243.64811631 -38.375 237.375 C-39.52334582 235.22191231 -40.67307097 233.06955968 -41.82421875 230.91796875 C-42.6447876 229.38148682 -42.6447876 229.38148682 -43.48193359 227.81396484 C-46.75814781 221.7410081 -50.17125522 215.74311716 -54 210 C-54.19770192 207.35722399 -54.27825169 204.8195345 -54.26742554 202.17622375 C-54.27195665 201.37076164 -54.27648776 200.56529952 -54.28115618 199.73542947 C-54.2938513 197.02709379 -54.29217651 194.3189579 -54.29052734 191.6105957 C-54.29650955 189.67241659 -54.30331438 187.73423986 -54.31088257 185.79606628 C-54.32858464 180.52313498 -54.33323982 175.25026856 -54.33451414 169.97731042 C-54.33641147 165.57639064 -54.34376739 161.17548603 -54.35085833 156.77457207 C-54.36715712 146.38917633 -54.37202606 136.00381527 -54.37060547 125.6184082 C-54.36940475 114.90694245 -54.39048926 104.19567843 -54.4220928 93.48426372 C-54.44825515 84.28924019 -54.45897273 75.09428253 -54.45769465 65.89922208 C-54.45718485 60.40705514 -54.46287742 54.91506726 -54.48405075 49.42293739 C-54.50343143 44.25433483 -54.50355861 39.0860821 -54.48901749 33.91746712 C-54.48692784 32.02283975 -54.49163953 30.12819051 -54.5037384 28.23360062 C-54.51921567 25.64155603 -54.50986671 23.05071386 -54.49447632 20.45869446 C-54.50476344 19.71363579 -54.51505057 18.96857711 -54.52564943 18.20094091 C-54.43952853 11.61105486 -52.32829791 6.29037775 -47.6015625 1.640625 C-34.43494724 -6.66264588 -13.77955231 -6.87974737 0 0 Z M-36 14 C-37.81989159 17.26710519 -37.81989159 17.26710519 -37 27 C-27.1 27 -17.2 27 -7 27 C-7 23.37 -7 19.74 -7 16 C-12.47380459 11.89464655 -15.58438877 11.84638529 -22.375 11.8125 C-24.30472656 11.79123047 -24.30472656 11.79123047 -26.2734375 11.76953125 C-29.91352288 11.99465183 -32.65928552 12.561777 -36 14 Z M-37 44 C-37 94.82 -37 145.64 -37 198 C-27.1 198 -17.2 198 -7 198 C-7 147.18 -7 96.36 -7 44 C-16.9 44 -26.8 44 -37 44 Z M-31 214 C-28.69 218.62 -26.38 223.24 -24 228 C-22.68 228 -21.36 228 -20 228 C-17.69 223.38 -15.38 218.76 -13 214 C-18.94 214 -24.88 214 -31 214 Z " fill="#1492FA" transform="translate(67,12)"/>
<path d="M0 0 C2.61408027 1.26543293 4.97639353 2.55304556 7.4375 4.0625 C8.87158262 4.89817188 10.30782902 5.73014036 11.74609375 6.55859375 C12.82286377 7.18096924 12.82286377 7.18096924 13.92138672 7.81591797 C30.8839976 17.47866906 49.99699914 23.10138056 69.40087891 24.93847656 C75.4617645 25.58127952 75.4617645 25.58127952 78.515625 27.95703125 C85.13847191 37.07216002 80.14499275 55.46440398 78.54345703 65.84814453 C73.76140297 93.58233948 62.14084144 119.72599755 45 142 C44.30519531 142.91910156 43.61039063 143.83820313 42.89453125 144.78515625 C32.91143734 157.50283123 21.19237905 168.67929741 8 178 C7.21625 178.5671875 6.4325 179.134375 5.625 179.71875 C1.53253306 182.50906837 -0.89396393 183.54116342 -6 183 C-14.42274146 178.72455586 -21.88096668 172.14780092 -29 166 C-30.45212891 164.75089844 -30.45212891 164.75089844 -31.93359375 163.4765625 C-64.66614904 134.73278679 -84.4544168 92.38204129 -87.75390625 49.12890625 C-87.8404031 47.7528776 -87.92268688 46.37657518 -88 45 C-88.07089844 43.79214844 -88.14179688 42.58429688 -88.21484375 41.33984375 C-88.38220406 35.83034226 -88.32330345 32.59191812 -85 28 C-81.90928488 25.93952325 -80.55852759 25.62473201 -76.9765625 25.17578125 C-75.9664209 25.03841553 -74.9562793 24.9010498 -73.91552734 24.75952148 C-72.82965332 24.61200439 -71.7437793 24.4644873 -70.625 24.3125 C-48.88749153 21.04610492 -27.93090331 13.32311988 -9.2109375 1.66796875 C-5.62086924 -0.19694506 -3.97269867 -0.6612621 0 0 Z M-9.3515625 20.09765625 C-10.19340088 20.56671387 -11.03523926 21.03577148 -11.90258789 21.51904297 C-12.80098389 22.02838379 -13.69937988 22.53772461 -14.625 23.0625 C-29.03085286 30.8981536 -43.68774546 35.13202318 -59.57421875 38.921875 C-63.41851531 39.84085679 -67.20859024 40.88338669 -71 42 C-71.69529619 81.40011757 -51.87890281 120.05866385 -25.09765625 147.94921875 C-20.06653965 153.01276279 -14.57654106 157.55425754 -9 162 C-8.29875 162.61617187 -7.5975 163.23234375 -6.875 163.8671875 C-5.08340052 165.18871403 -5.08340052 165.18871403 -3.03125 164.8984375 C23.26451831 153.2676169 44.19000555 118.58651847 54.25 92.875 C59.70453463 78.3999152 64.27907084 62.09310026 64.0625 46.5 C64.05347656 45.6440625 64.04445313 44.788125 64.03515625 43.90625 C64.02355469 43.2771875 64.01195312 42.648125 64 42 C63.30519531 41.85304688 62.61039063 41.70609375 61.89453125 41.5546875 C41.76535827 37.11555429 22.59521415 31.16364733 4.27612305 21.62744141 C-2.49420544 17.89682344 -2.49420544 17.89682344 -9.3515625 20.09765625 Z " fill="#1492FA" transform="translate(282,37)"/>
<path d="M0 0 C1.22310883 -0.0071553 2.44621765 -0.01431061 3.70639038 -0.02168274 C7.05811087 -0.0356958 10.40828905 -0.02726077 13.75988388 -0.00759244 C17.26807324 0.00879637 20.7762123 -0.00001914 24.28442383 -0.00511169 C30.17574773 -0.00963244 36.06675412 0.00623559 41.95800781 0.03417969 C48.76781935 0.06623187 55.57705824 0.06621603 62.38691044 0.04896492 C68.93944029 0.03309752 75.49176032 0.03983463 82.04428101 0.05690193 C84.83211863 0.06377211 87.61978804 0.06274045 90.40762329 0.05535698 C94.30061654 0.0462689 98.19302198 0.07023458 102.0859375 0.09765625 C103.24346527 0.09113037 104.40099304 0.08460449 105.59359741 0.07788086 C106.65349884 0.09060532 107.71340027 0.10332977 108.80541992 0.11643982 C110.18584724 0.1206502 110.18584724 0.1206502 111.59416199 0.12494564 C114.79782751 0.78712959 116.00461567 2.13034563 118.04296875 4.63110352 C118.57421875 6.63110352 118.57421875 6.63110352 118.54296875 8.63110352 C118.5584375 9.62110352 118.5584375 9.62110352 118.57421875 10.63110352 C117.80139182 13.54056959 116.33762251 14.72351299 114.04296875 16.63110352 C111.59416199 17.13726139 111.59416199 17.13726139 108.80541992 17.14576721 C107.74551849 17.15849167 106.68561707 17.17121613 105.59359741 17.18432617 C104.43606964 17.17780029 103.27854187 17.17127441 102.0859375 17.16455078 C100.86282867 17.17316635 99.63971985 17.18178192 98.37954712 17.19065857 C95.02804547 17.20947264 91.67753219 17.21021335 88.32605362 17.2013371 C85.52771773 17.19622628 82.72947051 17.20352039 79.93114376 17.21080917 C73.32999352 17.22780827 66.72907446 17.22424194 60.12792969 17.20751953 C53.3180586 17.19059148 46.50882819 17.20644135 39.69902706 17.23874241 C33.85090104 17.26543088 28.00297455 17.27271662 22.15479374 17.26422733 C18.66248923 17.25929659 15.17057036 17.26152107 11.67831421 17.28201485 C7.7852871 17.30376721 3.89303373 17.28498165 0 17.26220703 C-1.73629166 17.27974533 -1.73629166 17.27974533 -3.50765991 17.29763794 C-11.29466662 17.20467035 -11.29466662 17.20467035 -14.6730957 14.27915955 C-16.25230107 11.02212354 -16.55325758 9.20846151 -15.95703125 5.63110352 C-12.62891119 -1.23298591 -6.70232741 -0.06770028 0 0 Z " fill="#1492FA" transform="translate(279.95703125,292.368896484375)"/>
<path d="M0 0 C0.94914276 -0.00852997 1.89828552 -0.01705994 2.87619019 -0.02584839 C3.91575363 -0.02494202 4.95531708 -0.02403564 6.02638245 -0.02310181 C7.12254883 -0.02981903 8.21871521 -0.03653625 9.34809875 -0.04345703 C12.98122151 -0.06249631 16.61416014 -0.06636412 20.24732971 -0.06851196 C22.76694821 -0.0749353 25.28656595 -0.0816633 27.80618286 -0.08868408 C33.09135469 -0.10067139 38.37645758 -0.10444887 43.66163635 -0.10317993 C49.76987121 -0.10197811 55.87775295 -0.12308752 61.98589844 -0.15466726 C67.86293427 -0.18396913 73.73986217 -0.19115613 79.61697578 -0.18996048 C82.11728928 -0.19232506 84.61760523 -0.20119639 87.11787224 -0.21662521 C90.61111353 -0.23616422 94.10343973 -0.23049427 97.59669495 -0.21841431 C98.63423416 -0.22965332 99.67177338 -0.24089233 100.74075317 -0.25247192 C107.7412373 -0.19078158 107.7412373 -0.19078158 111.01675415 2.17279053 C112.48136368 4.42940211 112.9179398 5.5983797 112.87623596 8.26742554 C112.89170471 9.25742554 112.89170471 9.25742554 112.90748596 10.26742554 C112.07484913 13.40205833 111.03543537 14.34686018 108.37623596 16.26742554 C104.79520295 16.88016348 101.23781674 16.80296648 97.61256409 16.76913452 C96.51625168 16.77453751 95.41993927 16.77994049 94.29040527 16.7855072 C90.66249183 16.79802583 87.03536708 16.78148171 83.40748596 16.76351929 C80.88929706 16.7636742 78.37110792 16.76516191 75.85292053 16.76792908 C70.57365782 16.76931448 65.29459997 16.7571643 60.01539612 16.73397827 C53.91455832 16.70736889 47.81410083 16.70562165 41.71322489 16.71736664 C35.84095263 16.72815134 29.96881918 16.72185096 24.09655762 16.70781136 C21.59905396 16.70328973 19.10153911 16.70296624 16.60403442 16.70687675 C13.11575764 16.70978167 9.62810574 16.69331546 6.13990784 16.67147827 C4.58595558 16.67823074 4.58595558 16.67823074 3.00061035 16.68511963 C1.57483421 16.67026268 1.57483421 16.67026268 0.12025452 16.65510559 C-0.70416389 16.6526757 -1.52858231 16.6502458 -2.37798309 16.64774227 C-5.18890676 16.17172019 -6.56064094 15.21000268 -8.62376404 13.26742554 C-9.64182373 9.92237228 -9.79518631 7.89597387 -8.87376404 4.51742554 C-6.67115506 0.55272937 -4.23255736 0.01718832 0 0 Z " fill="#1492FA" transform="translate(285.62376403808594,247.73257446289063)"/>
<path d="M0 0 C1.99301736 1.58066894 2.86543351 2.73086702 4 5 C4.30810907 8.26718187 4.44835426 10.27672893 2.69482422 13.10546875 C2.0298291 13.79253906 1.36483398 14.47960937 0.6796875 15.1875 C-0.14305664 16.04730469 -0.96580078 16.90710938 -1.81347656 17.79296875 C-2.8745847 18.86303763 -3.93688941 19.93192053 -5 21 C-6.38790699 22.41255246 -7.77558382 23.82533109 -9.16308594 25.23828125 C-13.19631688 29.32973875 -17.25472113 33.39531614 -21.32226562 37.45263672 C-23.89310011 40.01806202 -26.45848451 42.58885194 -29.0234375 45.16015625 C-30.6585332 46.794592 -32.29393861 48.42871797 -33.9296875 50.0625 C-34.69529999 50.83013672 -35.46091248 51.59777344 -36.24972534 52.38867188 C-37.31696335 53.45118164 -37.31696335 53.45118164 -38.40576172 54.53515625 C-39.02925507 55.157854 -39.65274841 55.78055176 -40.2951355 56.42211914 C-43.00021261 58.92571365 -44.68217025 59.95879985 -48.375 60.4375 C-53.02809237 59.87591989 -53.82350118 58.37013155 -57 55 C-58.07839237 53.98788591 -59.16606136 52.98558566 -60.26171875 51.9921875 C-60.82310547 51.48042969 -61.38449219 50.96867187 -61.96289062 50.44140625 C-63.12294089 49.38777056 -64.28442606 48.33571275 -65.44726562 47.28515625 C-71.80876639 41.47523069 -71.80876639 41.47523069 -72.4375 36.625 C-72 33 -72 33 -69.875 30.0625 C-67 28 -67 28 -64.1875 27.25 C-60.08072134 28.21630086 -58.03328709 30.20127125 -55.02734375 33.078125 C-52.7891055 35.19992311 -50.41662931 37.08578895 -48 39 C-47.51806686 38.51362564 -47.03613373 38.02725128 -46.53959656 37.52613831 C-41.53315383 32.47552814 -36.51974781 27.43190871 -31.50219727 22.39233398 C-29.62929787 20.50936262 -27.75819551 18.6246021 -25.88891602 16.73803711 C-23.20536581 14.03029155 -20.5154681 11.32899696 -17.82421875 8.62890625 C-16.98662521 7.78099014 -16.14903168 6.93307404 -15.28605652 6.0594635 C-14.50547379 5.27872971 -13.72489105 4.49799591 -12.9206543 3.69360352 C-12.23448532 3.00299332 -11.54831635 2.31238312 -10.84135437 1.60084534 C-7.25237166 -1.51936136 -4.39227605 -1.09806901 0 0 Z " fill="#1492FA" transform="translate(313,91)"/>
<path d="M0 0 C0.76483704 -0.00700928 1.52967407 -0.01401855 2.31768799 -0.02124023 C4.83643292 -0.03879235 7.35404713 -0.02720928 9.87280273 -0.01367188 C11.62727575 -0.01636733 13.3817473 -0.0202502 15.13621521 -0.02526855 C18.80889136 -0.03115957 22.48117781 -0.02261258 26.15380859 -0.00390625 C30.86067699 0.01890012 35.56663389 0.00574739 40.27346897 -0.01819611 C43.89461638 -0.03265058 47.51554766 -0.02805005 51.13670158 -0.01768494 C52.87224371 -0.01501754 54.60780549 -0.01828788 56.34332466 -0.02760315 C58.76847452 -0.03776516 61.19214764 -0.02227509 63.6171875 0 C64.69189552 -0.01214539 64.69189552 -0.01214539 65.78831482 -0.02453613 C69.20857813 0.03365193 70.95558621 0.29252561 73.68736267 2.42492676 C75.37648146 4.6958294 75.78755223 5.72361069 75.74389648 8.51757812 C75.75936523 9.50757813 75.75936523 9.50757813 75.77514648 10.51757812 C74.9780176 13.51853394 73.68992946 14.61346966 71.24389648 16.51757812 C68.53009903 16.91240719 66.22138438 17.06534313 63.50952148 17.03515625 C62.34785461 17.04567017 62.34785461 17.04567017 61.16271973 17.05639648 C58.60607917 17.07398311 56.05054804 17.06235201 53.49389648 17.04882812 C51.71557401 17.05152286 49.93725298 17.05540513 48.15893555 17.0604248 C44.43320681 17.06632073 40.70786184 17.05775399 36.98217773 17.0390625 C32.20690362 17.01627271 27.43252872 17.02939531 22.6572876 17.05335236 C18.9855268 17.06780787 15.31397914 17.06320552 11.64221191 17.05284119 C9.88155002 17.05017321 8.12086877 17.05344617 6.36022949 17.0627594 C3.89905561 17.0729212 1.43933698 17.05743065 -1.02172852 17.03515625 C-1.74912231 17.04325317 -2.47651611 17.0513501 -3.22595215 17.05969238 C-6.66898242 17.0019753 -8.4517676 16.75470033 -11.20410156 14.61022949 C-12.87782212 12.3534581 -13.32402777 11.29479383 -13.31860352 8.51757812 C-13.34051758 7.85757812 -13.36243164 7.19757813 -13.38500977 6.51757812 C-11.447533 0.35616134 -5.55843863 -0.06299446 0 0 Z " fill="#1492FA" transform="translate(322.756103515625,336.482421875)"/>
<path d="M0 0 C1.05026367 -0.0038269 2.10052734 -0.00765381 3.18261719 -0.01159668 C5.40170247 -0.01431696 7.62081974 -0.00694777 9.83984375 0.00976562 C13.23770595 0.03117255 16.63345361 0.00996675 20.03125 -0.015625 C22.18750467 -0.01298175 24.34375802 -0.00785682 26.5 0 C27.51674805 -0.00809692 28.53349609 -0.01619385 29.58105469 -0.02453613 C36.61077417 0.06898232 36.61077417 0.06898232 39.88867188 2.43945312 C41.35641689 4.69476864 41.79171277 5.86163257 41.75 8.53125 C41.7603125 9.19125 41.770625 9.85125 41.78125 10.53125 C40.94570966 13.67681363 39.9261545 14.60751013 37.25 16.53125 C33.58795826 17.14874275 29.95241289 17.09130684 26.24609375 17.0625 C25.17126236 17.0663269 24.09643097 17.07015381 22.98902893 17.07409668 C20.71866926 17.07681694 18.4482783 17.06944784 16.17797852 17.05273438 C12.69672077 17.03130676 9.21752206 17.05254426 5.73632812 17.078125 C3.53124543 17.07548216 1.32616402 17.07035808 -0.87890625 17.0625 C-1.92268936 17.07059692 -2.96647247 17.07869385 -4.04188538 17.08703613 C-5.00976486 17.07442749 -5.97764435 17.06181885 -6.97485352 17.04882812 C-7.8266066 17.04564575 -8.67835968 17.04246338 -9.55592346 17.03918457 C-11.75 16.53125 -11.75 16.53125 -13.52134705 14.62390137 C-14.84004474 12.37788509 -15.18245835 11.11257641 -15.1875 8.53125 C-15.20683594 7.87125 -15.22617187 7.21125 -15.24609375 6.53125 C-13.36890244 -1.03663937 -6.30775571 -0.05023213 0 0 Z " fill="#1492FA" transform="translate(356.75,381.46875)"/>
</svg>
