<?xml version="1.0" encoding="UTF-8"?>
<svg version="1.1" xmlns="http://www.w3.org/2000/svg" width="512" height="512">
<path d="M0 0 C3.42540244 2.28360162 4.79762532 2.07259271 8.7421875 1.45849609 C12.73127906 0.64842754 16.60009115 -0.53119773 20.5 -1.6875 C30.21930597 -4.46189066 40.0067272 -6.48427074 49.9375 -8.3125 C50.63472168 -8.44119476 51.33194336 -8.56988953 52.05029297 -8.70248413 C80.81129656 -13.98412268 80.81129656 -13.98412268 88.5625 -10.3125 C89.7690625 -9.1678125 89.7690625 -9.1678125 91 -8 C92.1446875 -6.948125 92.1446875 -6.948125 93.3125 -5.875 C98.4178232 2.82295805 95.26267078 13.76060373 93.5625 23.125 C93.36151199 24.26217972 93.36151199 24.26217972 93.15646362 25.42233276 C80.40517985 97.31786893 80.40517985 97.31786893 59 114.1875 C57.7315625 115.19876953 57.7315625 115.19876953 56.4375 116.23046875 C54 118 54 118 51.91137695 118.86669922 C49.86620818 119.81795856 49.86620818 119.81795856 49.28979492 121.76147461 C49.18771729 122.46796143 49.08563965 123.17444824 48.98046875 123.90234375 C48.84938721 124.70051514 48.71830566 125.49868652 48.58325195 126.32104492 C48.45265381 127.1844751 48.32205566 128.04790527 48.1875 128.9375 C42.25186315 162.4459069 22.73091245 193.21773436 -5.23071289 212.77783203 C-35.07143428 233.01521777 -70.90849533 241.01933123 -106.60400391 234.81835938 C-110.44817336 234.02738429 -114.22295232 233.0625737 -118 232 C-119.25554687 231.67257812 -120.51109375 231.34515625 -121.8046875 231.0078125 C-155.36526704 221.12007186 -183.02517769 196.33211294 -199.625 166 C-215.97882193 134.97130602 -218.80781532 98.40288874 -208.75 64.9375 C-202.91373435 46.82794373 -192.82381043 22.38064899 -176 12 C-172.40093743 12 -170.13594736 12.24270176 -167.125 14.25 C-165.60101074 16.62064996 -165.13180019 18.16629587 -165 21 C-166.91610807 26.00317107 -169.42932425 28.7151891 -173 33 C-162.77 33 -152.54 33 -142 33 C-140.865625 30.009375 -139.73125 27.01875 -138.5625 23.9375 C-134.94217828 14.65198162 -130.44870546 6.32441112 -125 -2 C-129.42490717 -2 -132.77305935 0.39171509 -136.5546875 2.51171875 C-140.88606332 4.80866047 -144.12554959 5.4820885 -149 5 C-151.4375 3.4375 -151.4375 3.4375 -153 1 C-153.5625 -2.4375 -153.5625 -2.4375 -153 -6 C-149.19897573 -10.63828692 -144.82694156 -12.96318061 -139.5 -15.4375 C-138.67338867 -15.82365479 -137.84677734 -16.20980957 -136.99511719 -16.60766602 C-91.79254133 -36.97594331 -38.9656543 -30.24200035 0 0 Z M-95.8125 -7.75 C-96.47894531 -7.33234375 -97.14539063 -6.9146875 -97.83203125 -6.484375 C-110.14389805 1.94537164 -119.1409775 16.96011086 -124 31 C-124 31.99 -124 32.98 -124 34 C-112.78 34 -101.56 34 -90 34 C-90 19.48 -90 4.96 -90 -10 C-92.57722849 -10 -93.64529064 -9.12574284 -95.8125 -7.75 Z M-74 -10 C-74 4.52 -74 19.04 -74 34 C-62.78 34 -51.56 34 -40 34 C-40.91645344 29.40875049 -40.91645344 29.40875049 -42.63671875 25.328125 C-42.96373779 24.66796387 -43.29075684 24.00780273 -43.62768555 23.32763672 C-43.97742432 22.6420166 -44.32716309 21.95639648 -44.6875 21.25 C-45.04690674 20.5398877 -45.40631348 19.82977539 -45.77661133 19.09814453 C-48.49943487 13.80016781 -51.44117432 8.78636265 -55 4 C-56.11375 2.453125 -56.11375 2.453125 -57.25 0.875 C-61.98268078 -4.07280263 -67.30654228 -8.32663557 -74 -10 Z M-41 -4 C-40.48050781 -3.10539062 -39.96101562 -2.21078125 -39.42578125 -1.2890625 C-35.38603659 5.70295237 -31.49230783 12.71316539 -28 20 C-24.80375738 18.46162154 -21.78394426 16.71133468 -18.75 14.875 C-17.41195312 14.06675781 -17.41195312 14.06675781 -16.046875 13.2421875 C-15.37140625 12.83226563 -14.6959375 12.42234375 -14 12 C-15.47087933 7.21691832 -19.43754951 5.66420592 -23.5625 3.4375 C-24.28179687 3.04054932 -25.00109375 2.64359863 -25.7421875 2.23461914 C-30.70377369 -0.44787808 -35.53579297 -2.53637312 -41 -4 Z M66.046875 5.06640625 C65.07254013 5.23746132 65.07254013 5.23746132 64.07852173 5.41197205 C61.9673551 5.78686922 59.85854448 6.1731386 57.75 6.5625 C57.02468079 6.69527344 56.29936157 6.82804687 55.55206299 6.96484375 C36.00510924 10.56747476 16.0806168 14.49685278 -2 23 C-3.00933594 23.45890625 -4.01867187 23.9178125 -5.05859375 24.390625 C-16.68086998 30.13079942 -22.61280141 38.98914486 -27 51 C-30.55649038 62.98061968 -28.81866053 74.61654411 -24 86 C-22.79190586 88.18685515 -21.53771635 90.02293613 -20 92 C-18.989375 91.154375 -17.97875 90.30875 -16.9375 89.4375 C-16.08478516 88.72400391 -16.08478516 88.72400391 -15.21484375 87.99609375 C-14.48394531 87.33738281 -13.75304687 86.67867188 -13 86 C-12.41130127 85.55575684 -11.82260254 85.11151367 -11.21606445 84.65380859 C-8.15100992 82.09368291 -6.26041351 80.21759168 -5.40844727 76.23413086 C-5.23179243 73.05510421 -5.22643089 69.93264434 -5.3125 66.75 C-5.34690314 64.59916686 -5.36461238 62.44798286 -5.36328125 60.296875 C-5.38688721 59.35166992 -5.41049316 58.40646484 -5.43481445 57.43261719 C-5 55 -5 55 -3.16870117 53.18847656 C-0.26965849 51.59976332 1.74090207 51.65328745 5 52 C9.23830976 54.82553984 8.97715348 57.12180888 10 62 C15.75724122 57.22795514 21.00783912 52.07809795 26.25 46.75 C27.8361907 45.13830785 29.42463422 43.5288289 31.015625 41.921875 C31.70946289 41.21643555 32.40330078 40.51099609 33.11816406 39.78417969 C35.69575545 37.34035018 37.35970082 36.06811693 40.9375 35.6875 C44 36 44 36 46.375 37 C48.44505356 39.54775822 48.52975572 41.6207217 48.46337891 44.84765625 C47.57904465 48.95529102 44.53400833 51.29399257 41.5 54 C40.87996094 54.58394531 40.25992188 55.16789062 39.62109375 55.76953125 C38.0982854 57.19862832 36.55142064 58.60201656 35 60 C35.33 60.66 35.66 61.32 36 62 C38.52733235 62.65555119 38.52733235 62.65555119 41 63 C41.2506019 64.41303238 41.47461921 65.83079474 41.6875 67.25 C41.81511719 68.03890625 41.94273437 68.8278125 42.07421875 69.640625 C42 72 42 72 41.0859375 74.3515625 C39 76 39 76 35.02734375 75.6953125 C34.22192139 75.59355713 33.41649902 75.49180176 32.58666992 75.38696289 C25.70706672 74.70667405 20.0295203 75.18621813 14.46679688 79.58154297 C6.29062536 86.65474332 -0.93285247 94.84055764 -8 103 C1.45839766 110.75354338 11.95560424 112.84908273 24 112 C36.0560581 110.14280045 47.59256273 104.97798531 55 95 C71.67946406 68.27449553 75.43493103 34.5338774 80 4 C75.20047616 3.89564591 70.77211243 4.23400957 66.046875 5.06640625 Z M-185 50 C-191.83401551 64.80703361 -198 79.47185751 -198 96 C-182.82 96 -167.64 96 -152 96 C-151.14046071 87.22251191 -151.14046071 87.22251191 -150.2956543 78.44360352 C-149.32346313 68.79088937 -147.69912024 59.62834803 -146 50 C-158.87 50 -171.74 50 -185 50 Z M-130 50 C-133.31247751 65.73426817 -136 80.06346118 -136 96 C-120.82 96 -105.64 96 -90 96 C-90 80.82 -90 65.64 -90 50 C-103.2 50 -116.4 50 -130 50 Z M-74 50 C-74 65.18 -74 80.36 -74 96 C-61.79 96 -49.58 96 -37 96 C-37.99 93.03 -38.98 90.06 -40 87 C-44.12889049 74.54274919 -44.1861338 63.04747181 -43 50 C-53.23 50 -63.46 50 -74 50 Z M-198 112 C-197.36464151 119.6243019 -196.79793357 126.16580089 -194.8125 133.375 C-194.5969043 134.1779248 -194.38130859 134.98084961 -194.15917969 135.80810547 C-191.14044125 147.74538587 -191.14044125 147.74538587 -185 158 C-182.1156618 158.08865208 -179.25537842 158.11521296 -176.37109375 158.09765625 C-175.50686295 158.0962413 -174.64263214 158.09482635 -173.75221252 158.09336853 C-170.98060708 158.08775239 -168.2090812 158.07519719 -165.4375 158.0625 C-163.5631522 158.05748708 -161.68880315 158.05292381 -159.81445312 158.04882812 C-155.20960456 158.03777772 -150.60481579 158.0205023 -146 158 C-146.11069824 157.35264893 -146.22139648 156.70529785 -146.33544922 156.03833008 C-146.85641313 152.96431775 -147.36565177 149.88845755 -147.875 146.8125 C-148.04902344 145.79607422 -148.22304687 144.77964844 -148.40234375 143.73242188 C-150.14114161 133.1386349 -150.97330901 122.78025539 -152 112 C-167.18 112 -182.36 112 -198 112 Z M-136 112 C-136 119.17854219 -135.59198784 125.69409483 -134.6875 132.75 C-134.56955078 133.74515625 -134.45160156 134.7403125 -134.33007812 135.765625 C-133.37027334 143.40468669 -131.75200925 150.4079599 -130 158 C-116.8 158 -103.6 158 -90 158 C-90 142.82 -90 127.64 -90 112 C-105.18 112 -120.36 112 -136 112 Z M-74 112 C-74 127.18 -74 142.36 -74 158 C-60.8 158 -47.6 158 -34 158 C-30.47864949 141.50404304 -30.47864949 141.50404304 -29 125 C-32.96460853 128.25978923 -36.54537543 131.5757207 -40.0222168 135.35986328 C-46.91921497 142.74347043 -46.91921497 142.74347043 -51.5 142.9375 C-55 142 -55 142 -57 140.375 C-58.28444825 137.3244354 -58.3226807 135.29624461 -58 132 C-56.34765625 129.54296875 -56.34765625 129.54296875 -54.0625 127.1875 C-53.25039063 126.33671875 -52.43828125 125.4859375 -51.6015625 124.609375 C-44.43835616 117.42465753 -44.43835616 117.42465753 -41.65234375 114.71484375 C-39.88435628 113.27687726 -39.88435628 113.27687726 -40 112 C-51.22 112 -62.44 112 -74 112 Z M-12 120 C-13.23474258 122.46948517 -13.37740142 124.52894121 -13.68359375 127.27734375 C-13.80669922 128.34919922 -13.92980469 129.42105469 -14.05664062 130.52539062 C-14.18232422 131.65138672 -14.30800781 132.77738281 -14.4375 133.9375 C-14.68276468 136.13450057 -14.93143993 138.33112319 -15.18359375 140.52734375 C-15.29243896 141.50437256 -15.40128418 142.48140137 -15.51342773 143.48803711 C-16.18695811 148.34941917 -17.1220628 153.17134542 -18 158 C-5.13 158 7.74 158 21 158 C26.24376734 147.60987569 26.24376734 147.60987569 29.875 136.875 C30.08640625 136.13507813 30.2978125 135.39515625 30.515625 134.6328125 C31.61809244 130.87426767 31.61809244 130.87426767 32 127 C30.71867187 127.03480469 29.43734375 127.06960937 28.1171875 127.10546875 C13.69917887 127.37945844 1.31363992 126.04328817 -12 120 Z M-174 174 C-166.02665175 189.94669649 -148.29479955 200.97401608 -133 209 C-131.9378125 209.5671875 -130.875625 210.134375 -129.78125 210.71875 C-127.0562346 212.20920546 -127.0562346 212.20920546 -124 212 C-125.33681501 209.29502657 -126.72829414 206.62986051 -128.171875 203.98046875 C-133.46778644 194.16358199 -138.07111223 184.44257013 -142 174 C-152.56 174 -163.12 174 -174 174 Z M-125 174 C-118.14565879 191.48556432 -110.29878603 208.58640358 -93 218 C-92.01 218.33 -91.02 218.66 -90 219 C-90 204.15 -90 189.3 -90 174 C-101.55 174 -113.1 174 -125 174 Z M-74 174 C-74 188.85 -74 203.7 -74 219 C-57.22343869 211.81004515 -47.88284576 196.29289206 -41 180 C-40.34 178.02 -39.68 176.04 -39 174 C-50.55 174 -62.1 174 -74 174 Z M-22 174 C-23.65 177.96 -25.3 181.92 -27 186 C-28.30354555 188.77497196 -29.61496465 191.51832493 -31 194.25 C-31.3403125 194.92820801 -31.680625 195.60641602 -32.03125 196.30517578 C-34.43983582 201.04821953 -37.13227583 205.51918098 -40 210 C-40 210.66 -40 211.32 -40 212 C-21.97073442 209.2236938 -4.60097076 193.18963873 7 180 C8.32 178.02 9.64 176.04 11 174 C0.11 174 -10.78 174 -22 174 Z " fill="#1492FA" transform="translate(338,43)"/>
<path d="M0 0 C3.7532262 -0.29437068 7.12785962 -1.03622689 10.75 -2.0625 C18.56036526 -4.06050042 26.88462892 -4.05342861 34 0 C46.81722038 8.17815181 48.89969374 25.14446953 52.51953125 38.87890625 C53.02742641 40.78287641 53.53595701 42.68667717 54.04508972 44.59031677 C55.10317725 48.55340633 56.15572616 52.51790847 57.20385742 56.48364258 C58.54836309 61.57013381 59.90362688 66.65368042 61.26257801 71.73632908 C62.30966944 75.65505222 63.35278175 79.57482506 64.39450645 83.49497795 C64.89324689 85.37112976 65.39284711 87.24705322 65.89332008 89.12274361 C66.58870003 91.73261085 67.27910587 94.3437413 67.96801758 96.95532227 C68.27883522 98.11710999 68.27883522 98.11710999 68.59593201 99.30236816 C69.37849157 102.28642906 70 104.9005366 70 108 C82.54 107.67 95.08 107.34 108 107 C103.53894626 102.69612914 103.53894626 102.69612914 99.05541992 98.41577148 C93.30726836 92.7699854 90.63933303 87.36757225 90.0078125 79.25390625 C89.98177298 71.74150613 93.05132054 65.575229 98 60 C103.89053298 55.17526384 110.47000486 53.61969722 118 54 C126.37095558 55.61636976 132.44713598 60.20291373 138.41943359 66.14477539 C138.92439865 66.64462952 139.42936371 67.14448364 139.94963074 67.65948486 C141.60439501 69.300442 143.25171885 70.94862813 144.8984375 72.59765625 C146.05875326 73.75407811 147.21928977 74.91027853 148.3800354 76.06626892 C150.80918206 78.4879708 153.2344401 80.91348851 155.65722656 83.34155273 C158.73719976 86.42729538 161.82833291 89.5015752 164.92279625 92.57277775 C167.32354316 94.95866504 169.71719118 97.35158051 172.10896683 99.74645805 C173.24432192 100.8813053 174.3819928 102.0138413 175.52216721 103.14384651 C194.63917971 122.1112763 205.16008427 141.52049271 205.5625 168.75 C205.58948975 169.8937207 205.61647949 171.03744141 205.64428711 172.21582031 C205.60637448 180.27255583 205.60637448 180.27255583 202.69140625 183.76953125 C199.02019515 185.44795142 196.84853693 185.06903803 193 184 C190.18464668 182.02925267 189.67039654 180.27880823 189 177 C188.89141563 175.5544496 188.82343249 174.10546538 188.7890625 172.65625 C187.6989418 137.75540764 169.00621209 120.81638869 145.515625 97.33032227 C142.97768924 94.79248955 140.44679234 92.2477534 137.91744232 89.70136738 C135.95115924 87.72397974 133.98036223 85.75113953 132.008255 83.779562 C130.62040481 82.38996952 129.23709622 80.99584587 127.85388184 79.60163879 C127.01200317 78.76283676 126.17012451 77.92403473 125.30273438 77.05981445 C124.56615601 76.32181107 123.82957764 75.58380768 123.07067871 74.82344055 C119.95653571 72.08112491 118.1227723 70.93125884 113.9375 71.1875 C110.22090043 72.13561404 110.22090043 72.13561404 108 75 C107.23294057 79.310599 107.03961782 81.62116638 109.58221436 85.27160645 C111.93181163 87.82567025 114.37804731 90.22359906 116.8984375 92.609375 C117.80373199 93.49860657 118.70902649 94.38783813 119.64175415 95.30401611 C122.04415245 97.6582842 124.4617367 99.99424426 126.88946533 102.32220459 C130.30793934 105.60781051 133.69681198 108.92390886 137.08682251 112.23883057 C138.89154005 114.00017462 140.70317552 115.75446369 142.52230835 117.50091553 C143.34300812 118.2956427 144.16370789 119.09036987 145.00927734 119.90917969 C145.73319672 120.6045282 146.45711609 121.29987671 147.20297241 122.01629639 C148.97871302 123.97650172 150.07250163 125.53083391 151 128 C150.82357605 131.35205511 150.56269287 133.97391301 148.9375 136.9375 C145.74876039 138.68616366 142.48342304 138.75329436 139 138 C136.38354492 135.19580078 136.38354492 135.19580078 135.13630676 133.43283081 C131.90692604 128.95534215 128.52335122 125.6249835 123.06011963 124.27185059 C114.5086694 123.25633707 105.90152392 123.61497075 97.3125 123.875 C93.43690285 123.93873623 89.56182369 123.98391673 85.68583679 124.01565552 C83.28690512 124.04097902 80.88806793 124.08746465 78.49006653 124.15890503 C67.55389103 124.37958468 58.42674603 122.20718209 50 115 C44.5139825 108.24393295 40.28069548 100.54766329 36 93 C35.01435684 91.27684761 34.02870608 89.55369952 33.04260254 87.83081055 C32.02827127 86.0572918 31.01594934 84.28263779 30.00390625 82.5078125 C26.85682302 76.9931848 23.6765729 71.49767353 20.5 66 C16.66139089 59.35142208 12.82665981 52.70067705 9.00390625 46.04296875 C5.35201884 39.68592971 1.68300258 33.33905751 -2 27 C-2.45052734 26.22092285 -2.90105469 25.4418457 -3.36523438 24.63916016 C-4.46110457 22.75226933 -5.57016409 20.87423208 -6.6875 19 C-7.24824219 18.05125 -7.80898438 17.1025 -8.38671875 16.125 C-10.13580364 13.82112064 -11.27483101 12.91722614 -14 12 C-18.89997321 12.26727127 -21.91050332 13.39759302 -26 16 C-21.60628185 24.43152059 -17.04800533 32.73045448 -12.19458008 40.90625 C-8.34927264 47.38737863 -4.57402755 53.90742626 -0.8125 60.4375 C-0.17497803 61.54391846 0.46254395 62.65033691 1.11938477 63.7902832 C2.42793295 66.06173458 3.73628095 68.33330128 5.04443359 70.60498047 C6.95149581 73.91579285 8.86012956 77.22569261 10.76953125 80.53515625 C11.38618652 81.60403076 12.0028418 82.67290527 12.63818359 83.77416992 C13.8762071 85.91920068 15.11481095 88.06389659 16.35400391 90.20825195 C19.26274528 95.24378624 22.16505921 100.28266386 25.04275513 105.33599854 C26.05807658 107.11819143 27.07558275 108.89911912 28.09375 110.6796875 C29.36763063 112.9089786 30.63743911 115.14060369 31.90234375 117.375 C37.50299142 127.15746459 42.14107823 134.25273476 52 140 C52.82129395 140.48082031 53.64258789 140.96164062 54.48876953 141.45703125 C57.16717426 142.99537623 59.86206246 144.50069457 62.5625 146 C73.89711048 152.35078077 85.13723218 158.85196196 96.33544922 165.43994141 C98.74853039 166.85276793 101.17061257 168.24806884 103.59765625 169.63671875 C115.62663137 176.57117019 124.04416859 184.19348276 128.875 197.625 C132.21490248 210.90453913 129.44030565 225.42646055 127.5625 238.75 C127.32915885 240.47383415 127.0967326 242.19779239 126.86523438 243.921875 C125.19052961 256.23788156 125.19052961 256.23788156 124 261 C145.45 261 166.9 261 189 261 C188.88144192 244.81503389 188.88144192 244.81503389 188.72973633 228.63037109 C188.72097087 226.59473137 188.71332707 224.55908636 188.70703125 222.5234375 C188.6840094 220.95009644 188.6840094 220.95009644 188.66052246 219.3449707 C188.65855309 213.83467431 188.77015471 209.70857555 192 205 C195.09173752 203.45413124 197.59429552 203.70640479 201 204 C203.78464381 206.09349316 204.86655829 207.296258 205.52139282 210.74971008 C205.5306076 211.80337265 205.53982239 212.85703522 205.54931641 213.94262695 C205.56838043 215.14099686 205.58744446 216.33936676 205.60708618 217.5740509 C205.60526337 218.86574692 205.60344055 220.15744293 205.6015625 221.48828125 C205.60934248 222.83343533 205.61801308 224.17858453 205.62753296 225.52372742 C205.64244426 228.34239625 205.641887 231.16056411 205.63134766 233.97924805 C205.6197811 237.57766539 205.65356124 241.17401599 205.700037 244.77209187 C205.72962533 247.55101859 205.7312399 250.32945461 205.72501755 253.10851097 C205.72653336 255.0754695 205.75420085 257.04235223 205.78237915 259.0091095 C205.71365475 265.67229306 205.42885277 270.03608957 200.57992554 274.85929871 C196.87975929 277.53080716 192.83626538 277.15438057 188.48681641 277.16113281 C187.34240837 277.16858017 187.34240837 277.16858017 186.17488098 277.17617798 C183.65043232 277.19078546 181.12604649 277.19759901 178.6015625 277.203125 C176.84662881 277.20887734 175.09169513 277.21463507 173.33676147 277.22039795 C169.65647082 277.23090372 165.97620198 277.23674925 162.29589844 277.24023438 C157.58253361 277.24572011 152.86945751 277.26975154 148.15618324 277.29820633 C144.53076334 277.31683889 140.90541293 277.32203862 137.27994919 277.32357025 C135.54242752 277.3265956 133.80490705 277.33462018 132.0674324 277.34775543 C129.6353895 277.36483006 127.20405135 277.36293252 124.77197266 277.35644531 C124.05595383 277.3656601 123.339935 277.37487488 122.60221863 277.3843689 C118.21120541 277.34771996 115.51354927 276.64464332 112 274 C109.50438398 271.45110439 108.15593333 269.86813495 107.52148438 266.3359375 C107.78345004 255.60242538 109.31903721 245.10980622 110.86376953 234.50195312 C114.50365984 212.88194145 114.50365984 212.88194145 106.9609375 193.1171875 C103.46204934 189.03162873 98.9468491 186.67763524 94.3125 184.0625 C93.35496826 183.50965332 92.39743652 182.95680664 91.41088867 182.38720703 C89.35232161 181.20024074 87.29077283 180.0184335 85.2265625 178.84130859 C81.95650129 176.97517651 78.69589755 175.09344654 75.4375 173.20703125 C67.09429795 168.37931314 58.74204465 163.56753375 50.375 158.78125 C49.51414795 158.28705566 48.6532959 157.79286133 47.76635742 157.28369141 C46.19537565 156.38183439 44.62276761 155.48280069 43.0480957 154.58740234 C41.0146147 153.41826188 39.00408487 152.218721 37 151 C36.39849121 150.64969727 35.79698242 150.29939453 35.17724609 149.93847656 C26.24262704 144.25979834 21.527602 133.73300691 16.49264526 124.76751709 C15.46716396 122.94153172 14.43567031 121.11905801 13.40258789 119.29736328 C12.32596789 117.39888576 11.249632 115.5002564 10.17506409 113.60061646 C6.63178341 107.33798715 3.03895449 101.10433734 -0.5625 94.875 C-1.80338542 92.7265625 -3.04427083 90.578125 -4.28515625 88.4296875 C-4.89762207 87.36975586 -5.51008789 86.30982422 -6.14111328 85.21777344 C-9.88173676 78.74267264 -13.61708619 72.26452756 -17.35327148 65.78686523 C-20.25666649 60.75352531 -23.1608759 55.72066224 -26.06854248 50.68978882 C-27.09345403 48.91637392 -28.11806123 47.14278354 -29.14257812 45.36914062 C-30.42452738 43.15004227 -31.70704107 40.93126984 -32.99023438 38.71289062 C-34.13900371 36.72380604 -35.2841492 34.73262259 -36.42504883 32.73901367 C-37.44194305 30.97052255 -38.4721507 29.20958981 -39.51831055 27.45825195 C-43.05273943 21.42583395 -44.11543838 17.00976473 -43 10 C-40.34723186 3.4312408 -34.00360409 0.2458858 -28 -3 C-18.45978486 -6.78318876 -8.52964613 -5.68643075 0 0 Z M11 15 C12.6283754 21.18160343 15.94231001 26.31101563 19.1875 31.75 C20.44471527 33.87979242 21.7011982 36.01001726 22.95703125 38.140625 C23.61396973 39.25244141 24.2709082 40.36425781 24.94775391 41.50976562 C28.46688556 47.48129281 31.91700591 53.49294877 35.375 59.5 C36.04184426 60.65726491 36.70875342 61.81449243 37.37573242 62.97167969 C38.91772962 65.64745613 40.45915693 68.32355885 42 71 C43.09970796 67.68015107 42.87915137 65.57564802 41.98364258 62.21899414 C41.73620804 61.27443863 41.4887735 60.32988312 41.23384094 59.35670471 C40.81838264 57.83628822 40.81838264 57.83628822 40.39453125 56.28515625 C40.11405441 55.23726425 39.83357758 54.18937225 39.54460144 53.10972595 C38.94826424 50.89352925 38.34692068 48.67867452 37.7409668 46.46508789 C36.81812298 43.08310677 35.91887756 39.69545153 35.02148438 36.30664062 C34.43892263 34.15326046 33.85498326 32.00025242 33.26953125 29.84765625 C33.00268021 28.83606949 32.73582916 27.82448273 32.46089172 26.78224182 C31.05718239 21.7277979 29.84966438 17.77724156 26 14 C21.1143525 11.55717625 15.8308686 13.11478298 11 15 Z M43 71 C44 73 44 73 44 73 Z " fill="#1492FA" transform="translate(43,220)"/>
<path d="M0 0 C8.32348967 5.54496627 8.32348967 5.54496627 10.31640625 10.41796875 C12.06643741 19.96028645 8.23519895 26.54018839 3.44140625 34.54296875 C2.74271465 35.74741407 2.04611995 36.95307806 1.3515625 38.15991211 C-0.63365442 41.59531002 -2.65670399 45.00700283 -4.68359375 48.41796875 C-5.58375118 49.95732888 -6.48246509 51.49753526 -7.37890625 53.0390625 C-8.92281937 55.6857248 -10.4800776 58.32385722 -12.046875 60.95703125 C-15.37235221 66.56042793 -18.61848855 72.20957017 -21.87109375 77.85546875 C-22.50845459 78.96140381 -23.14581543 80.06733887 -23.80249023 81.20678711 C-25.76338906 84.61020878 -27.72356653 88.01404505 -29.68359375 91.41796875 C-34.05317269 99.00506562 -38.42617002 106.59015975 -42.80761719 114.17041016 C-44.08565091 116.38285219 -45.3622878 118.59610158 -46.63769531 120.81005859 C-48.54479386 124.1192119 -50.45732654 127.4251687 -52.37109375 130.73046875 C-52.94738525 131.73287598 -53.52367676 132.7352832 -54.11743164 133.76806641 C-61.69465924 146.82043018 -71.20820697 152.82298644 -84.30859375 159.98046875 C-95.99012206 166.44275795 -107.5473397 173.09378837 -119.046875 179.87402344 C-121.45715473 181.28537612 -123.87916076 182.6727505 -126.30859375 184.05078125 C-134.61023756 188.79961122 -142.19262622 193.36507817 -145.16113281 202.99829102 C-147.56433929 214.12828137 -144.80031298 226.31577332 -143.18359375 237.41796875 C-138.96994661 266.35356444 -138.96994661 266.35356444 -142.01171875 271.79296875 C-144.37906816 274.78330484 -146.03121915 276.20051055 -149.68359375 277.41796875 C-152.19695992 277.5240884 -154.68300971 277.5751991 -157.19677734 277.57910156 C-157.95971603 277.58406647 -158.72265472 277.58903137 -159.50871277 277.59414673 C-162.03316143 277.60875421 -164.55754726 277.61556776 -167.08203125 277.62109375 C-168.83696494 277.62684609 -170.59189862 277.63260382 -172.34683228 277.6383667 C-176.02712293 277.64887247 -179.70739177 277.654718 -183.38769531 277.65820312 C-188.10106014 277.66368886 -192.81413624 277.68772029 -197.52741051 277.71617508 C-201.15283041 277.73480764 -204.77818082 277.74000737 -208.40364456 277.741539 C-210.14116623 277.74456435 -211.8786867 277.75258893 -213.61616135 277.76572418 C-216.04820425 277.78279881 -218.4795424 277.78090127 -220.91162109 277.77441406 C-221.62763992 277.78362885 -222.34365875 277.79284363 -223.08137512 277.80233765 C-228.88271802 277.7539176 -231.71552945 276.1561718 -235.96374512 272.40412903 C-238.55607266 267.90309016 -238.24161372 263.74835678 -238.20117188 258.6394043 C-238.20818115 257.5524678 -238.21519043 256.46553131 -238.22241211 255.34565735 C-238.24002813 251.74840798 -238.22834679 248.15194508 -238.21484375 244.5546875 C-238.21753975 242.04425405 -238.22142308 239.53382161 -238.22644043 237.02339172 C-238.23234217 231.75338775 -238.22414213 226.48358691 -238.20507812 221.21362305 C-238.18581696 215.82773365 -238.18562565 210.44228531 -238.20507812 205.05639648 C-238.22842446 198.53418667 -238.23182093 192.01229841 -238.21885681 185.49006081 C-238.21620815 183.01642593 -238.21939294 180.54277706 -238.22877502 178.06915855 C-238.27711987 161.72335711 -237.95085716 146.04018984 -230.12109375 131.23046875 C-229.78303711 130.57594727 -229.44498047 129.92142578 -229.09667969 129.24707031 C-223.32836172 118.58473549 -211.67924611 102.91579493 -200.68359375 97.41796875 C-193.54223249 96.72686927 -193.54223249 96.72686927 -190.12109375 99.48046875 C-188.17283265 103.46169795 -188.48617676 105.14586566 -189.68359375 109.41796875 C-191.94010903 112.33168524 -194.59554808 114.74626677 -197.30859375 117.23046875 C-210.14020877 129.54188316 -220.36343847 144.02961031 -220.96206665 162.44850159 C-220.98528724 164.29442816 -220.99819955 166.14050452 -221.00244141 167.98657227 C-221.01248703 169.00225784 -221.02253265 170.01794342 -221.03288269 171.06440735 C-221.06355415 174.39189128 -221.0807051 177.71929534 -221.09765625 181.046875 C-221.1163808 183.36572448 -221.13595516 185.68456724 -221.15634155 188.00340271 C-221.2075327 194.08436103 -221.24722801 200.1653414 -221.28448486 206.24639893 C-221.33166969 213.55455227 -221.39321154 220.86259726 -221.45233154 228.17066193 C-221.54038497 239.25305349 -221.61026333 250.33542595 -221.68359375 261.41796875 C-200.23359375 261.41796875 -178.78359375 261.41796875 -156.68359375 261.41796875 C-158.66359375 248.54796875 -158.66359375 248.54796875 -160.68359375 235.41796875 C-163.24819584 217.72221431 -165.8077818 199.97434027 -154.49975586 184.63867188 C-148.24253207 176.98768282 -140.28959997 172.09560306 -131.74609375 167.35546875 C-130.02769159 166.38305775 -128.30929911 165.41062917 -126.59147644 164.43719482 C-124.81479589 163.43216971 -123.03556066 162.43179349 -121.25585938 161.43212891 C-112.28935653 156.38732472 -103.40126484 151.20344169 -94.50048828 146.04394531 C-91.98364583 144.59116574 -89.45850799 143.15443498 -86.9296875 141.72265625 C-85.59731122 140.95502565 -84.26524691 140.18685311 -82.93359375 139.41796875 C-81.845625 138.79921875 -80.75765625 138.18046875 -79.63671875 137.54296875 C-73.39849844 133.05409064 -69.71695282 127.1854564 -66.18359375 120.48046875 C-65.31364961 118.8736702 -64.44111378 117.26827294 -63.56640625 115.6640625 C-63.10266602 114.81312012 -62.63892578 113.96217773 -62.16113281 113.08544922 C-59.54206581 108.35710718 -56.79609821 103.7034088 -54.05859375 99.04296875 C-48.87474454 90.20097787 -43.75684347 81.32367127 -38.68359375 72.41796875 C-28.18090233 53.98889092 -17.45777586 35.68939278 -6.68359375 17.41796875 C-8.92428658 15.12692327 -10.59699782 13.44683406 -13.68359375 12.41796875 C-17.43846118 12.55207116 -19.80763332 12.66774984 -22.70581055 15.14990234 C-24.77208871 17.51945229 -26.27792423 19.84850649 -27.828125 22.58203125 C-28.70791016 24.12117188 -28.70791016 24.12117188 -29.60546875 25.69140625 C-30.54132813 27.35042969 -30.54132813 27.35042969 -31.49609375 29.04296875 C-32.16077643 30.21002405 -32.82615374 31.37668398 -33.4921875 32.54296875 C-34.87460178 34.96494965 -36.2540189 37.38860029 -37.63134766 39.81347656 C-40.78753402 45.36436379 -43.98759777 50.88994191 -47.18359375 56.41796875 C-51.00222191 63.02944458 -54.81516602 69.64400548 -58.609375 76.26953125 C-69.75575371 95.71134248 -69.75575371 95.71134248 -75.37109375 104.73046875 C-75.75692627 105.35195801 -76.14275879 105.97344727 -76.5402832 106.61376953 C-79.91001678 111.94962029 -82.94922256 116.34803172 -88.43359375 119.60546875 C-89.2328125 120.09402344 -90.03203125 120.58257812 -90.85546875 121.0859375 C-98.68345477 124.77287567 -105.99163745 124.58794022 -114.4765625 124.375 C-116.98890296 124.35144729 -119.50127801 124.33137474 -122.01367188 124.31445312 C-125.94096276 124.28185845 -129.86339039 124.23068619 -133.78930664 124.11987305 C-149.27197679 122.96248005 -149.27197679 122.96248005 -163.10009766 128.39208984 C-165.39853034 130.63068783 -167.22467051 133.00282343 -169.0715332 135.6159668 C-171.68359375 138.41796875 -171.68359375 138.41796875 -173.69174194 138.89370728 C-177.44030682 138.99552642 -179.29525678 138.74805518 -182.18359375 136.29296875 C-184.02766385 132.75850105 -184.53041844 131.34415593 -183.68359375 127.41796875 C-179.23865959 121.36516788 -173.52478261 116.22528932 -168.125 111.04296875 C-166.50611922 109.46591292 -164.88831125 107.88775521 -163.27148438 106.30859375 C-160.75060496 103.84958396 -158.22454366 101.39735152 -155.67993164 98.96289062 C-153.20543571 96.5913303 -150.75734589 94.19503523 -148.3125 91.79296875 C-147.54700333 91.07189941 -146.78150665 90.35083008 -145.99281311 89.60791016 C-141.41834334 85.09744085 -141.41834334 85.09744085 -140.13647461 79.015625 C-140.43518754 75.57330546 -140.43518754 75.57330546 -141.80859375 73.48046875 C-144.56601729 71.91792874 -146.49831654 71.48042517 -149.68359375 71.41796875 C-154.27865369 74.07261136 -157.80402856 77.3100093 -161.43359375 81.10546875 C-167.41952578 87.3080498 -167.41952578 87.3080498 -171.55859375 87.66796875 C-175.10590813 87.3841836 -176.35222121 87.09472982 -178.68359375 84.41796875 C-179.68631808 80.80816118 -180.22157174 78.54128194 -178.57421875 75.1015625 C-176.16971656 71.68856043 -173.43960158 68.80576668 -170.49609375 65.85546875 C-169.95662109 65.29150391 -169.41714844 64.72753906 -168.86132812 64.14648438 C-162.63199799 57.87313071 -156.27463968 54.83115979 -147.42578125 54.31640625 C-140.82203246 54.56098954 -134.6610087 57.10420913 -129.68359375 61.41796875 C-124.50405587 68.1537997 -122.00111908 74.28588289 -122.9453125 82.76953125 C-124.96084153 93.82720426 -132.68465509 99.41903009 -140.68359375 107.41796875 C-121.87359375 107.91296875 -121.87359375 107.91296875 -102.68359375 108.41796875 C-102.02359375 105.11796875 -101.36359375 101.81796875 -100.68359375 98.41796875 C-100.01545946 95.67588185 -99.33115849 92.94822372 -98.6081543 90.22119141 C-98.41106873 89.46847458 -98.21398315 88.71575775 -98.01092529 87.94023132 C-97.36736631 85.48661281 -96.7192428 83.03423425 -96.0703125 80.58203125 C-95.61430597 78.8538764 -95.15831774 77.12571673 -94.7023468 75.39755249 C-93.74894906 71.78785522 -92.792817 68.1788939 -91.83520508 64.5703125 C-90.61708666 59.97774819 -89.40966845 55.38244354 -88.20480633 50.78638649 C-87.26766405 47.21920413 -86.32281223 43.65409568 -85.37592506 40.08948898 C-84.9278534 38.39759362 -84.48254693 36.70496312 -84.04022789 35.01155472 C-76.65676885 6.78144988 -76.65676885 6.78144988 -66.68359375 0.41796875 C-59.91220127 -3.43950483 -52.22837474 -3.68800854 -44.74609375 -1.8671875 C-42.86987608 -1.31400919 -40.9948128 -0.75689591 -39.12109375 -0.1953125 C-33.48448904 1.2228717 -29.60531301 -1.01417772 -24.68359375 -3.58203125 C-16.0111394 -6.19613154 -7.68088524 -4.52803278 0 0 Z M-61.68359375 17.41796875 C-63.181947 20.67698558 -63.181947 20.67698558 -64.16015625 24.4609375 C-64.36194489 25.15744919 -64.56373352 25.85396088 -64.77163696 26.57157898 C-65.42632738 28.84916416 -66.05510845 31.13302765 -66.68359375 33.41796875 C-67.13118448 34.99337194 -67.58009167 36.56840166 -68.03027344 38.14306641 C-69.17646595 42.1776825 -70.28978364 46.22044326 -71.38818359 50.26831055 C-72.07088367 52.77560488 -72.76590796 55.27930224 -73.4609375 57.78320312 C-73.89788896 59.38651358 -74.33411557 60.99002179 -74.76953125 62.59375 C-74.97774506 63.33740311 -75.18595886 64.08105621 -75.40048218 64.84724426 C-76.56194468 69.12671657 -76.56194468 69.12671657 -75.68359375 73.41796875 C-75.12414062 72.39703125 -74.5646875 71.37609375 -73.98828125 70.32421875 C-68.96526743 61.20039339 -63.81855923 52.1573939 -58.55859375 43.16796875 C-57.96143555 42.14687012 -57.36427734 41.12577148 -56.74902344 40.07373047 C-55.59134404 38.09493611 -54.43347387 36.11625335 -53.27539062 34.13769531 C-51.11311816 30.44326046 -48.95200124 26.74838569 -46.80859375 23.04296875 C-46.19242188 21.98335937 -45.57625 20.92375 -44.94140625 19.83203125 C-43.52956858 17.57603738 -43.52956858 17.57603738 -43.68359375 15.41796875 C-50.77743579 12.64964015 -56.02172219 11.80991726 -61.68359375 17.41796875 Z " fill="#1492FA" transform="translate(501.68359375,219.58203125)"/>
</svg>
