<?xml version="1.0" standalone="no"?>
<!DOCTYPE svg PUBLIC "-//W3C//DTD SVG 20010904//EN"
 "http://www.w3.org/TR/2001/REC-SVG-20010904/DTD/svg10.dtd">
<svg version="1.0" xmlns="http://www.w3.org/2000/svg"
 width="512.000000pt" height="512.000000pt" viewBox="0 0 512.000000 512.000000"
 preserveAspectRatio="xMidYMid meet">

<g transform="translate(0.000000,512.000000) scale(0.100000,-0.100000)"
fill="#113b00ff" stroke="none">
<path d="M2303 4790 c-132 -19 -266 -120 -326 -247 -31 -65 -32 -73 -31 -188
l0 -120 57 -118 c44 -93 68 -130 114 -176 168 -167 427 -172 598 -10 94 89
135 185 135 316 0 83 -19 148 -81 278 -68 144 -191 244 -318 260 -25 3 -57 7
-71 9 -14 1 -48 -1 -77 -4z m213 -133 c75 -38 132 -108 182 -221 55 -126 54
-129 -4 -109 -56 19 -150 81 -232 152 -46 40 -71 54 -103 58 -51 7 -97 -15
-123 -59 -31 -51 -79 -100 -133 -135 -29 -18 -55 -33 -59 -33 -3 0 -4 30 -2
68 7 118 72 223 171 273 66 34 87 39 172 35 63 -2 91 -8 131 -29z m-112 -263
c101 -92 227 -165 309 -180 36 -6 38 -8 32 -38 -11 -56 -55 -133 -95 -170
-171 -154 -425 -105 -528 101 -48 95 -48 98 -5 124 79 47 143 102 179 155 20
30 42 54 47 54 5 0 32 -21 61 -46z"/>
<path d="M3621 4346 c-151 -59 -175 -79 -147 -121 19 -29 40 -31 96 -9 24 10
45 13 49 8 9 -11 61 -140 61 -153 0 -5 -36 -23 -79 -41 -85 -34 -105 -50 -121
-97 -9 -24 -7 -41 10 -86 23 -61 50 -88 81 -80 35 9 43 40 24 90 -10 25 -13
48 -9 53 8 7 368 150 379 150 2 0 13 -20 24 -45 22 -49 38 -60 75 -51 33 8 38
40 15 100 -37 97 -94 118 -201 75 -29 -12 -63 -25 -75 -30 -20 -7 -24 -2 -52
71 -17 44 -31 83 -31 88 0 4 17 14 38 21 48 17 72 39 72 66 0 28 -18 45 -49
45 -15 0 -86 -24 -160 -54z"/>
<path d="M3091 4155 c-163 -37 -225 -71 -214 -116 10 -38 38 -42 124 -14 157
49 276 55 381 20 53 -19 82 -10 91 26 7 28 -28 64 -79 79 -61 19 -229 22 -303
5z"/>
<path d="M4100 3927 c-25 -7 -157 -57 -293 -111 -273 -108 -305 -127 -343
-211 -48 -103 -47 -108 172 -669 107 -275 202 -511 210 -523 21 -34 59 -55 97
-55 32 0 730 266 789 300 29 17 58 67 58 100 0 37 -400 1045 -429 1082 -58 73
-173 111 -261 87z m128 -111 c15 -8 37 -25 49 -38 25 -27 416 -1020 405 -1030
-10 -10 -722 -288 -737 -288 -8 0 -22 24 -33 53 -11 28 -99 254 -196 501 -109
276 -176 462 -176 483 0 45 26 100 57 120 13 9 135 60 271 114 258 102 305
113 360 85z"/>
<path d="M4135 3580 c-11 -12 -15 -27 -11 -42 15 -59 246 -632 258 -639 34
-22 78 -3 78 35 0 30 -241 639 -258 654 -23 17 -46 15 -67 -8z"/>
<path d="M3937 3502 c-10 -10 -17 -23 -17 -27 0 -24 245 -633 261 -650 26 -26
73 -11 77 26 3 24 -227 629 -250 656 -15 19 -52 16 -71 -5z"/>
<path d="M3735 3416 c-15 -23 -10 -38 109 -342 117 -297 140 -344 172 -344 20
0 44 29 44 52 0 24 -223 600 -246 636 -19 30 -59 29 -79 -2z"/>
<path d="M2927 3905 c-38 -38 -18 -69 65 -101 87 -33 178 -101 238 -176 33
-43 52 -58 71 -58 128 -1 -20 208 -217 305 -90 45 -134 53 -157 30z"/>
<path d="M2496 3618 c-8 -13 -62 -133 -121 -268 -61 -138 -119 -257 -134 -272
-22 -22 -60 -36 -226 -78 -210 -54 -250 -72 -289 -123 -94 -125 -29 -302 124
-336 39 -9 76 -4 275 35 290 58 301 64 408 202 44 57 83 100 87 95 4 -4 60
-142 124 -306 l116 -299 0 -157 c0 -140 2 -160 18 -174 23 -21 46 -22 66 -1
13 13 16 44 16 187 0 162 -1 175 -27 239 -14 38 -24 71 -21 74 3 3 106 49 229
103 241 106 264 122 235 166 -9 14 -25 25 -36 25 -10 0 -116 -43 -236 -95
-119 -52 -222 -95 -229 -95 -6 0 -51 102 -100 228 -48 125 -94 237 -102 250
-11 17 -22 22 -44 20 -25 -3 -46 -24 -132 -137 -56 -74 -114 -143 -129 -154
-30 -22 -402 -106 -474 -107 -50 0 -88 27 -104 74 -14 43 -5 77 28 109 21 20
73 38 236 81 229 62 261 77 298 149 37 73 238 531 238 544 0 41 -71 57 -94 21z"/>
<path d="M1322 2855 c-111 -29 -209 -59 -218 -66 -11 -9 -14 -26 -12 -58 l3
-46 -205 -26 c-216 -28 -250 -38 -293 -88 -38 -45 -50 -94 -42 -164 8 -79 19
-97 54 -97 44 0 55 21 47 91 -7 75 9 113 56 127 18 6 113 20 211 33 197 24
197 24 197 -37 0 -16 6 -39 14 -50 14 -18 26 -19 253 -16 230 3 239 4 257 25
20 24 20 37 -11 266 -18 135 -31 162 -80 160 -16 0 -119 -24 -231 -54z m215
-151 c6 -49 12 -101 12 -116 l1 -28 -164 0 -164 0 -6 28 c-3 15 -8 50 -11 78
l-6 51 153 41 c84 22 158 39 163 38 6 -1 15 -43 22 -92z"/>
<path d="M2008 2459 c-30 -17 -21 -61 28 -135 173 -258 442 -487 684 -584 125
-50 222 -71 356 -77 165 -7 263 6 419 58 234 78 473 228 700 440 68 64 80 93
49 123 -27 27 -47 18 -130 -57 -465 -423 -893 -558 -1307 -410 -244 86 -500
296 -677 554 -68 98 -84 110 -122 88z"/>
<path d="M3674 2420 c-15 -6 -28 -28 -43 -77 -40 -129 -122 -206 -276 -259
-110 -38 -115 -43 -115 -124 0 -73 10 -90 51 -90 33 0 41 12 49 64 5 37 7 39
80 66 42 15 94 38 116 52 58 37 138 129 170 196 50 103 32 197 -32 172z"/>
<path d="M800 2180 c-11 -11 -20 -25 -20 -31 0 -20 67 -154 83 -168 25 -20 65
-6 73 25 12 46 -69 194 -107 194 -5 0 -18 -9 -29 -20z"/>
<path d="M529 2134 c-7 -8 -18 -51 -24 -95 -14 -93 -4 -119 45 -119 37 0 42 9
56 105 10 67 10 84 -2 103 -17 26 -56 29 -75 6z"/>
<path d="M995 1746 c-17 -25 -15 -29 61 -192 82 -174 106 -205 143 -184 42 22
36 49 -51 226 -74 151 -86 169 -110 172 -20 2 -31 -4 -43 -22z"/>
<path d="M469 1672 c-17 -14 -24 -46 -45 -191 -14 -96 -23 -184 -20 -197 9
-33 52 -43 76 -18 24 25 77 363 61 392 -14 27 -47 33 -72 14z"/>
<path d="M3646 1664 c-14 -14 -16 -76 -16 -535 0 -445 -2 -524 -15 -549 -16
-31 -61 -60 -94 -60 -11 0 -27 -7 -35 -16 -35 -34 -8 -84 45 -84 69 0 147 54
180 125 17 37 19 76 19 576 0 403 -3 538 -12 547 -17 17 -54 15 -72 -4z"/>
<path d="M3252 1568 c-9 -9 -12 -136 -12 -507 0 -296 -4 -510 -10 -532 -16
-57 -60 -92 -123 -97 -47 -4 -57 -1 -86 24 -62 52 -61 45 -61 587 0 370 -3
496 -12 505 -19 19 -66 15 -78 -7 -6 -13 -10 -195 -10 -523 l0 -503 24 -50
c75 -162 296 -187 403 -47 18 24 37 59 43 80 14 51 14 1036 0 1063 -12 22 -59
26 -78 7z"/>
<path d="M757 1422 c-15 -16 -14 -30 6 -170 26 -170 37 -193 84 -176 19 6 29
18 32 34 5 40 -30 283 -45 308 -17 27 -55 29 -77 4z"/>
<path d="M1278 1135 c-10 -23 -7 -36 30 -111 38 -75 45 -84 70 -84 62 0 66 36
14 140 -34 68 -40 75 -69 78 -27 3 -35 -1 -45 -23z"/>
<path d="M367 1005 c-8 -8 -20 -54 -27 -101 -12 -86 -12 -88 10 -106 28 -22
32 -22 59 0 28 23 52 181 32 206 -17 20 -55 21 -74 1z"/>
<path d="M836 884 c-19 -19 -21 -54 -3 -78 15 -20 62 -25 79 -8 15 15 14 68
-2 86 -16 20 -54 20 -74 0z"/>
</g>
</svg>
