<?xml version="1.0" encoding="UTF-8"?>
<svg version="1.1" xmlns="http://www.w3.org/2000/svg" width="512" height="512">
<path d="M0 0 C21.30365327 17.46340061 37.40288116 42.17062686 40.19921875 70.10546875 C41.53101964 97.82196002 36.85482638 119.21878589 23.64328003 143.52984619 C21.60640532 147.28375104 19.60104437 151.0544376 17.59375 154.82421875 C17.2036525 155.55601349 16.81355499 156.28780823 16.41163635 157.04177856 C1.70341825 184.68351621 -15.80078125 221.1292338 -15.80078125 253.10546875 C-13.62829425 254.82663211 -13.62829425 254.82663211 -10.80078125 256.29296875 C-0.83285218 262.33258688 4.85623431 270.34568723 9.19921875 281.10546875 C10.08568462 284.74296947 10.31686704 288.10523877 10.296875 291.84375 C10.29365234 292.91044922 10.29042969 293.97714844 10.28710938 295.07617188 C10.27873047 296.17896484 10.27035156 297.28175781 10.26171875 298.41796875 C10.25720703 299.54009766 10.25269531 300.66222656 10.24804688 301.81835938 C10.23629188 304.58078385 10.21985952 307.34309873 10.19921875 310.10546875 C11.2558522 310.0965863 12.31248566 310.08770386 13.40113831 310.07855225 C23.41809916 309.99703734 33.43499166 309.93729907 43.45221043 309.89822006 C48.60068784 309.8774529 53.74889491 309.84933678 58.8972168 309.80371094 C63.87691293 309.75986178 68.85635103 309.73625018 73.83622551 309.72595978 C75.72459912 309.71863786 77.61296057 309.70434256 79.50122261 309.68254852 C94.02536479 309.5217653 107.24478962 310.86565745 120.38671875 317.66796875 C121.04542969 318.0038501 121.70414062 318.33973145 122.3828125 318.68579102 C129.35524646 322.43465661 134.73624377 327.44621922 140.19921875 333.10546875 C140.9365625 333.811875 141.67390625 334.51828125 142.43359375 335.24609375 C146.71488081 339.59375736 149.66601617 344.3488755 152.44921875 349.73046875 C152.92536621 350.63381958 152.92536621 350.63381958 153.41113281 351.55541992 C160.28420163 365.62858844 160.83932099 379.4552834 160.72070312 394.8425293 C160.69905532 398.19326458 160.7207043 401.54190353 160.74609375 404.89257812 C160.74345375 407.03776511 160.73833559 409.18295081 160.73046875 411.328125 C160.73856567 412.32191666 160.7466626 413.31570831 160.75500488 414.33961487 C160.67507304 420.24892124 160.08410273 423.57860848 156.19921875 428.10546875 C151.61607688 432.2225284 146.1969074 431.44514965 140.38671875 431.29296875 C139.40767578 431.27943359 138.42863281 431.26589844 137.41992188 431.25195312 C135.0124525 431.21672187 132.60612311 431.1674614 130.19921875 431.10546875 C130.22016602 431.80518799 130.24111328 432.50490723 130.26269531 433.22583008 C130.34684809 436.45639139 130.39818946 439.68672101 130.44921875 442.91796875 C130.48273438 444.01818359 130.51625 445.11839844 130.55078125 446.25195312 C130.70146357 459.02227947 126.60433123 468.54000446 118.19921875 478.10546875 C110.41465099 485.42812499 100.41024748 491.34678151 89.49409962 491.36273766 C88.37425043 491.36918655 87.25440124 491.37563544 86.10061723 491.38227975 C84.88049414 491.37918255 83.66037105 491.37608535 82.40327454 491.37289429 C81.09917246 491.3774254 79.79507038 491.38195651 78.45145005 491.38662493 C74.83771374 491.3988461 71.22407008 491.39859551 67.61031783 491.39623618 C63.71036647 491.39582778 59.81044473 491.40686944 55.9105072 491.41635132 C48.27149306 491.43295811 40.63250979 491.43846074 32.99347911 491.43957607 C26.78232723 491.44052683 20.57118552 491.44463848 14.36003685 491.45097733 C-3.25680622 491.46858989 -20.87362493 491.47781633 -38.49047687 491.47631638 C-39.91481118 491.47619651 -39.91481118 491.47619651 -41.36791992 491.47607422 C-42.79399738 491.47595158 -42.79399738 491.47595158 -44.24888448 491.47582646 C-59.65084641 491.47501385 -75.05271048 491.49414515 -90.45464411 491.52235095 C-106.27619777 491.55109609 -122.09770373 491.56489031 -137.91928416 491.5631634 C-146.79904711 491.5625 -155.67870749 491.56797029 -164.55844688 491.5895195 C-172.12023626 491.60775289 -179.6818766 491.61206106 -187.24367847 491.59850065 C-191.09926958 491.59198147 -194.95457497 491.59181542 -198.8101387 491.60920715 C-202.99694707 491.62789816 -207.18309716 491.61535586 -211.36991882 491.59994507 C-212.5788883 491.61023219 -213.78785778 491.62051932 -215.0334627 491.63111818 C-227.6920547 491.52834671 -237.30832125 487.44643283 -246.80078125 479.10546875 C-254.24879798 471.18763279 -260.11044787 461.1431311 -259.99609375 450.05078125 C-259.98964844 448.9421875 -259.98320312 447.83359375 -259.9765625 446.69140625 C-259.95980469 445.54929687 -259.94304687 444.4071875 -259.92578125 443.23046875 C-259.91675781 442.06515625 -259.90773438 440.89984375 -259.8984375 439.69921875 C-259.87495557 436.83442298 -259.84211266 433.9700534 -259.80078125 431.10546875 C-260.70787842 431.13688965 -260.70787842 431.13688965 -261.63330078 431.16894531 C-264.39728896 431.2525582 -267.16101038 431.30426929 -269.92578125 431.35546875 C-270.87710938 431.38898438 -271.8284375 431.4225 -272.80859375 431.45703125 C-278.64857038 431.53814204 -282.29699102 431.23043551 -286.80078125 427.10546875 C-290.73210311 422.3384097 -290.2516628 417.30855447 -290.234375 411.42578125 C-290.24223778 409.85834671 -290.24223778 409.85834671 -290.2502594 408.25924683 C-290.25667852 406.04523606 -290.25534404 403.83119119 -290.24682617 401.6171875 C-290.23839789 398.27670004 -290.26694734 394.93797128 -290.29882812 391.59765625 C-290.33864793 379.81754757 -289.90197129 369.23348026 -285.80078125 358.10546875 C-285.50341064 357.29819336 -285.20604004 356.49091797 -284.8996582 355.65917969 C-284.09702195 353.68579287 -283.21720386 351.80922762 -282.23828125 349.91796875 C-281.9023999 349.25925781 -281.56651855 348.60054688 -281.22045898 347.921875 C-277.47159339 340.94944104 -272.46003078 335.56844373 -266.80078125 330.10546875 C-266.094375 329.368125 -265.38796875 328.63078125 -264.66015625 327.87109375 C-260.31249264 323.58980669 -255.5573745 320.63867133 -250.17578125 317.85546875 C-249.27243042 317.37932129 -249.27243042 317.37932129 -248.35083008 316.89355469 C-234.65247996 310.20354007 -221.22907237 309.54258872 -206.3046875 309.71484375 C-204.37557061 309.72232365 -202.446446 309.72800828 -200.51731873 309.73199463 C-195.49163043 309.74711349 -190.46642013 309.78627316 -185.44091797 309.83081055 C-180.29205792 309.87206351 -175.14311904 309.89006914 -169.99414062 309.91015625 C-159.92947991 309.95278368 -149.86517065 310.02086382 -139.80078125 310.10546875 C-139.82434692 309.09347412 -139.82434692 309.09347412 -139.84838867 308.06103516 C-139.91144204 304.95093451 -139.94999256 301.84096903 -139.98828125 298.73046875 C-140.01341797 297.66957031 -140.03855469 296.60867188 -140.06445312 295.515625 C-140.1825022 282.68762498 -136.52618534 272.19922536 -127.58984375 262.7734375 C-123.31521915 258.84165822 -118.96791888 255.74400712 -113.80078125 253.10546875 C-114.34341504 245.54840277 -115.68641096 238.34767322 -117.42578125 230.98046875 C-117.82555176 229.28301514 -117.82555176 229.28301514 -118.23339844 227.55126953 C-125.06433283 199.04937429 -134.29424258 171.85998038 -150.27978516 147.11914062 C-166.99278945 121.24825517 -174.39540554 92.63379969 -168.61328125 61.73046875 C-168.0616054 59.50844102 -167.45914776 57.29825397 -166.80078125 55.10546875 C-166.46046875 53.95820312 -166.12015625 52.8109375 -165.76953125 51.62890625 C-157.00595392 24.92368073 -138.84743607 3.29366195 -114.03515625 -9.96875 C-78.06920525 -28.1067306 -32.00450754 -25.10433903 0 0 Z M-118.33447266 31.62304688 C-132.42435438 45.86776246 -139.13954282 63.97322819 -139.23828125 83.73046875 C-138.9714888 104.16150019 -131.37607933 118.49559102 -120.87133789 135.47900391 C-99.13415607 170.66035235 -89.81967669 210.01099156 -81.80078125 250.10546875 C-70.58078125 250.10546875 -59.36078125 250.10546875 -47.80078125 250.10546875 C-46.81078125 245.19671875 -45.82078125 240.28796875 -44.80078125 235.23046875 C-40.1833338 213.11117638 -33.74876144 191.87377744 -24.80078125 171.10546875 C-24.45966309 170.30512207 -24.11854492 169.50477539 -23.76708984 168.68017578 C-17.17016679 153.28940374 -9.55078834 138.39656575 -1.3984375 123.7734375 C8.77341098 105.44803733 13.09709338 83.89531517 7.375 63.2578125 C3.72835016 53.4809141 -1.00520603 44.07139304 -7.80078125 36.10546875 C-8.22359375 35.54085937 -8.64640625 34.97625 -9.08203125 34.39453125 C-20.19413057 20.11677572 -38.24301941 12.51154328 -55.61328125 9.640625 C-78.94408461 6.81937296 -101.49261612 15.59534643 -118.33447266 31.62304688 Z M-106.23828125 285.35546875 C-110.97283493 293.68828324 -109.80078125 300.23515107 -109.80078125 310.10546875 C-80.10078125 310.10546875 -50.40078125 310.10546875 -19.80078125 310.10546875 C-18.96149734 295.62780982 -18.96149734 295.62780982 -25.05078125 283.66796875 C-32.48624926 279.44327102 -39.93713299 279.79858559 -48.29296875 279.8046875 C-49.59348175 279.80040237 -50.89399475 279.79611725 -52.23391724 279.79170227 C-54.97906588 279.78426955 -57.72408586 279.78450953 -60.46923828 279.78979492 C-63.96476456 279.79558222 -67.4597597 279.77866273 -70.95519829 279.75545025 C-74.31780933 279.73706269 -77.68030788 279.74090044 -81.04296875 279.7421875 C-82.28698456 279.73297775 -83.53100037 279.72376801 -84.81271362 279.71427917 C-92.57668027 279.7553329 -100.27745941 279.85317166 -106.23828125 285.35546875 Z M-249.80078125 357.10546875 C-260.15570164 370.9261176 -259.80078125 384.10498753 -259.80078125 401.10546875 C-131.10078125 401.10546875 -2.40078125 401.10546875 130.19921875 401.10546875 C130.19921875 381.72057877 129.72179425 366.77318744 115.87890625 352.51953125 C103.26353795 341.15466593 89.09598337 339.94949173 72.80851746 339.97175598 C71.58422871 339.96949042 70.35993997 339.96722487 69.09855157 339.96489066 C65.72156322 339.95967668 62.34462834 339.95890212 58.9676398 339.96008503 C55.31722377 339.96028992 51.66681555 339.95476194 48.0164032 339.95002747 C40.87277458 339.94173966 33.72915421 339.93897348 26.58552118 339.93841509 C20.77634086 339.93793908 14.96716325 339.93588012 9.15798378 339.93271446 C-7.32931483 339.92391334 -23.81660694 339.91929429 -40.30390791 339.92004494 C-41.63569395 339.92010487 -41.63569395 339.92010487 -42.99438477 339.92016602 C-43.88333196 339.9202069 -44.77227915 339.92024778 -45.68816414 339.9202899 C-60.09338389 339.92069631 -74.49857749 339.91112645 -88.90378968 339.89702765 C-103.71181691 339.88264949 -118.5198314 339.87575824 -133.32786578 339.87662143 C-141.63469878 339.87695287 -149.94150437 339.87422855 -158.24833107 339.86344337 C-165.32067317 339.85431946 -172.39297541 339.85217867 -179.46532086 339.8589528 C-183.06984723 339.86220834 -186.67429722 339.86230977 -190.27881622 339.85359955 C-194.19562212 339.84423246 -198.11231764 339.85053568 -202.02912903 339.85823059 C-203.718416 339.85051525 -203.718416 339.85051525 -205.44182998 339.84264404 C-223.14046005 339.91918661 -237.62542627 343.5904307 -249.80078125 357.10546875 Z M-229.80078125 431.10546875 C-230.64006516 445.58312768 -230.64006516 445.58312768 -224.55078125 457.54296875 C-217.47277308 461.5645643 -210.58286333 461.39251167 -202.63040161 461.36616516 C-201.40570502 461.36999071 -200.18100843 461.37381626 -198.91919982 461.37775773 C-195.531844 461.38627537 -192.14470586 461.38586005 -188.75735641 461.38157713 C-185.09945652 461.37910699 -181.44158197 461.38812766 -177.78369141 461.39561462 C-170.62207125 461.40835571 -163.4604886 461.41015605 -156.29885902 461.40781436 C-150.47673017 461.40603035 -144.65461269 461.40778262 -138.8324852 461.4120388 C-138.00342376 461.41263399 -137.17436233 461.41322918 -136.32017782 461.41384241 C-134.63586013 461.41505418 -132.95154245 461.41626831 -131.26722477 461.41748478 C-115.47603327 461.42835808 -99.68486313 461.42619884 -83.89367042 461.42009994 C-69.4539485 461.41493117 -55.01429404 461.42618554 -40.57458545 461.44519816 C-25.74064121 461.46457982 -10.90672889 461.47283197 3.92722809 461.4690749 C12.25245072 461.46716333 20.57761593 461.46964612 28.90282822 461.48378944 C35.990328 461.49570841 43.07773502 461.49710237 50.1652361 461.48499928 C53.77953561 461.47911415 57.39366548 461.47800089 61.00795364 461.49000168 C64.93034355 461.50287385 68.852477 461.49238723 72.77487183 461.47969055 C73.9111659 461.48706484 75.04745998 461.49443912 76.21818721 461.50203687 C83.63636861 461.45153775 90.96502186 461.09088126 96.63671875 455.85546875 C101.37127243 447.52265426 100.19921875 440.97578643 100.19921875 431.10546875 C-8.70078125 431.10546875 -117.60078125 431.10546875 -229.80078125 431.10546875 Z " fill="#1492FA" transform="translate(320.80078125,20.89453125)"/>
</svg>
