<?xml version="1.0" standalone="no"?>
<!DOCTYPE svg PUBLIC "-//W3C//DTD SVG 20010904//EN"
 "http://www.w3.org/TR/2001/REC-SVG-20010904/DTD/svg10.dtd">
<svg version="1.0" xmlns="http://www.w3.org/2000/svg"
 width="512.000000pt" height="512.000000pt" viewBox="0 0 512.000000 512.000000"
 preserveAspectRatio="xMidYMid meet">

<g transform="translate(0.000000,512.000000) scale(0.100000,-0.100000)"
fill="rgba(240, 0, 0, 1)" stroke="none">
<path d="M1113 4830 c-38 -15 -43 -41 -43 -220 0 -168 0 -171 25 -195 l24 -25
1441 0 1441 0 24 25 c25 24 25 27 25 187 0 90 -3 173 -6 186 -15 54 55 52
-1486 51 -795 0 -1433 -4 -1445 -9z"/>
<path d="M1320 2335 l0 -1905 -75 0 -75 0 0 1215 0 1215 -440 0 -440 0 0
-1215 0 -1215 -49 0 c-42 0 -53 -4 -70 -26 -28 -35 -26 -69 4 -99 l24 -25
2361 0 2361 0 24 25 c30 30 32 64 4 99 -17 22 -28 26 -70 26 l-49 0 0 1215 0
1215 -440 0 -440 0 0 -1215 0 -1215 -75 0 -75 0 0 1905 0 1905 -1240 0 -1240
0 0 -1905z m1377 1612 c14 -14 19 -38 21 -106 l4 -89 89 -4 c123 -4 124 -6
124 -157 0 -152 1 -151 -120 -151 l-93 0 -4 -95 c-4 -130 -5 -130 -158 -130
-153 0 -154 0 -158 130 l-4 95 -93 0 c-121 0 -120 -1 -120 151 0 151 1 153
125 157 l90 4 0 73 c0 86 11 122 42 135 13 5 71 9 130 7 88 -2 111 -5 125 -20z
m-705 -1054 c17 -15 18 -37 18 -271 0 -224 -2 -258 -17 -274 -14 -16 -34 -18
-172 -18 -86 0 -161 4 -167 8 -30 20 -34 55 -34 285 0 222 1 236 21 261 l20
26 156 0 c132 0 159 -3 175 -17z m744 -4 c17 -19 19 -41 22 -243 3 -235 0
-276 -24 -301 -23 -22 -325 -22 -348 0 -24 25 -27 66 -24 301 4 286 -12 264
198 264 147 0 158 -1 176 -21z m743 -5 c20 -25 21 -39 21 -261 0 -230 -4 -265
-34 -285 -6 -4 -80 -8 -165 -8 -130 0 -157 3 -173 17 -17 15 -18 37 -18 271 0
224 2 258 17 274 14 16 34 18 174 18 l158 0 20 -26z m-2614 -319 c25 -24 25
-27 25 -199 0 -107 -4 -185 -11 -199 -17 -37 -50 -47 -155 -47 -92 0 -97 1
-125 29 l-29 29 0 172 c0 237 2 239 163 240 101 0 109 -1 132 -25z m3646 12
c34 -26 39 -54 39 -227 l0 -172 -29 -29 c-28 -28 -33 -29 -125 -29 -105 0
-138 10 -155 47 -7 14 -11 92 -11 199 0 172 0 175 25 199 23 24 31 25 132 25
69 -1 114 -5 124 -13z m-2523 -503 c22 -15 22 -18 22 -274 0 -222 -2 -261 -16
-274 -22 -22 -320 -24 -350 -2 -18 13 -19 30 -22 263 -3 241 -2 250 18 276
l21 27 153 0 c121 0 156 -3 174 -16z m743 -3 c24 -19 24 -22 27 -243 3 -237 0
-278 -24 -303 -23 -22 -325 -22 -348 0 -24 25 -27 66 -24 303 4 282 -11 262
198 262 131 0 151 -2 171 -19z m748 -7 c20 -25 21 -39 21 -261 0 -230 -4 -265
-34 -285 -6 -4 -82 -8 -168 -8 -129 0 -159 3 -172 16 -14 13 -16 52 -16 274 0
256 0 259 22 274 18 13 53 16 174 16 l153 0 20 -26z m-2613 -248 c23 -26 24
-32 24 -206 0 -174 -1 -180 -24 -206 -21 -26 -30 -28 -112 -32 -106 -5 -158
11 -175 55 -6 17 -9 95 -7 199 4 226 2 224 177 220 89 -2 95 -4 117 -30z
m3657 6 c21 -21 22 -32 25 -195 2 -105 -1 -183 -7 -200 -17 -44 -69 -60 -175
-55 -82 4 -91 6 -112 32 -23 26 -24 33 -24 205 0 240 1 241 178 237 81 -2 95
-5 115 -24z m-2535 -568 c22 -15 22 -18 22 -274 0 -222 -2 -261 -16 -274 -22
-22 -320 -24 -350 -2 -18 13 -19 30 -22 265 l-3 251 25 25 c25 24 28 25 173
25 118 0 153 -3 171 -16z m743 -3 c24 -19 24 -22 27 -243 3 -237 0 -278 -24
-303 -23 -22 -325 -22 -348 0 -24 25 -27 66 -24 303 4 282 -11 262 198 262
131 0 151 -2 171 -19z m745 -6 l25 -25 -3 -251 c-3 -235 -4 -252 -22 -265 -30
-22 -328 -20 -350 2 -14 13 -16 52 -16 274 0 256 0 259 22 274 18 13 53 16
171 16 145 0 148 -1 173 -25z m-2633 -156 c41 -19 47 -48 47 -235 0 -172 0
-175 -25 -199 -23 -24 -31 -25 -132 -25 -161 1 -163 3 -163 240 l0 172 29 29
c28 28 33 29 125 29 52 0 106 -5 119 -11z m3678 -18 l29 -29 0 -172 c0 -237
-2 -239 -163 -240 -101 0 -109 1 -132 25 -25 24 -25 27 -25 199 0 184 6 216
44 234 11 6 65 11 119 11 96 1 99 0 128 -28z"/>
<path d="M212 3437 c-21 -22 -22 -32 -22 -198 0 -163 1 -177 20 -197 l21 -22
469 0 470 0 0 220 0 220 -468 0 -469 0 -21 -23z"/>
<path d="M3950 3240 l0 -220 470 0 469 0 21 22 c19 20 20 34 20 198 0 172 -1
177 -23 198 -23 22 -25 22 -490 22 l-467 0 0 -220z"/>
</g>
</svg>
