<?xml version="1.0" encoding="UTF-8"?>
<svg version="1.1" xmlns="http://www.w3.org/2000/svg" width="512" height="512">
<path d="M0 0 C73.92 0 147.84 0 224 0 C224 75.57 224 151.14 224 229 C150.08 229 76.16 229 0 229 C0 153.43 0 77.86 0 0 Z M22 12 C22 21.9 22 31.8 22 42 C31.9 42 41.8 42 52 42 C52 32.1 52 22.2 52 12 C42.1 12 32.2 12 22 12 Z M72 12 C72 21.9 72 31.8 72 42 C81.9 42 91.8 42 102 42 C102 32.1 102 22.2 102 12 C92.1 12 82.2 12 72 12 Z M122 12 C122 21.9 122 31.8 122 42 C131.9 42 141.8 42 152 42 C152 32.1 152 22.2 152 12 C142.1 12 132.2 12 122 12 Z M172 12 C172 21.9 172 31.8 172 42 C181.9 42 191.8 42 202 42 C202 32.1 202 22.2 202 12 C192.1 12 182.2 12 172 12 Z M22 64 C22 73.57 22 83.14 22 93 C31.9 93 41.8 93 52 93 C52 83.43 52 73.86 52 64 C42.1 64 32.2 64 22 64 Z M72 64 C72 73.57 72 83.14 72 93 C81.9 93 91.8 93 102 93 C102 83.43 102 73.86 102 64 C92.1 64 82.2 64 72 64 Z M122 64 C122 73.57 122 83.14 122 93 C131.9 93 141.8 93 152 93 C152 83.43 152 73.86 152 64 C142.1 64 132.2 64 122 64 Z M172 64 C172 73.57 172 83.14 172 93 C181.9 93 191.8 93 202 93 C202 83.43 202 73.86 202 64 C192.1 64 182.2 64 172 64 Z M22 116 C22 125.57 22 135.14 22 145 C31.9 145 41.8 145 52 145 C52 135.43 52 125.86 52 116 C42.1 116 32.2 116 22 116 Z M72 116 C72 125.57 72 135.14 72 145 C81.9 145 91.8 145 102 145 C102 135.43 102 125.86 102 116 C92.1 116 82.2 116 72 116 Z M122 116 C122 125.57 122 135.14 122 145 C131.9 145 141.8 145 152 145 C152 135.43 152 125.86 152 116 C142.1 116 132.2 116 122 116 Z M172 116 C172 125.57 172 135.14 172 145 C181.9 145 191.8 145 202 145 C202 135.43 202 125.86 202 116 C192.1 116 182.2 116 172 116 Z M22 171 C22 186.18 22 201.36 22 217 C81.4 217 140.8 217 202 217 C202 201.82 202 186.64 202 171 C142.6 171 83.2 171 22 171 Z " fill="#720DFF" transform="translate(144,166)"/>
<path d="M0 0 C38.61 0 77.22 0 117 0 C117 98.67 117 197.34 117 299 C107.43 299 97.86 299 88 299 C88 277.88 88 256.76 88 235 C93.28 235 98.56 235 104 235 C104 219.16 104 203.32 104 187 C69.68 187 35.36 187 0 187 C0 125.29 0 63.58 0 0 Z M14 32 C14 41.57 14 51.14 14 61 C23.57 61 33.14 61 43 61 C43 51.43 43 41.86 43 32 C33.43 32 23.86 32 14 32 Z M63 32 C63 41.57 63 51.14 63 61 C72.9 61 82.8 61 93 61 C93 51.43 93 41.86 93 32 C83.1 32 73.2 32 63 32 Z M14 82 C14 91.9 14 101.8 14 112 C23.57 112 33.14 112 43 112 C43 102.1 43 92.2 43 82 C33.43 82 23.86 82 14 82 Z M63 82 C63 91.9 63 101.8 63 112 C72.9 112 82.8 112 93 112 C93 102.1 93 92.2 93 82 C83.1 82 73.2 82 63 82 Z M14 133 C14 142.9 14 152.8 14 163 C23.57 163 33.14 163 43 163 C43 153.1 43 143.2 43 133 C33.43 133 23.86 133 14 133 Z M63 133 C63 142.9 63 152.8 63 163 C72.9 163 82.8 163 93 163 C93 153.1 93 143.2 93 133 C83.1 133 73.2 133 63 133 Z " fill="#720DFF" transform="translate(378,208)"/>
<path d="M0 0 C38.61 0 77.22 0 117 0 C117 61.71 117 123.42 117 187 C82.68 187 48.36 187 13 187 C13 202.84 13 218.68 13 235 C18.28 235 23.56 235 29 235 C29 256.12 29 277.24 29 299 C19.43 299 9.86 299 0 299 C0 200.33 0 101.66 0 0 Z M24 32 C24 41.57 24 51.14 24 61 C33.9 61 43.8 61 54 61 C54 51.43 54 41.86 54 32 C44.1 32 34.2 32 24 32 Z M74 32 C74 41.57 74 51.14 74 61 C83.57 61 93.14 61 103 61 C103 51.43 103 41.86 103 32 C93.43 32 83.86 32 74 32 Z M24 82 C24 91.9 24 101.8 24 112 C33.9 112 43.8 112 54 112 C54 102.1 54 92.2 54 82 C44.1 82 34.2 82 24 82 Z M74 82 C74 91.9 74 101.8 74 112 C83.57 112 93.14 112 103 112 C103 102.1 103 92.2 103 82 C93.43 82 83.86 82 74 82 Z M24 133 C24 142.9 24 152.8 24 163 C33.9 163 43.8 163 54 163 C54 153.1 54 143.2 54 133 C44.1 133 34.2 133 24 133 Z M74 133 C74 142.9 74 152.8 74 163 C83.57 163 93.14 163 103 163 C103 153.1 103 143.2 103 133 C93.43 133 83.86 133 74 133 Z " fill="#720DFF" transform="translate(17,208)"/>
<path d="M0 0 C142.56 0 285.12 0 432 0 C432 9.57 432 19.14 432 29 C289.44 29 146.88 29 0 29 C0 19.43 0 9.86 0 0 Z " fill="#720DFF" transform="translate(40,404)"/>
<path d="M0 0 C39.6 0 79.2 0 120 0 C120 21.12 120 42.24 120 64 C80.4 64 40.8 64 0 64 C0 42.88 0 21.76 0 0 Z M18 13 C18 20.59 18 28.18 18 36 C25.59 36 33.18 36 41 36 C41 28.41 41 20.82 41 13 C33.41 13 25.82 13 18 13 Z M71 13 C71 20.59 71 28.18 71 36 C78.59 36 86.18 36 94 36 C94 28.41 94 20.82 94 13 C86.41 13 78.82 13 71 13 Z " fill="#720DFF" transform="translate(336,443)"/>
<path d="M0 0 C39.6 0 79.2 0 120 0 C120 21.12 120 42.24 120 64 C80.4 64 40.8 64 0 64 C0 42.88 0 21.76 0 0 Z M26 13 C26 20.59 26 28.18 26 36 C33.59 36 41.18 36 49 36 C49 28.41 49 20.82 49 13 C41.41 13 33.82 13 26 13 Z M79 13 C79 20.59 79 28.18 79 36 C86.59 36 94.18 36 102 36 C102 28.41 102 20.82 102 13 C94.41 13 86.82 13 79 13 Z " fill="#720DFF" transform="translate(56,443)"/>
<path d="M0 0 C84.48 0 168.96 0 256 0 C256 7.92 256 15.84 256 24 C171.52 24 87.04 24 0 24 C0 16.08 0 8.16 0 0 Z " fill="#720DFF" transform="translate(128,132)"/>
<path d="M0 0 C25.74 0 51.48 0 78 0 C78 21.12 78 42.24 78 64 C52.26 64 26.52 64 0 64 C0 42.88 0 21.76 0 0 Z " fill="#720DFF" transform="translate(217,443)"/>
<path d="M0 0 C42.57 0 85.14 0 129 0 C129 7.92 129 15.84 129 24 C86.43 24 43.86 24 0 24 C0 16.08 0 8.16 0 0 Z " fill="#720DFF" transform="translate(378,174)"/>
<path d="M0 0 C42.57 0 85.14 0 129 0 C129 7.92 129 15.84 129 24 C86.43 24 43.86 24 0 24 C0 16.08 0 8.16 0 0 Z " fill="#720DFF" transform="translate(5,174)"/>
<path d="M0 0 C1.2065625 0.0309375 1.2065625 0.0309375 2.4375 0.0625 C3.77588733 2.51820175 5.10836232 4.97679916 6.4375 7.4375 C6.8190625 8.13617188 7.200625 8.83484375 7.59375 9.5546875 C10.4375 14.8359375 10.4375 14.8359375 10.4375 17.0625 C11.03288574 17.12719482 11.62827148 17.19188965 12.24169922 17.25854492 C14.93534656 17.56494007 17.62328341 17.90696896 20.3125 18.25 C21.24964844 18.35119141 22.18679687 18.45238281 23.15234375 18.55664062 C25.68775204 18.89408705 28.01506324 19.23859319 30.4375 20.0625 C32.0703125 22.67578125 32.0703125 22.67578125 32.4375 25.0625 C31.39875445 26.2733454 30.35631031 27.48101795 29.3125 28.6875 C28.73242188 29.36039063 28.15234375 30.03328125 27.5546875 30.7265625 C25.4375 33.0625 25.4375 33.0625 23.83007812 34.31445312 C21.1968062 36.47673332 19.56811967 37.89770582 19.17724609 41.38330078 C19.36757351 44.06880529 19.72882069 46.65980467 20.1875 49.3125 C20.46216801 51.10801494 20.72824403 52.90487214 20.984375 54.703125 C21.11682617 55.49235352 21.24927734 56.28158203 21.38574219 57.09472656 C21.40282227 57.7440918 21.41990234 58.39345703 21.4375 59.0625 C19.4375 61.0625 19.4375 61.0625 17.21875 61.41015625 C12.41085375 60.80916922 8.69067487 57.95137699 4.59375 55.49609375 C1.07469913 53.89771297 -0.00437365 53.73960687 -3.5625 55.0625 C-6.39465095 56.53147485 -9.10469338 58.15018565 -11.84375 59.78515625 C-14.73590566 61.14397076 -16.41343994 61.48848586 -19.5625 61.0625 C-21.5625 59.0625 -21.5625 59.0625 -21.60595703 57.03125 C-21.46456299 55.80921875 -21.46456299 55.80921875 -21.3203125 54.5625 C-21.22363281 53.675625 -21.12695312 52.78875 -21.02734375 51.875 C-20.91519531 50.946875 -20.80304688 50.01875 -20.6875 49.0625 C-20.4812565 47.22922446 -20.27550336 45.39589366 -20.0703125 43.5625 C-19.97379395 42.7478125 -19.87727539 41.933125 -19.77783203 41.09375 C-19.52736036 39.07146266 -19.52736036 39.07146266 -19.5625 37.0625 C-20.42294922 36.68544922 -20.42294922 36.68544922 -21.30078125 36.30078125 C-23.86211687 34.89846106 -25.667306 33.29361906 -27.75 31.25 C-28.44480469 30.58355469 -29.13960937 29.91710937 -29.85546875 29.23046875 C-31.79511986 26.76706745 -32.3820986 25.18086699 -32.5625 22.0625 C-30.28402332 19.78402332 -29.6192686 19.73360422 -26.53515625 19.3515625 C-25.74302734 19.24070312 -24.95089844 19.12984375 -24.13476562 19.015625 C-22.46641793 18.79750639 -20.79712127 18.58652339 -19.12695312 18.3828125 C-14.49272266 17.81143121 -14.49272266 17.81143121 -10.69140625 15.34765625 C-10.31886719 14.59355469 -9.94632813 13.83945312 -9.5625 13.0625 C-9.04429687 12.07894531 -8.52609375 11.09539063 -7.9921875 10.08203125 C-7.47914063 9.02371094 -6.96609375 7.96539062 -6.4375 6.875 C-3.13274325 0.07640837 -3.13274325 0.07640837 0 0 Z " fill="#720DFF" transform="translate(159.5625,23.9375)"/>
<path d="M0 0 C2.33984375 -0.21875 2.33984375 -0.21875 5 0 C6.44140625 1.46875 6.44140625 1.46875 7.5625 3.5 C7.97886719 4.22445313 8.39523437 4.94890625 8.82421875 5.6953125 C9.58499854 7.18654199 10.29984483 8.70249361 10.95703125 10.2421875 C12.87816134 14.80151668 12.87816134 14.80151668 17 17.375 C18.32685395 17.62125019 19.66218276 17.8227274 21 18 C23.12529012 18.35242153 25.25027343 18.70669662 27.375 19.0625 C28.41398437 19.21847656 29.45296875 19.37445313 30.5234375 19.53515625 C33 20 33 20 34 21 C34.44741661 24.73198087 34.44810049 26.4109874 32.13671875 29.44921875 C31.32847656 30.18785156 30.52023437 30.92648438 29.6875 31.6875 C28.48673828 32.80705078 28.48673828 32.80705078 27.26171875 33.94921875 C25.98236255 35.10925675 24.687008 36.25360756 23.34521484 37.34082031 C21.79524576 38.92274556 21.79524576 38.92274556 21.87475586 41.14477539 C22.04309937 42.35895142 22.04309937 42.35895142 22.21484375 43.59765625 C22.32376953 44.48130859 22.43269531 45.36496094 22.54492188 46.27539062 C22.67447266 47.19513672 22.80402344 48.11488281 22.9375 49.0625 C23.1855589 50.88541491 23.42431929 52.70962705 23.65234375 54.53515625 C23.76570068 55.343479 23.87905762 56.15180176 23.99584961 56.98461914 C23.99721924 57.64969482 23.99858887 58.31477051 24 59 C22 61 22 61 19.78125 61.34765625 C14.97335375 60.74666922 11.25317487 57.88887699 7.15625 55.43359375 C3.63719913 53.83521297 2.55812635 53.67710687 -1 55 C-3.83215095 56.46897485 -6.54219338 58.08768565 -9.28125 59.72265625 C-12.17340566 61.08147076 -13.85093994 61.42598586 -17 61 C-17.66 60.34 -18.32 59.68 -19 59 C-18.85302734 57.12744141 -18.85302734 57.12744141 -18.3359375 54.8515625 C-16.24715543 45.75504088 -16.24715543 45.75504088 -18.05810547 36.94824219 C-20.44441228 33.96150979 -23.19756831 31.64750425 -26.20703125 29.3125 C-29 27 -29 27 -30.01171875 24.875 C-30 23 -30 23 -28 20 C-26.19995117 19.51098633 -26.19995117 19.51098633 -24.04296875 19.33203125 C-23.26203857 19.24808105 -22.4811084 19.16413086 -21.67651367 19.07763672 C-20.85513916 18.9901416 -20.03376465 18.90264648 -19.1875 18.8125 C-13.13606944 18.1058979 -13.13606944 18.1058979 -7.875 15.34765625 C-6.62588593 13.27264768 -5.81447426 11.27896163 -5 9 C-4.08504557 7.32085068 -3.1474548 5.65383518 -2.1875 4 C-1.45616905 2.66785254 -0.72619141 1.33495612 0 0 Z " fill="#720DFF" transform="translate(350,24)"/>
<path d="M0 0 C4.08761751 1.75620693 4.74078211 5.10060829 6.359375 9.05859375 C8.6756265 14.51632844 8.6756265 14.51632844 12.7734375 18.5546875 C15.1059768 19.02037114 17.23252335 19.113288 19.609375 19.12109375 C21.42810535 19.41856184 23.24128072 19.75218096 25.046875 20.12109375 C25.87058594 20.26546875 26.69429687 20.40984375 27.54296875 20.55859375 C29.609375 21.12109375 29.609375 21.12109375 31.609375 23.12109375 C31.3627117 27.39894011 29.8662095 29.31926118 26.796875 32.18359375 C26.10980469 32.83457031 25.42273438 33.48554687 24.71484375 34.15625 C22.609375 36.12109375 22.609375 36.12109375 20.30078125 37.90234375 C18.24985579 40.11957926 18.24985579 40.11957926 18.65625 43.6171875 C18.86812815 44.93480475 19.10331472 46.24884542 19.359375 47.55859375 C20.9281549 56.74325284 20.9281549 56.74325284 20.609375 60.12109375 C19.949375 60.78109375 19.289375 61.44109375 18.609375 62.12109375 C12.9310258 61.74573171 9.06050822 59.27248612 4.29296875 56.3984375 C1.29682488 54.97232535 -0.12483661 54.60413486 -3.390625 55.12109375 C-6.78920512 56.80776532 -9.98079283 58.73763124 -13.234375 60.6875 C-16.63358007 62.23144587 -17.92344247 62.30485196 -21.390625 61.12109375 C-22.61103456 57.55374273 -22.16625268 54.90961242 -21.453125 51.24609375 C-20.21997496 45.20991307 -20.21997496 45.20991307 -20.390625 39.12109375 C-22.09425314 36.75193331 -24.16045371 34.87490209 -26.328125 32.93359375 C-32.28418936 27.44040068 -32.28418936 27.44040068 -33.390625 24.12109375 C-31.390625 21.12109375 -31.390625 21.12109375 -27.6171875 20.3125 C-25.31017907 19.97806388 -23.00059068 19.68171446 -20.6875 19.39257812 C-17.20541041 18.88351831 -14.92490554 18.51200901 -12.046875 16.40625 C-10.09773223 13.71698462 -8.67662612 11.00278199 -7.265625 7.99609375 C-3.5779288 0.18123496 -3.5779288 0.18123496 0 0 Z " fill="#720DFF" transform="translate(67.390625,46.87890625)"/>
<path d="M0 0 C4.75 0.6953125 4.75 0.6953125 7 3.4375 C9.2127175 7.140415 11.07489068 11.04365903 12.94921875 14.92578125 C13.83248984 16.93623456 13.83248984 16.93623456 15 18 C16.32491881 18.28243247 17.66102503 18.51302207 19 18.71875 C20.2065625 18.91017578 20.2065625 18.91017578 21.4375 19.10546875 C22.283125 19.23566406 23.12875 19.36585937 24 19.5 C25.66724399 19.75669458 27.33394878 20.01692457 29 20.28125 C29.7425 20.39533203 30.485 20.50941406 31.25 20.62695312 C33 21 33 21 34 22 C34.44140625 24.21484375 34.44140625 24.21484375 34 27 C32.02308527 29.0001384 30.07842487 30.76195189 27.9375 32.5625 C23.44302315 36.62874087 23.44302315 36.62874087 21.390625 42.16796875 C21.68498485 45.22388881 22.22542348 48.03148782 23 51 C24.34171866 58.3735158 24.34171866 58.3735158 22.875 61.0625 C20.21298772 62.39350614 18.84447298 61.78876909 16 61 C14.18079141 60.00721655 12.38951676 58.96202322 10.625 57.875 C7.25548074 56.01502537 5.37226874 55.02659062 1.5 54.75 C-2.78457987 56.2802071 -6.49319119 58.42126787 -10.3515625 60.8203125 C-13.44847187 62.19976181 -14.82787824 62.05737392 -18 61 C-18.33 60.67 -18.66 60.34 -19 60 C-18.93439053 58.32994067 -18.79587725 56.66258947 -18.625 55 C-18.48578125 53.51113281 -18.48578125 53.51113281 -18.34375 51.9921875 C-18.13047315 50.13570949 -17.86849856 48.28331713 -17.53125 46.4453125 C-17.14215367 44.22297383 -16.86263347 42.25281117 -17 40 C-18.95524698 37.20913543 -18.95524698 37.20913543 -22 35 C-28.64566713 28.99656121 -28.64566713 28.99656121 -30 25.1875 C-30 23 -30 23 -29 21 C-27.19335938 20.67553711 -27.19335938 20.67553711 -24.84375 20.52734375 C-15.21490301 19.83669343 -15.21490301 19.83669343 -7.17382812 15.15087891 C-3.96088598 10.45785255 -1.88927113 5.34127269 0 0 Z " fill="#720DFF" transform="translate(443,47)"/>
<path d="M0 0 C2.34375 -0.21484375 2.34375 -0.21484375 5 0 C6.40625 1.43359375 6.40625 1.43359375 7.5 3.4375 C7.92925781 4.16195313 8.35851562 4.88640625 8.80078125 5.6328125 C10 8 10 8 10.79296875 10.4296875 C11.8886097 13.34820706 12.66080962 14.89300867 15 17 C19.54783623 18.52429982 24.29457838 18.96565776 29.04296875 19.46484375 C33 20 33 20 35 22 C34.9765625 24.34765625 34.9765625 24.34765625 34 27 C32.16717467 28.53111408 30.28498961 30.00379894 28.375 31.4375 C25.19567233 34.13977944 23.23859884 36.43318164 22.59765625 40.64208984 C22.46527213 46.48743258 23.04646132 52.25593029 23.84716797 58.04150391 C23.89760254 58.68780762 23.94803711 59.33411133 24 60 C23.67 60.33 23.34 60.66 23 61 C16.73438758 60.86076417 12.31758063 58.19801343 6.96484375 55.08203125 C3.13821757 53.68548915 1.65447811 54.33755173 -2 56 C-4.54908395 57.26495895 -7.0383838 58.611818 -9.53515625 59.9765625 C-12.23964967 61.09950589 -14.10029091 61.27137659 -17 61 C-18 60 -18 60 -18.125 56.3125 C-18.08736137 52.78074211 -17.58073865 49.4844319 -17 46 C-16.56409105 41.95086638 -16.56409105 41.95086638 -17 38 C-19.00677192 35.69758757 -20.62520645 34.11766402 -23 32.3125 C-28.8640237 27.73618421 -28.8640237 27.73618421 -29.5 24.29296875 C-29 22 -29 22 -27 20 C-24.96006212 19.86428254 -22.91983118 19.73170721 -20.87841797 19.62036133 C-13.38245313 19.13293795 -13.38245313 19.13293795 -7.27294922 15.19824219 C-4.090273 10.4714533 -1.96941489 5.32663384 0 0 Z " fill="#720DFF" transform="translate(253,5)"/>
<path d="M0 0 C6.93 0 13.86 0 21 0 C21 21.12 21 42.24 21 64 C14.07 64 7.14 64 0 64 C0 42.88 0 21.76 0 0 Z " fill="#720DFF" transform="translate(305,443)"/>
<path d="M0 0 C6.93 0 13.86 0 21 0 C21 21.12 21 42.24 21 64 C14.07 64 7.14 64 0 64 C0 42.88 0 21.76 0 0 Z " fill="#720DFF" transform="translate(186,443)"/>
<path d="M0 0 C0.99 0 1.98 0 3 0 C3 0.99 3 1.98 3 3 C2.01 3 1.02 3 0 3 C0 2.01 0 1.02 0 0 Z " fill="#720DFF" transform="translate(417,466)"/>
<path d="M0 0 C0.99 0 1.98 0 3 0 C3 0.99 3 1.98 3 3 C2.01 3 1.02 3 0 3 C0 2.01 0 1.02 0 0 Z " fill="#720DFF" transform="translate(364,466)"/>
<path d="M0 0 C0.99 0 1.98 0 3 0 C3 0.99 3 1.98 3 3 C2.01 3 1.02 3 0 3 C0 2.01 0 1.02 0 0 Z " fill="#720DFF" transform="translate(145,466)"/>
<path d="M0 0 C0.99 0 1.98 0 3 0 C3 0.99 3 1.98 3 3 C2.01 3 1.02 3 0 3 C0 2.01 0 1.02 0 0 Z " fill="#720DFF" transform="translate(92,466)"/>
</svg>
