<?xml version="1.0" standalone="no"?>
<!DOCTYPE svg PUBLIC "-//W3C//DTD SVG 20010904//EN"
 "http://www.w3.org/TR/2001/REC-SVG-20010904/DTD/svg10.dtd">
<svg version="1.0" xmlns="http://www.w3.org/2000/svg"
 width="512.000000pt" height="512.000000pt" viewBox="0 0 512.000000 512.000000"
 preserveAspectRatio="xMidYMid meet">

<g transform="translate(0.000000,512.000000) scale(0.100000,-0.100000)"
fill="#666666" stroke="none">
<path d="M1655 5020 c-10 -11 -22 -45 -27 -76 -21 -135 -101 -214 -236 -234
-138 -21 -592 -122 -636 -143 -75 -34 -159 -124 -205 -220 -55 -114 -76 -230
-51 -277 13 -25 65 -41 95 -30 31 12 41 32 50 100 14 108 73 217 147 273 33
26 50 30 577 138 169 35 240 68 306 141 65 73 97 145 103 233 4 64 2 75 -17
94 -27 27 -82 28 -106 1z"/>
<path d="M2123 4679 c-29 -11 -53 -48 -53 -83 0 -107 -100 -222 -210 -240 -19
-3 -152 -10 -295 -16 -277 -12 -346 -23 -427 -67 -105 -57 -192 -189 -204
-310 -6 -57 -5 -63 19 -87 27 -27 65 -33 97 -16 20 11 40 59 40 99 0 37 42
121 76 153 63 59 97 66 379 78 317 14 379 21 450 54 71 32 159 120 191 190 30
66 48 165 35 198 -16 41 -58 62 -98 47z"/>
<path d="M458 3829 c-10 -5 -22 -18 -28 -29 -9 -17 -60 -646 -60 -742 l0 -38
465 0 465 0 0 28 c0 51 -40 697 -46 729 -10 63 -10 63 -414 63 -228 0 -372 -4
-382 -11z"/>
<path d="M4866 2962 c-10 -2 -260 -172 -556 -378 -296 -206 -540 -374 -544
-374 -3 0 -7 160 -8 356 l-3 357 -27 20 c-26 20 -30 20 -60 5 -18 -8 -269
-180 -558 -381 l-525 -365 -5 352 c-5 370 -6 372 -50 396 -9 5 -27 6 -38 3
-12 -3 -237 -160 -500 -350 l-477 -344 2 -47 c2 -26 35 -501 74 -1057 39 -556
68 -1029 65 -1052 l-6 -43 1615 0 c1162 0 1621 3 1638 11 14 6 30 22 36 36 8
17 11 419 11 1422 0 1319 -1 1399 -17 1413 -23 19 -43 25 -67 20z m-2219
-1486 l28 -24 3 -269 c2 -147 0 -278 -3 -290 -3 -12 -15 -32 -27 -43 -21 -19
-34 -20 -379 -20 -336 0 -358 1 -380 19 l-24 19 -3 286 -3 287 30 29 29 30
351 0 350 0 28 -24z m994 -5 c18 -22 19 -43 19 -308 l0 -284 -25 -24 -24 -25
-354 0 c-343 0 -355 1 -381 21 l-26 20 0 285 c0 183 4 292 11 305 6 11 20 24
32 29 12 5 181 8 375 7 l354 -2 19 -24z m980 0 l29 -29 0 -272 c0 -276 -3
-299 -39 -327 -12 -9 -107 -12 -368 -13 -193 0 -359 3 -368 6 -40 16 -45 51
-45 334 l0 272 29 29 29 29 352 0 352 0 29 -29z"/>
<path d="M359 2868 c-4 -11 -25 -345 -22 -350 2 -5 229 -8 505 -8 l501 0 -7
103 c-4 56 -9 137 -13 180 l-6 77 -478 0 c-264 0 -479 -1 -480 -2z"/>
<path d="M326 2358 c-5 -16 -156 -2099 -159 -2181 -4 -105 -56 -97 672 -97
l628 0 23 25 24 26 -78 1112 c-42 611 -80 1115 -82 1119 -3 4 -235 8 -515 8
-399 0 -510 -3 -513 -12z"/>
</g>
</svg>
