<?xml version="1.0" standalone="no"?>
<!DOCTYPE svg PUBLIC "-//W3C//DTD SVG 20010904//EN"
 "http://www.w3.org/TR/2001/REC-SVG-20010904/DTD/svg10.dtd">
<svg version="1.0" xmlns="http://www.w3.org/2000/svg"
 width="512.000000pt" height="512.000000pt" viewBox="0 0 512.000000 512.000000"
 preserveAspectRatio="xMidYMid meet">

<g transform="translate(0.000000,512.000000) scale(0.100000,-0.100000)"
fill="#001868ff" stroke="none">
<path d="M3038 5026 c-68 -24 -129 -89 -148 -157 -6 -19 -10 -60 -10 -91 l0
-58 -135 0 c-131 0 -137 -1 -160 -25 -25 -24 -25 -26 -25 -215 0 -189 0 -191
25 -215 23 -24 29 -25 160 -25 l135 0 0 -56 c0 -76 17 -126 58 -174 47 -56
103 -82 185 -88 78 -5 77 -4 52 -120 -17 -84 -50 -172 -99 -269 -42 -85 -45
-115 -11 -148 25 -26 63 -32 96 -15 21 12 88 138 126 240 30 78 62 221 63 273
l0 37 46 0 46 0 -4 -237 c-4 -214 -7 -244 -27 -299 -34 -95 -76 -152 -206
-286 -66 -68 -149 -158 -184 -201 -228 -281 -408 -655 -484 -1007 -51 -231
-52 -257 -52 -901 l0 -605 37 -76 c45 -91 103 -147 196 -191 l67 -32 975 0
975 0 67 32 c93 44 151 100 196 191 l37 76 0 890 0 891 -23 105 c-57 260 -108
365 -387 799 -132 205 -220 354 -241 405 -40 99 -64 228 -64 351 l0 92 73 5
c132 9 220 81 242 201 l7 37 124 0 c133 0 165 8 183 47 7 15 11 115 11 284 l0
260 -25 24 c-23 24 -29 25 -158 25 l-135 0 -7 37 c-9 51 -37 102 -77 140 -67
64 -50 63 -802 63 -535 -1 -689 -4 -718 -14z m1417 -171 l25 -24 0 -351 0
-351 -25 -24 -24 -25 -671 0 -671 0 -24 25 -25 24 0 351 0 351 25 24 24 25
671 0 671 0 24 -25z m345 -375 l0 -160 -80 0 -80 0 0 160 0 160 80 0 80 0 0
-160z m-1920 0 l0 -80 -80 0 -80 0 0 80 0 80 80 0 80 0 0 -80z m960 -1472 l0
-913 -79 -60 c-103 -79 -818 -752 -860 -810 -47 -66 -80 -147 -93 -231 -40
-259 135 -518 393 -579 94 -22 1024 -22 1118 0 187 44 342 199 386 386 12 53
15 163 15 659 0 811 -8 859 -135 860 -139 0 -351 -43 -500 -103 l-85 -34 0
868 0 869 80 0 80 0 0 -96 c0 -172 38 -340 107 -479 20 -38 124 -207 231 -375
216 -335 268 -430 311 -565 68 -210 64 -155 68 -1095 3 -633 1 -866 -8 -897
-14 -53 -68 -117 -123 -146 l-41 -22 -945 0 c-903 0 -947 1 -980 19 -49 26
-88 64 -113 111 -22 39 -22 49 -25 555 -2 325 1 561 8 640 27 309 124 628 271
893 107 192 210 327 399 522 158 164 204 231 247 360 25 76 27 92 31 328 l4
247 119 0 119 0 0 -912z m713 -913 c4 -33 6 -330 5 -660 l-3 -600 -27 -57
c-37 -79 -98 -142 -177 -181 l-66 -32 -525 0 -525 0 -60 28 c-78 36 -146 104
-182 181 -24 52 -28 74 -28 146 0 124 28 179 153 302 158 155 638 604 706 661
168 137 399 237 618 266 103 14 102 15 111 -54z"/>
<path d="M3391 4703 c-22 -19 -111 -267 -111 -311 0 -12 11 -34 25 -47 l24
-25 429 0 c395 0 432 1 451 18 22 18 111 266 111 310 0 12 -11 34 -25 47 l-24
25 -429 0 c-395 0 -432 -1 -451 -17z m725 -180 l-13 -38 -316 -3 c-252 -2
-316 0 -312 10 2 7 9 25 14 41 l11 27 314 0 315 0 -13 -37z"/>
<path d="M4025 1575 c-16 -15 -25 -36 -25 -55 0 -19 9 -40 25 -55 23 -24 31
-25 135 -25 104 0 112 1 135 25 16 15 25 36 25 55 0 19 -9 40 -25 55 -23 24
-31 25 -135 25 -104 0 -112 -1 -135 -25z"/>
<path d="M3705 1095 c-16 -15 -25 -36 -25 -55 0 -19 9 -40 25 -55 l24 -25 271
0 271 0 24 25 c16 15 25 36 25 55 0 19 -9 40 -25 55 l-24 25 -271 0 -271 0
-24 -25z"/>
<path d="M1945 4935 c-26 -25 -32 -63 -15 -96 13 -24 200 -119 235 -119 54 0
92 70 65 121 -13 24 -200 119 -235 119 -14 0 -37 -11 -50 -25z"/>
<path d="M1865 4535 c-16 -15 -25 -36 -25 -55 0 -19 9 -40 25 -55 23 -24 28
-25 175 -25 147 0 152 1 175 25 16 15 25 36 25 55 0 19 -9 40 -25 55 -23 24
-28 25 -175 25 -147 0 -152 -1 -175 -25z"/>
<path d="M2038 4190 c-99 -51 -118 -69 -118 -115 0 -33 42 -75 75 -75 35 0
222 95 235 119 27 52 -11 122 -67 120 -15 0 -72 -22 -125 -49z"/>
<path d="M505 2935 c-25 -24 -25 -24 -25 -238 l0 -215 -55 -7 c-75 -9 -183
-65 -235 -121 -23 -25 -56 -75 -73 -112 l-32 -67 0 -896 0 -895 37 -76 c45
-91 103 -147 196 -191 l67 -32 735 0 735 0 67 32 c93 44 151 100 196 191 l37
76 0 895 0 896 -32 67 c-17 37 -50 87 -73 112 -52 56 -160 112 -235 121 l-55
7 0 215 c0 214 0 214 -25 238 l-24 25 -591 0 -591 0 -24 -25z m1095 -295 l0
-160 -480 0 -480 0 0 160 0 160 480 0 480 0 0 -160z m234 -332 c55 -16 138
-99 154 -154 17 -59 17 -1689 0 -1748 -16 -55 -99 -138 -154 -154 -59 -17
-1369 -17 -1428 0 -55 16 -138 99 -154 154 -17 59 -17 1689 0 1748 15 51 99
137 148 153 52 16 1378 17 1434 1z"/>
<path d="M586 1737 c-36 -36 -58 -117 -63 -232 -5 -110 13 -187 63 -267 80
-127 251 -217 412 -218 l42 0 0 -125 c0 -120 1 -127 25 -150 13 -14 35 -25 49
-25 70 0 86 34 86 187 l0 119 34 -4 c58 -7 171 18 246 54 214 102 305 334 229
581 -21 68 -54 103 -99 103 -43 0 -174 -37 -227 -64 -79 -40 -158 -111 -211
-189 l-49 -74 -23 43 c-75 143 -255 260 -428 280 -56 6 -62 4 -86 -19z m212
-183 c100 -48 184 -158 217 -285 25 -92 25 -93 -47 -85 -68 7 -147 39 -193 79
-70 59 -110 188 -91 292 7 34 9 36 34 30 15 -3 51 -17 80 -31z m775 -9 c32
-147 -61 -299 -210 -345 -36 -11 -83 -20 -105 -20 l-39 0 7 38 c19 105 80 220
150 282 42 36 151 92 174 88 8 -2 18 -21 23 -43z"/>
</g>
</svg>
