<?xml version="1.0" standalone="no"?>
<!DOCTYPE svg PUBLIC "-//W3C//DTD SVG 20010904//EN"
 "http://www.w3.org/TR/2001/REC-SVG-20010904/DTD/svg10.dtd">
<svg version="1.0" xmlns="http://www.w3.org/2000/svg"
 width="512.000000pt" height="512.000000pt" viewBox="0 0 512.000000 512.000000"
 preserveAspectRatio="xMidYMid meet">

<g transform="translate(0.000000,512.000000) scale(0.100000,-0.100000)"
fill="#ff0000ff" stroke="none">
<path d="M2877 4739 c-26 -4 -304 -63 -618 -130 -593 -128 -618 -135 -661
-193 -48 -65 -1580 -2734 -1590 -2770 -24 -90 16 -187 101 -243 118 -79 1681
-972 1719 -982 71 -20 160 8 213 66 14 15 41 53 59 83 18 30 34 56 35 58 2 2
44 -21 94 -51 154 -93 335 -159 515 -187 102 -16 318 -13 432 5 185 30 400
117 564 228 41 29 125 101 186 162 209 208 338 452 391 739 25 135 23 380 -6
513 -59 282 -176 497 -381 704 -114 115 -206 185 -339 257 l-69 37 62 105 61
105 0 85 0 85 220 1 c607 3 1100 121 1219 293 121 174 -66 335 -492 425 -323
68 -686 88 -1108 60 l-91 -7 -7 29 c-27 110 -100 317 -127 358 -81 122 -232
187 -382 165z m163 -140 c54 -24 105 -71 130 -120 16 -30 290 -903 290 -923 0
-14 -305 31 -450 66 -47 12 -86 22 -87 23 -1 0 9 28 22 61 89 215 -58 459
-289 481 -50 4 -80 1 -137 -16 -63 -20 -81 -31 -134 -84 -76 -77 -105 -144
-105 -247 0 -138 77 -259 202 -316 88 -39 197 -41 279 -2 l57 26 103 -29 c130
-37 293 -66 452 -82 118 -12 122 -13 135 -40 32 -67 28 -89 -38 -207 -49 -86
-66 -110 -79 -105 -9 4 -61 17 -116 30 -467 112 -954 -21 -1293 -353 -49 -48
-111 -117 -138 -153 l-50 -66 -287 165 c-263 151 -289 164 -312 154 -37 -17
-52 -55 -33 -84 9 -13 140 -94 292 -182 l275 -158 -26 -52 c-14 -28 -40 -90
-58 -138 l-31 -88 -294 170 c-185 107 -305 170 -322 170 -18 0 -33 -8 -44 -25
-35 -53 -27 -60 312 -256 l316 -182 -6 -31 c-3 -17 -9 -91 -12 -163 -4 -73 -8
-133 -10 -133 -2 0 -99 55 -216 123 -540 313 -537 311 -566 301 -36 -13 -51
-55 -30 -86 9 -13 196 -127 422 -257 223 -128 407 -241 410 -250 3 -9 10 -43
17 -76 46 -233 182 -484 365 -673 l82 -83 -39 -67 c-21 -37 -48 -75 -60 -84
-24 -20 -80 -23 -112 -7 -24 13 -607 348 -797 459 -63 37 -285 165 -494 285
-402 232 -423 248 -411 309 8 43 1564 2735 1591 2752 33 22 1146 262 1219 263
40 0 75 -6 105 -20z m1135 -529 c298 -27 551 -82 691 -150 72 -35 134 -86 134
-110 0 -21 -58 -74 -112 -101 -229 -116 -692 -183 -1178 -171 l-115 3 -78 252
c-42 139 -77 258 -77 265 0 6 23 12 58 15 133 8 575 6 677 -3z m-1501 -9 c62
-15 63 -25 4 -59 -67 -37 -123 -99 -139 -151 -19 -62 1 -114 66 -178 59 -57
55 -65 -25 -51 -66 12 -120 54 -152 117 -68 134 2 286 147 322 42 10 54 10 99
0z m165 -152 c18 -51 13 -110 -14 -167 l-24 -53 -39 20 c-109 56 -130 107 -64
159 35 28 109 71 124 72 3 0 11 -14 17 -31z m317 -894 c340 -59 639 -249 831
-527 150 -217 225 -458 224 -722 -1 -351 -128 -656 -375 -901 -230 -228 -510
-349 -837 -362 -281 -11 -523 57 -762 214 -94 62 -270 238 -334 333 -213 318
-274 685 -177 1053 31 118 125 310 202 412 194 261 484 442 801 499 105 19
318 19 427 1z"/>
<path d="M2911 2603 c-17 -15 -21 -31 -23 -101 l-3 -84 -54 -19 c-93 -32 -170
-104 -214 -199 -17 -36 -21 -65 -21 -146 -1 -93 1 -105 29 -159 41 -80 105
-128 213 -160 45 -14 120 -36 166 -50 135 -40 176 -88 176 -208 0 -164 -143
-277 -295 -233 -96 29 -157 101 -171 205 -10 75 -60 105 -104 61 -45 -45 -8
-188 72 -275 54 -59 85 -80 158 -106 l45 -16 5 -88 c5 -84 7 -90 32 -104 25
-14 29 -14 55 5 26 20 28 26 31 106 l3 84 42 11 c97 26 200 127 234 228 21 65
20 178 -2 246 -22 64 -82 132 -147 165 -26 13 -103 39 -172 58 -209 56 -249
94 -250 231 0 49 5 80 18 105 72 138 233 178 354 90 45 -32 92 -117 92 -166 0
-40 34 -84 65 -84 13 0 32 11 44 26 17 21 19 35 14 72 -16 125 -87 228 -195
281 -34 17 -69 31 -80 31 -16 0 -18 9 -18 85 0 74 -3 87 -22 105 -27 25 -49
25 -77 3z"/>
</g>
</svg>
